<mxfile host="app.diagrams.net" modified="2021-11-09T13:56:39.288Z" agent="5.0 (Windows NT 10.0; Win64; x64) AppleWebKit/537.36 (KHTML, like Gecko) Chrome/95.0.4638.69 Safari/537.36" etag="GPMLwiD9PU4biU_VLD-L" version="15.7.0" type="github">
  <diagram id="lEJjT3Yas72zC6B5epo1" name="第 1 页">
    <mxGraphModel dx="1422" dy="1923" grid="1" gridSize="10" guides="1" tooltips="1" connect="1" arrows="1" fold="1" page="1" pageScale="1" pageWidth="827" pageHeight="1169" math="0" shadow="0">
      <root>
        <mxCell id="0" />
        <mxCell id="1" parent="0" />
        <mxCell id="i1759LFhbYFXr8-DVYZL-3" value="" style="edgeStyle=orthogonalEdgeStyle;rounded=0;orthogonalLoop=1;jettySize=auto;html=1;" edge="1" parent="1" source="i1759LFhbYFXr8-DVYZL-1" target="i1759LFhbYFXr8-DVYZL-2">
          <mxGeometry relative="1" as="geometry" />
        </mxCell>
        <mxCell id="i1759LFhbYFXr8-DVYZL-1" value="createBean" style="rounded=0;whiteSpace=wrap;html=1;" vertex="1" parent="1">
          <mxGeometry x="180" y="220" width="120" height="60" as="geometry" />
        </mxCell>
        <mxCell id="i1759LFhbYFXr8-DVYZL-5" value="" style="edgeStyle=orthogonalEdgeStyle;rounded=0;orthogonalLoop=1;jettySize=auto;html=1;" edge="1" parent="1" source="i1759LFhbYFXr8-DVYZL-2" target="i1759LFhbYFXr8-DVYZL-4">
          <mxGeometry relative="1" as="geometry" />
        </mxCell>
        <mxCell id="i1759LFhbYFXr8-DVYZL-2" value="真正的去创建Bean&lt;br&gt;doCreateBean" style="whiteSpace=wrap;html=1;rounded=0;" vertex="1" parent="1">
          <mxGeometry x="180" y="360" width="120" height="60" as="geometry" />
        </mxCell>
        <mxCell id="i1759LFhbYFXr8-DVYZL-7" value="" style="edgeStyle=orthogonalEdgeStyle;rounded=0;orthogonalLoop=1;jettySize=auto;html=1;" edge="1" parent="1" source="i1759LFhbYFXr8-DVYZL-4" target="i1759LFhbYFXr8-DVYZL-6">
          <mxGeometry relative="1" as="geometry" />
        </mxCell>
        <mxCell id="i1759LFhbYFXr8-DVYZL-4" value="初始化Bean&lt;br&gt;initialBean" style="whiteSpace=wrap;html=1;rounded=0;" vertex="1" parent="1">
          <mxGeometry x="180" y="500" width="120" height="60" as="geometry" />
        </mxCell>
        <mxCell id="i1759LFhbYFXr8-DVYZL-9" value="" style="edgeStyle=orthogonalEdgeStyle;rounded=0;orthogonalLoop=1;jettySize=auto;html=1;fontFamily=Tahoma;fontColor=#330000;" edge="1" parent="1" source="i1759LFhbYFXr8-DVYZL-6" target="i1759LFhbYFXr8-DVYZL-8">
          <mxGeometry relative="1" as="geometry" />
        </mxCell>
        <mxCell id="i1759LFhbYFXr8-DVYZL-6" value="&lt;pre style=&quot;font-size: 12pt;&quot;&gt;&lt;font face=&quot;Tahoma&quot;&gt;&lt;span style=&quot;&quot;&gt;applyBeanPostProcessorsBeforeInitialization(wrappedBean&lt;/span&gt;&lt;span style=&quot;&quot;&gt;, &lt;/span&gt;&lt;span style=&quot;&quot;&gt;beanName)&lt;/span&gt;&lt;/font&gt;&lt;/pre&gt;" style="whiteSpace=wrap;html=1;rounded=0;fontColor=#330000;labelBackgroundColor=none;" vertex="1" parent="1">
          <mxGeometry x="400" y="505" width="670" height="50" as="geometry" />
        </mxCell>
        <mxCell id="i1759LFhbYFXr8-DVYZL-13" value="" style="edgeStyle=orthogonalEdgeStyle;rounded=0;orthogonalLoop=1;jettySize=auto;html=1;fontFamily=Tahoma;fontColor=#330000;" edge="1" parent="1" source="i1759LFhbYFXr8-DVYZL-8">
          <mxGeometry relative="1" as="geometry">
            <mxPoint x="1390" y="530" as="targetPoint" />
          </mxGeometry>
        </mxCell>
        <mxCell id="i1759LFhbYFXr8-DVYZL-14" value="否" style="edgeLabel;html=1;align=center;verticalAlign=middle;resizable=0;points=[];fontFamily=Tahoma;fontColor=#330000;" vertex="1" connectable="0" parent="i1759LFhbYFXr8-DVYZL-13">
          <mxGeometry x="-0.3067" y="-1" relative="1" as="geometry">
            <mxPoint as="offset" />
          </mxGeometry>
        </mxCell>
        <mxCell id="i1759LFhbYFXr8-DVYZL-8" value="是否被之前的循环依赖创建过代理" style="rhombus;whiteSpace=wrap;html=1;rounded=0;fontColor=#330000;" vertex="1" parent="1">
          <mxGeometry x="1160" y="490" width="80" height="80" as="geometry" />
        </mxCell>
        <mxCell id="i1759LFhbYFXr8-DVYZL-10" value="" style="endArrow=classic;html=1;rounded=0;fontFamily=Tahoma;fontColor=#330000;entryX=0.5;entryY=1;entryDx=0;entryDy=0;exitX=0.5;exitY=1;exitDx=0;exitDy=0;" edge="1" parent="1" source="i1759LFhbYFXr8-DVYZL-8" target="i1759LFhbYFXr8-DVYZL-4">
          <mxGeometry width="50" height="50" relative="1" as="geometry">
            <mxPoint x="1120" y="730" as="sourcePoint" />
            <mxPoint x="1170" y="680" as="targetPoint" />
            <Array as="points">
              <mxPoint x="1200" y="640" />
              <mxPoint x="240" y="640" />
            </Array>
          </mxGeometry>
        </mxCell>
        <mxCell id="i1759LFhbYFXr8-DVYZL-11" value="已经创建过" style="edgeLabel;html=1;align=center;verticalAlign=middle;resizable=0;points=[];fontFamily=Tahoma;fontColor=#330000;" vertex="1" connectable="0" parent="i1759LFhbYFXr8-DVYZL-10">
          <mxGeometry x="-0.0414" y="1" relative="1" as="geometry">
            <mxPoint as="offset" />
          </mxGeometry>
        </mxCell>
        <mxCell id="i1759LFhbYFXr8-DVYZL-20" value="" style="edgeStyle=orthogonalEdgeStyle;rounded=0;orthogonalLoop=1;jettySize=auto;html=1;fontFamily=Tahoma;fontColor=#330000;" edge="1" parent="1" source="i1759LFhbYFXr8-DVYZL-15" target="i1759LFhbYFXr8-DVYZL-19">
          <mxGeometry relative="1" as="geometry" />
        </mxCell>
        <mxCell id="i1759LFhbYFXr8-DVYZL-15" value="是否是targetSourcedBean&lt;br&gt;是否需要忽略&lt;br&gt;是否AOP基建类&lt;br&gt;是否要跳过" style="rhombus;whiteSpace=wrap;html=1;labelBackgroundColor=none;fontFamily=Tahoma;fontColor=#330000;align=center;verticalAlign=middle;" vertex="1" parent="1">
          <mxGeometry x="1390" y="445" width="170" height="170" as="geometry" />
        </mxCell>
        <mxCell id="i1759LFhbYFXr8-DVYZL-16" value="" style="endArrow=classic;html=1;rounded=0;fontFamily=Tahoma;fontColor=#330000;entryX=0.5;entryY=1;entryDx=0;entryDy=0;exitX=0.5;exitY=1;exitDx=0;exitDy=0;" edge="1" parent="1" source="i1759LFhbYFXr8-DVYZL-15" target="i1759LFhbYFXr8-DVYZL-4">
          <mxGeometry width="50" height="50" relative="1" as="geometry">
            <mxPoint x="1190" y="760" as="sourcePoint" />
            <mxPoint x="1240" y="710" as="targetPoint" />
            <Array as="points">
              <mxPoint x="1475" y="680" />
              <mxPoint x="240" y="680" />
            </Array>
          </mxGeometry>
        </mxCell>
        <mxCell id="i1759LFhbYFXr8-DVYZL-17" value="不满足创建动态代理的条件" style="edgeLabel;html=1;align=center;verticalAlign=middle;resizable=0;points=[];fontFamily=Tahoma;fontColor=#330000;" vertex="1" connectable="0" parent="i1759LFhbYFXr8-DVYZL-16">
          <mxGeometry x="-0.2408" relative="1" as="geometry">
            <mxPoint as="offset" />
          </mxGeometry>
        </mxCell>
        <mxCell id="i1759LFhbYFXr8-DVYZL-18" value="是" style="edgeLabel;html=1;align=center;verticalAlign=middle;resizable=0;points=[];fontFamily=Tahoma;fontColor=#330000;" vertex="1" connectable="0" parent="i1759LFhbYFXr8-DVYZL-16">
          <mxGeometry x="-0.7972" y="-1" relative="1" as="geometry">
            <mxPoint as="offset" />
          </mxGeometry>
        </mxCell>
        <mxCell id="i1759LFhbYFXr8-DVYZL-22" value="" style="edgeStyle=orthogonalEdgeStyle;rounded=0;orthogonalLoop=1;jettySize=auto;html=1;fontFamily=Tahoma;fontColor=#330000;" edge="1" parent="1" source="i1759LFhbYFXr8-DVYZL-19" target="i1759LFhbYFXr8-DVYZL-21">
          <mxGeometry relative="1" as="geometry" />
        </mxCell>
        <mxCell id="i1759LFhbYFXr8-DVYZL-38" value="" style="edgeStyle=orthogonalEdgeStyle;rounded=0;orthogonalLoop=1;jettySize=auto;html=1;fontFamily=Tahoma;fontColor=#330000;" edge="1" parent="1" source="i1759LFhbYFXr8-DVYZL-19">
          <mxGeometry relative="1" as="geometry">
            <mxPoint x="1865" y="530" as="targetPoint" />
          </mxGeometry>
        </mxCell>
        <mxCell id="i1759LFhbYFXr8-DVYZL-19" value="根据当前Bean找到匹配的Advisor" style="whiteSpace=wrap;html=1;fontFamily=Tahoma;fontColor=#330000;" vertex="1" parent="1">
          <mxGeometry x="1665" y="500" width="120" height="60" as="geometry" />
        </mxCell>
        <mxCell id="i1759LFhbYFXr8-DVYZL-24" value="" style="edgeStyle=orthogonalEdgeStyle;rounded=0;orthogonalLoop=1;jettySize=auto;html=1;fontFamily=Tahoma;fontColor=#330000;" edge="1" parent="1" source="i1759LFhbYFXr8-DVYZL-21" target="i1759LFhbYFXr8-DVYZL-23">
          <mxGeometry relative="1" as="geometry" />
        </mxCell>
        <mxCell id="i1759LFhbYFXr8-DVYZL-21" value="getAdvicesAndAdvisorForBean" style="whiteSpace=wrap;html=1;fontFamily=Tahoma;fontColor=#330000;" vertex="1" parent="1">
          <mxGeometry x="1622" y="300" width="205" height="60" as="geometry" />
        </mxCell>
        <mxCell id="i1759LFhbYFXr8-DVYZL-26" value="" style="edgeStyle=orthogonalEdgeStyle;rounded=0;orthogonalLoop=1;jettySize=auto;html=1;fontFamily=Tahoma;fontColor=#330000;" edge="1" parent="1" source="i1759LFhbYFXr8-DVYZL-23" target="i1759LFhbYFXr8-DVYZL-25">
          <mxGeometry relative="1" as="geometry" />
        </mxCell>
        <mxCell id="i1759LFhbYFXr8-DVYZL-23" value="findEligibleAdvisor" style="whiteSpace=wrap;html=1;fontFamily=Tahoma;fontColor=#330000;" vertex="1" parent="1">
          <mxGeometry x="1904.5" y="300" width="120" height="60" as="geometry" />
        </mxCell>
        <mxCell id="i1759LFhbYFXr8-DVYZL-30" value="" style="edgeStyle=orthogonalEdgeStyle;rounded=0;orthogonalLoop=1;jettySize=auto;html=1;fontFamily=Tahoma;fontColor=#330000;" edge="1" parent="1" source="i1759LFhbYFXr8-DVYZL-25" target="i1759LFhbYFXr8-DVYZL-29">
          <mxGeometry relative="1" as="geometry" />
        </mxCell>
        <mxCell id="i1759LFhbYFXr8-DVYZL-32" value="" style="edgeStyle=orthogonalEdgeStyle;rounded=0;orthogonalLoop=1;jettySize=auto;html=1;fontFamily=Tahoma;fontColor=#330000;" edge="1" parent="1" source="i1759LFhbYFXr8-DVYZL-25" target="i1759LFhbYFXr8-DVYZL-31">
          <mxGeometry relative="1" as="geometry" />
        </mxCell>
        <mxCell id="i1759LFhbYFXr8-DVYZL-34" value="" style="edgeStyle=orthogonalEdgeStyle;rounded=0;orthogonalLoop=1;jettySize=auto;html=1;fontFamily=Tahoma;fontColor=#330000;" edge="1" parent="1" source="i1759LFhbYFXr8-DVYZL-25" target="i1759LFhbYFXr8-DVYZL-33">
          <mxGeometry relative="1" as="geometry" />
        </mxCell>
        <mxCell id="i1759LFhbYFXr8-DVYZL-25" value="获取到之前已经解析到的Advisor" style="whiteSpace=wrap;html=1;fontFamily=Tahoma;fontColor=#330000;" vertex="1" parent="1">
          <mxGeometry x="2104.5" y="300" width="120" height="60" as="geometry" />
        </mxCell>
        <mxCell id="i1759LFhbYFXr8-DVYZL-27" value="" style="shape=image;verticalLabelPosition=bottom;labelBackgroundColor=#ffffff;verticalAlign=top;aspect=fixed;imageAspect=0;image=data:image/png,iVBORw0KGgoAAAANSUhEUgAAA4sAAAGiCAYAAABOL1O0AAAgAElEQVR4Aey9+VdUS54v2n9PVGZCPkhQFyoiLiaRGWVYyowMAoqCiorHgSOgojiAgKDJlHpAQSH1oIfjOZI1ne5bPdxaXav7dr/u6r7VXX3fq3vfvVXdXauHz1uxk8iM3LkzMxLSI8L3h71i74hvfCPiG5+IHZ8dw/6DH/zgB9iKV8zh/Si7m4G9CWxLln8r1jmVeWu2dap3qnfCAGGAMEAYIAwQBggDa8PAH2xFw7HobThwMx8ljTaYGJHFrYgBKvPaOgyyG9mNMEAYIAwQBggDhAHCwNbBwJYji4yZYKs+gPLbaUi0EVGkxr51GjvVNdU1YYAwQBggDBAGCAOEAcJAOBjYcmQxHOOQLDUmwgBhgDBAGCAMEAYIA4QBwgBhYKtigMjiFt2zuVUBT+Wmzp4wQBggDBAGCAOEAcIAYYAwoIYBIotEFumAH8IAYYAwQBggDBAGCAOEAcIAYYAw4IcBIosECj9Q0JcWtS8tZCeyE2GAMEAYIAwQBggDhAHCwGbGAJFFIotEFgkDhAHCAGGAMEAYIAwQBggDhAHCgB8GiCwSKPxAsZm/jlDZ6OsfYYAwQBggDBAGCAOEAcIAYUANA0QWiSwSWSQMEAYIA4QBwgBhgDBAGCAMEAYIA34YILJIoPADBX1pUfvSQnYiOxEGCAOEAcIAYYAwQBggDGxmDBBZJLJIZJEwQBggDBAGCAOEAcIAYYAwQBggDPhhgMgigcIPFJv56wiVjb7+EQYIA4QBwgBhgDBAGCAMEAbUMEBkkcgikUXCAGGAMEAYIAwQBggDhAHCAGGAMOCHASKLBAo/UNCXFrUvLWQnshNhgDCwVTHAok0oyjIhljF6h9A4gjBAGCAMbGIMEFncxJW70QYxjFlgMZuoQ9FhjuxiTDgYMyHasnUGolutvButf6L8GLdDvV04TrOrorHy3IZ/eBCFXUQW6Z2me6fpMUPPam2L7ER22qgYILKo2MmlJlvwWYYJcd/zi/FDpsuSo/DT9micsYU/IGd7z+Ke82t0FKrFZWwPqgaW4Xg5g8ZUtTjBGk1iyVk01eZF7Ku2ubAPdqcLji+6kaFYx6zkDqacT3B019rLE2m7BLPZRghjLAbHrxbj797U4z9cjcAPj+GfPt/hN9hiLBY37HXAN+V4kLF2+xqVmZUX4t9dZbizx1+vpSQfv+X5ep2DSlUcBNFnlL6R34csr1F6kfRje9Lwi9W65PXpd43uQ/yqLUsvVQFf5qJK0baq+cwpz8DDph3YEUTvzgP7MP+4Ar/+qg6/fVWJn/WlomybPwZU0wxHbi24Cke/LHuos9K3Dr7OR3MQu8hxQ90zxlBwPAZ//SoWzpMWpMd8P/YLlS8Kp0E2YYAwQBj4cBggsqhIFisPW/FdnQV7IvTSVQX1h0z3+yWLu1F2ewkTz6ZRm7L+AUZh97dwPDyNhAjVR1rHAhyzb/HIOYuGvWr5iwxZjKxdVHH1seSsZQX4nasayycT0VyyW7tq90UZkMUYfD5Si9+/PYL+NLX6UC1TMLJ45EoV8PYo/j9XBR7sU0s3mD7lPLEPV17VPKxVjlljUL5al80l6fjRciN+fSfVU7/NB2JgWW2nH4osnrrTADzJQHqA/oDtTsZ3y434jT0bvdWJONuchT983YDfPU5BmkmtntdqHx5vLbhaa3rxyTs8tu+6XQVEkCxa0qPx3etYvD1mRlQAW6813xTvww30yLZkW8IAYWA9GCCySGTxe5lZXA9IjeKulSzG7TXjYILv4JCxRNSNuDB6+RouvlxBd912P/JilIdIkEUjvRvBL/WAGfuife0UiXxlnSkD3kVupmMteQpE7vis5/0njfjN9Ry8/aYRf9gcrYaDCMwsrqUcGzEOYwmYe9OIX3bGG9ruY5HF9LbDwLtDOBfrxXR8VSH+2VWO+4ofh9Zq77Xiaq3pyfFyzpZHjCzyWcVjPTb8w2Q0cr8Hgi2Xg+5poEsYIAwQBj4eBj4ZsphdEI3vjkehao8F9mPRcLVasVBlQWWc9+XPgcR2RuFtezS69plxpy4aKyeteFMfhQuJJpilL6H8xZew24L7tdH46qQVK83RmCq2IEsaIDObGc/arfjD0/+X3/VduxUDyd60ub4duy24VxuNb05a4ToeDftBM1J1e640uZ0W9NdE422rFSst0XhaasFBaTnPh0o3NdWCaW67k9F4UW5BXmoUfvKBl6GyrM8x6nThyasfapdjpheZUj2Ixs/37SWVd6Pb/gr2hRVMv3iDBw/6UZVp8ww62a423JZ0CZ3cdThX0FnirQ+hV7hxey243huLv3wdi8FMXzkW24BrCyu4UpGM2gcuTPRUemZCRHzGrNhT0Y3e8SXY55dw92Y70itu+yxDZZZSXHjuwvCFPJikMjJTPtqfujB8LsdblgjaheeR7yOKzz6J84NzeDj3DnbHc/RcbkaKbokxy7yKEecLHD9ci45hJ+zzbzE8OojG3ASfPDd02/D3szEYb7asmzTyvMXEWhAfa0FxJx+8FuLU6jP3s1m8+1hZXjZ+Iy9pfJOLWsmWoj4E6eg4ko2fvazDvyzX4K9HstCy26vLbRczco/m4Gfztfjnr2vxVw/SUX60AP9msAyV2ZLxk5UGvD9qw+3JRvzrvT2I1qXNWGh9zLIbX37ViF9/vsPHpsyUgNnXjfj1Ve/HCNXychvm1ebiu2c1+O37RvzHu1r8arIA13MsHkwJHOzJT8PriQr8P8t1+O1iBf7oegpK4nWYz87GP7mqMF6VhAVHNX737ih+/cUhPDho1fWTaumKelEli6HqjetLzEvDgr0S/+9yPX73ZSX+rD8dNdKHnqDLX10NWCr3lvlody0wl4lCqT5ZXDxaahJRst0rp5Iul1HFH5dVwZXQ1158AD+dq8W/LNfib8eycSrJF8+qcjxdfgUji8yyEwtLjfjd/T2wyXax7sG7d434+8tenGrlYGaMPbPhz86bfTAn0iL34w3kyPZke8IAYeBDYuATI4vR+KLSgrZUM2ozo+A4bsVP6i1IlV90Glm0Yqk+GtczzahKMeP60Wh8dzIKJ6SBsznegplTVrytsuB4ihlHMy14etyK95UWz4Z9ZjHhYLIZlclmXK2x4rumKLSsPnO/LIngmeLNfvqeHLfi6yNmbJfyx9N9etKKr2qi0JpiQnWGBY+brfhRncWzHOpDpBu10wJnuxVvKy1o3mdGfZYFD49G44cfmiza9uFAYQlyC0tQ2b2IgGQx6TTuLLzHQHcbiotKkFvSgOa7r+GYvY3cVQLPrMnILClHYUk5WgbewzF5G+Wrz4UlZUjZ4Tvo4w3HSxJt+JN70TiXbfIjguai27Cv7j3UlqPOdGO/VGdcj2X/ZQwsrmC4/xLKDleguPkmrgzNYkLas8gJb8G1r+BwdCFNim/KvIphpxOtB7wDPxZBu/D8mZJOoe/lCobvXELFkXIU1XfhxowLj283+uDPTRaXMDRqR1tDDQqPtKDtwRs45u2okPZemmJNaD4ZjR/PrZ80sthk/EQmgLp9bfKeRRZnw9HVJY29d6qBYGRxqQL/dSQHN2v2oON4Dn7+thG/n0zz2XManZ2Fv19pwK9HD+Dzqj240JaHb6fK8a8GZDHqSD5+t+pfdqUa+DIH1VI9cjur6OPE7mR/HbCYjTIpviknC792VcOR68WpannZvnT85UoDfnk3DefLdqG5PBmPxmqAtwVotnr1mfel4+ff8PJmobsqER3Hs/GnS434PyP7kCzlhWlksRb/+EUpZo4nob06BTOTtcC7UnQnevWppsttwy8lsrhUgZ8/zEVfkHpj+9Lw83cN+MeHmfi8cg/ONGfhv7xuxL+Mp3rql1ltqC3fg1Ple2C3NwAvCnBt9flUeSJKJGLZ0OsmiwWSDUSeZVclXS6vkTYF/HFZFVy59VXiv4647XK2JRt/vNSIf3u6HznSLJ6qnChTULLIGCq6qoFvinBeejfGVx3Ev7oqMJruxQHXx8wWvHhtw/Ixbz8m0iGXBqqEAcIAYWDzYuDTIovtUWiVBkZxaf4zY+6ZRSsm9ntfdMxqwXSbFY5M70suIy8a37VGoUya+YtPj9Zm2k5KJFCAP9TewSw+83nCV9+2tCj8uD0KJ6Q8u9O1oEJKNyrJgvft0bhocNhCpNLN4fnTlTc1JxrffWCyKOzH3eT2uYBk0VR8F1POGdTJA1VrAhJTkhEX5a1LoS/UMlQPSXwViz+6E43TmSzgHpv0c4twPL2m7Xcyl9zBhPMZGnVL01LPvoTj2R3kSTPPe1pn4JDIIs+bpbgfducCjkv4Sz37Ao6n3UiXBn2iHJGyy962Z375i60ewZRzElXSzImbLK6g+6h31oBta0bvogu9DQl+MwamGBOOtVrxw+cSaTSoD7k8+ntmikZ+3g5U5e3A+RuVwLti9K8+c7/De3xnx0R87aCOYGRxpRS90geC5BOlgKsU16RZtMOX+R7EQhyX2mBuRzlgQBa1gfOrHJQzhqjyQm3APKTbX6uqT+zNnMjyYleL+yoHFQFwEKy8pvJC/JtuySSLsSInzYZECZOFFyr8ypvQWIx/cx3GdYk8ucliA76Tltqy7Sn42Uoj/vi41YMD1XRFnSmRxZXD6JXysq/1sF+9bctLxfSVZJRIWEs4Voz/dJWiW8KzSDfUnkVVsqiarkbaFPDH86eCKyN9O+qL/GbAVeWEXYKRRS7D0jLxt64G/LjRveSaf/A6P1gHzGQgS0esWUwUXn1pw1K99z0q0iF38w4SqW6pbgkDhIFPiywet/guI9ppwZt2K7qlGRFBFn38mAnnqqPxWJrZKS+14rt6C/ZKL0Sm6YtG907vAE80klCkrYLrq7MgJcqEWHHttODL9mhck/SJdJPkdBmD2cx8ln9FOt0KfkBPvQVyuqZky/d2GiovTzCyyBJP4dbCCob6L6OqvATpyQmICjCo5rpCkUW+t+ZvJqLRke4/kyhsy13G9qJxzIXJ3iptxpHFN6PX6UKPbt9iwbVv4Hh4BjulejOV3MG0jiyyqDJcnHNh8MyB1ZmWDDSPuzByscBnSaKch0jYJf/zd3CMnvXMimtl238FQ85XaJWW3brJ4muclEgMYxmovzeDrmNpHpIg50/TFWNGw0kr/tQZi+Fs//ahlw/0HGrwKscLRp7cMyy5qJHqg5Xk419c5T4H05zsrweeZnhmo7h+U3kB/kNHFvlppA9mGvH7+0na0lONOLka8UcSmeJxlfVFJeLtciP+/pKblDMWD/tcI/5Ht+9yX9Xysr3p+PP3fKYtC9drd6Ei1YpYg/Zx4nYd8MV+n5lxls1nNGswneOtNzdZrMETeZaTxWPgcTl+eDLOgwPVdEU5lMjiku/SYqN68+gzmWATS5bL8/HPAQ4eihRZVE1XFX+quDLUt1pvch2pyolyhGpvfD/lPUcj/t2eoh3exmKT8P6bRvy8LdaDAaGLyCINGAUWyCUsEAa2FgY+MbIYBXkZEUuwYKndih4/smhM+GRwG5E/I30ijpG8COMuDw+0t1HOXyg9sk6hN9gprOtJ9/s8DZWXJSgpYhYkFJ5F58AcHi+49zhOzjzBuZoMwxnBUGQxtykGP3fa8N/sVtw8Yka8wcCa54nFHUP3ogs3m/bAbLHAbMlAy7gLE6vkUdSHUXpGB9wwFoXC7mU4xj/Tlv2x5HO471xCW07gr/GRsIth/jIuYcj5JU7JxFDbs+j0IZCijIFcFmNGfUs03s/a8DcOK9ql2d9AcQL5hxq8yvFCkkXdLxg46dCTCSMSYXTADYvfhz9cacSfnYpBlMWEKEs87PNu8miVCKmyPmZC+906YP4ADjIGlroff+OqxUxBYBwEKy9f2ppWkoE34xX43+/dvxz5/dIROI/F+/w+xjB/B7Lwj65aPM3Tk8VqTIcg/qrpinpTIosK9WbevRsTDyvxv791l9XzO44PTBZV09VIm0I5VHFlqM+g3lTlRH2otLek5hL828ph3NrNsK32IH6/chjXpQ+cQhcni06aWfQj0cI+5G6twTPVN9X3VsLAJ0YWjWYWfYmhOODGaHZQrlgxwxfRmcUGCyp2mVDgc5mRJC2lMkpXzpf+PhS51GY0FdLd6DOLcrmZORY7UotR3fMC04tPcNSAnBiRI1kHv4/eZcaly1aNNP71uBW3y0zYriONluK7mDA4NMcx0+NzEI/qzCJPN6r0LuzOOTSlMCSemHEvvdWlK+c1GFmU5YLZJbyZRTWyyPctNp204kfP3STxQa0Zu6Tl03LeVO9VBq9CVzDyZDhoNiCLqjOB0dqyUx0x4Xsrl3xnL1X18TLEVvDTNt17v7L50lc+oxYEB8HKK2zCXWaxICVjF27er8J/rJThTpKXBIY3sxiaLKqmK+QiQRYZi0bXaD3+Y+Eg7lTuRI1YsnyqSFsabPRLEyOSLPLEXe2Am1XiLvz5ATetR/fg8OpS5nDSVcWfKq40fTqsiRlheY+rqpwoo0p7Y7YkrLxrxC9Ob8PFBw34t0cp2C19IBG6mMmMmVc2uFrpgBthE3KJMBAGCANbAQOfFllU3rPoSyCNKlLsWTxi9g604tLdeyDlfZEiriB58jJOEcZdbc9is8XnMAJmNeFQogl7pAG2SNdoz+JnBntxIpXuRt+zaE3KR25emu+pfCkXMOD8CqfzvXUkbK6RI92yUBGmd31I44QVrbu9+jI7X8ExN4jytAwkp7qv1KYRTDqf45h02q3qnkWeNouuwKV5F/pPHMTRIRfGLh0yXGIs8hmMLKraZe+pWTie9SNP+jARW8X3LE6gUtoL616GGposZvIDneYjRxJFWVUGr0I2GHlSHayr7jGs6a4Blg/h2v54HMpwX6Uni/F7VwWGU714UdWn4cC6B19/3Yi/OLsTd6Ya8T97d/odriTKyt1g5Y1PTkDzwTifZdAsPRO/dNVh7pA3fwXn+Z7FArRI+xh3NPC9b4d99ne6l6GGJouq6YpyRIYs7sDsl4341RXvvlquf1sdL4fx/y81kqxbbizyxF3t1xnfHMJ56dcZcZW+v85gTD1dVfyp4krTp9sDGYk9ixltR4BvCnHcgPwJ+/ATfk/dPQo8OYw/edcAV73/f0+5LJe7Ybfh7/osPv200EMuDZoJA4QBwsDmxMCnRRaPu09DPcVPQ92/ehoq3ycovQhVZxbFaahvqvjpoCYcXT1dlZ+GKu9LE8BP4YfBnIrG9XT36aiVySakSANzfhrq7CkrFo5YcIyfmJpqQd9RK37abEGeREh5ul/Ip6GmW7TTUH9cbzE8ACVS6fLTUF+1W/Fm9TTUuiwLHjdEr3PP4jfobnOfTspPKBVXTor3H2txqUXaSaie01DnRlC3ejpqbs4+xKzWXVRhH8acb9B7rgmFB0uQV9yI5n4npucf4rBEdkR9JB5/iumXT9BWXbGa7kEkGhxMJOS5K0jjtdXDZxjbh2OPXJi8WePziwQWfww9/MCX+h2eJUeWzCsYXOR7Kj9D2eFy7TTUzx8t+Pw6Q6TFf7NRdP1rTI89Rf/iG5zJ9z/AJdJ2MSWddJ+Gupq/ovqr6NVOQ23ANrl9KC5DrT5tRSRmEoVNhBuKLCZm7PL8UFw7DXW5GPfED98LbJ6yqA7WfU8vTcT5tjz8aLYa/y7tWWTMhpHZRvx+MMlnEMy27cMfrTTiZy3e/y2q6BNl5YPrjoE6/OdMGf5ipRbzRf5LUFXLG1OSj//lqsUfX92H9tLdaCnfh0ej1fjPd0W4JH1kMienuU9DfchPf01Ex+qpmv9nJNl3f7Z2GmposqiarrfM4f9nUb98mC/l/myoDnh7BDMn9uJk2R5cOZ2Pnziq8NsAZDH7TBn+85syzDS4T0c9Vb4T2RIxZLv34Q+XG/EbezZ6qxNxpukAvnM24HePUz0nF4eTrgr+wsGVW18F/mw0FzdrEnG2efU01CcZyJZmo1XlRH1YCnLwG1ctfnp+L1pEO8qJ9Vm6zGWjDubif/ITi98dRIdkN6FHuPtbY/CrVzHo2uP9QCHCyN2cg0SqV6pXwgBh4NMii80WVCZZMKHwn8VQy1Dl/ywuB/jPotxAWJQJp8ujwWX53kR+iugF6dRF8Z/FgaPR+PaU+z+LM0csKLP5DhA1uV0W3BH/WeQE+LAFhwK8oCOZbnqaBY7V/ywuVFpwKD1qnWTR+/9E+Z+HIxfyPCSLLxeVw+R7x/RVz29P+EEQafV9uD6xBPuCC1Mv3mDo4SCOFew2PBiGxWSh9sYMRudX3P9vdM6iQXeCqVx/RvfaYTaLvieDcjnGElE34sLE9WrPTBAngEmVPejl+Zt/g4H+ThyovmNIFrkO65H72vJWx2wfsqWZZZGPSNuF7y3bln1K+8/iKP/P4pNg/1kMPbMo8hlpNxRZ1JYT6n6t4dmvtpCN0lXiqzJY53nnpzvm1+Xij/l/Ft/V4m8fZqKusdCXLK6eAiqfDOqOG4P7Txrx+4EkiH2LKvpkm8VpvyFoBN7mo9EAB6rl5ekeacnHn/ByvG/Ev7+rxT8+OYSR4hif9sFxkJSfjteTFfjNcj1+66zAfwn4n8XQZFE1XVHmSMwsarZP2InhgSP49dt6/H65Bn8xmIHaylz8rwBkkcVuR/9gOX7zdQM0vOjkeL+7KycVL+0V+B/8/5OvK/GzvlSU6T5EMcV0VfAnTpdVwZWmz5mDUyWZ+G7uaPD/LCrIeesjCtWnD+GvXtfh38Xva55kaCc/CxnN3qbdcC434rd3Ev2IpI9cjBljDht+aY9GTYLvu02Wo3saXBIGCAOEgc2DgU+LLLZEIV+aJSEgbh4gUl1SXRIGCANbFQMaWXydg8oQ7zdVuXDtaM7Oxq9dR7FQGpoAWpIsmJmy4VcvYrF40oy4EHkONy8kT/0AYYAwQBjYWBj4tMjicd/TUAlMGwtMVB9UH4QBwgBhIHwMGM1UGtlRVc4obiA/Phvd0FsDLOWhzmD22ygePyG58YQVX3ZF+fyux0iW/MLHA9mMbEYYIAxsJAwQWfwBAXIjAZLyQngkDBAGthoGVEmgqlw49mPRu7H0thH/1J0Q9CCucHSSLLVhwgBhgDCweTDwyZBFAt3mAR3VJdUlYYAwQBggDBAGCAOEAcIAYWDjY4DIIs0seg6joQa78Rss1RHVEWGAMEAYIAwQBggDhAHCwPeFASKLRBaJLBIGCAOEAcIAYYAwQBggDBAGCAOEAT8MEFkkUPiB4vv6UkHp0FcxwgBhgDBAGCAMEAYIA4QBwsDGxcCGJYsxyTFEYojIEgYIA4QBwgBhgDBAGCAMEAYIA4SBj4QBIosfyfD0BWXjfkGhuqG6IQwQBggDhAHCAGGAMEAYIAz8AEQWiSzSlxrCAGGAMEAYIAwQBggDhAHCAGGAMOCHASKLBAo/UNBXFPqSRhggDBAGCAOEAcIAYYAwQBggDBBZJLJIZJEwQBggDBAGCAOEAcIAYYAwQBggDPhhgMgigcIPFPQVib4iEQYIA4QBwgBhgDBAGCAMEAYIA0QWiSwSWSQMEAYIA4QBwgBhgDBAGCAMfO8YYDYzStNNiGLsg6ZtsphhMn3YNDYrsSaySB1DwMbJmAUWsylg+GZtFKHKRXbZWF/ZqD7WVx9kv/XZL1R/QeFkX8JA5DBA/VXkbLlRcMn2RuPHX8bizwejcWxPZMkcY2bElKcgYygfudN5SMqIrP6NYsMPnQ8ii1uELLK9Z3HP+TU6CtUaCmN7UDWwDMfLGTSmqsUJBtbEkrNoqs1DbIS+HJkL+2B3uuD4ohsZijpZyR1MOZ/g6K61lyfSdglmMwpzvxSD1dta6iOYPlWbE54334BF1L0towln7j/D8PN3sD+dQ+/V40iL9340S26fw5NXP/RcjvlbyFXsg0QaG8VlLA3N4y6tLFPzbzAwcAs12dth+sDlST3zAo4Z9b77Y9hrK+EgHPvaMo+jY2AOY/PfwP7FPG5ca0Pmdm/7kHVFup9cS38v5+dD3W90PGdccGptfODMAc/Hf5b1OUads2jYu/bxUKTsyRjD9n0WDAzF4r/PxuBMkjGe1pIeS9uLrOl8ZLQlIC7Thmjrxy/vWsrxseMQWSSy6Ok8ZDAythtlt5cw8WwatSnrb1yF3d/C8fA0EiI0CEnrWIBj9i0ehdHZRYIkRNouss3p3piABKu3tdRHMH2qdUB4Nq4rVfttVDm2sxHdcy6MDnSh8kg5DtVdRvfTFdjvtyBhdfmSNSkPuYUl2lX2+Ut82mQxFruz3GXJL2vGif5FTC3MoCndYvheiFS9bfTB9VbDgWq9sp1N6JlbwcjdS6g4XI5DNRfQNf0eE8NnkGT2HydEup9cS3+vWrb1yG10PHOy6FhcwfT0VaSujsE2ElkUtmfRJtwes+GXQ1FIidBY0VKegbzpdGy3+ONTpEtu6Pc5kUUiix90UCAa4VpfGnF7zTiY4NvIGUtE3YgLo5ev4eLLFXTXbVcqQyRIgijPRnNTD5ixL9rXThstj2vNT6TrLRL61opnIxsQnkO/qIzs9iH8Epqn4HjxAEUx3rZkPXwfducM6hK9fiLtxBMznxRZNOpPRVm4y8wHcGLcBXt3OSzSYC3S/Ys2uA5jVYicx+/jfrPjYK02TGiahmNhEEXSu8ZSeAOPnHNoMvioHMl+cq15/j7ibXQ8a2Rx7AluLyyiNdM9a7cRySKvq+j8aPziy1g8yPTvb9dSl+Yj6cibzsAOmlFUGicHsjGRRSKLPgBydyDuZUl8qZVjpheZ0qBBAInvG0gq70a3/RXsCyuYfvEGDx70oyrT5tHHdrXhttOry2fplnMFnSWBO4O4vRZc743FX76OxaCu02CxDbi2sIIrFcmofeDCRE+lz8CG55ExK/ZUdKN3fAn2+SXcvdmO9IrbPstQmaUUF567MHwhz2fZFTPlo/2pC8Pncrxl0ZZseMuyHru482dCfPZJnB+cw8O5d7A7nqPncjNSbNsu224AACAASURBVL42YZlXMeJ8geOHa9Ex7IR9/i2GRwfRmJvgk+eGbhv+fjYG482WiJBGxkyIz2xBx8BzjPDleGK50Q7/5SFxWa3asiStHDPzuHmt3W9ZkvjyWlR0Fb2TX2F87jXu3b6MvJ2+Mxgq9abZT7k+QuNAYDpUOcLBM7dfXPYpnB98gUcvvoV95hmuXajDHoMXFuHZH88q/Yuot0i6By4uwTF+EXulPo/Z0pFXVo6Ubb5tk6erQhZD4YrrUS2vqpzeJsH6U71swbV3cIx1YJdkg0j3L1p/8PQaCvMvonv8rbs/6L+C/F36/kC9HanYWbUf2qw40Nd1uM+7jz+F4+UADkZ52wKz2LB9127ErRLIsPpJxfeb6rhEtX4Zi0ZieTd6xr/U3qkDdzqRVcu3qUyhZqe3bKr22eh41sjiUCeO9b/HSGeBNnYIRBZDtSPGDqHj+Qo+az2Jni+WMTpwGhk559E3s4yxoSs4II1hwnkPClszkwWTL2z4aZvZM/4SYWtxTQdTkTd9ADu3h1+va0lvs8Yhskhk0adBMts+HFhdYlXZvRiYLCadxp2F9xjobkNxUQlySxrQfPc1HLO3kSteGtZkZJaUo7CkHC0D7+GYvI3y1efCkjKk7PBvvN5BjQ1/ci8a57JNfkTQXHQb9tW9h9py1Jlu7JcGNryxWvZfxsDiCob7L6HscAWKm2/iytAsJqQ9i3zgVXDtKzgcXUiT4psyr2LY6UTrAS8xiqRdeP5MSafQ93IFw3cuoeJIOYrqu3BjxoXHtxuxXcqLmywuYWjUjraGGhQeaUHbgzdwzNtRIe29NMWa0HwyGj+eiwxpNCW14sb8Ch7ev6otxztY24nPp1cwMXIGSdJpYizpJPrmVzDUfxFlpXzZ3iX0fOHC+MAJ7JTK4X6Jz+Hm7W5Ul1WgqP4a+mZdmHxw0kdOpd64/VTrQ1mfQjlYGHg27W3DrZd8udYVVBzh5XXX71hPJeIku/CyEJ798cwU+hduu0hfWZfewDHe6UMWg6URiiyqtg/V8qrKiTyr9KdClruM7ULtkAuOgRYfnEa6f3EPrmfQe6sbVVp/4G4fUyOnkSj1L6rtSNXOqv3QZsOBXMfruTdnXsGQ8z3uXa7CboMPXxqGwugnVd9vqv29av2aUy/g/qJ7OW356vjg2uPFdZLFjYtnjSyOnkVq1TAmv+hBppnBiCyqtCNBFgevn0JRZRduvVzGQO95FFd0o39hBb31Oz39smr7lTHJCWaf3Ya/6vL9cCTLhHPP8lKQO52FXdJ4KZz4JOt+zxJZ/AADjo0IrnAPuOFl4Ac5BJpBMxXfxZRuaRazJiAxJRlx0ldHYYtQy1E8g5pXsfijO9E4nckCHqOcfm4RjqfXkM4YzCV3MOF8hkbdJu3Usy/heHYHedJymT2tM3BIZJHnzVLcD7tzAcf3e4lr6tkXcDztRro0aBHliJRd9rY988tfbPUIppyTqJK+gLlfpivoPupdasu2NaN30YXehgRPpyzyZ4ox4VirFT98LpFGg/oQ8oHcvadmtfzlSwMCy8GbeOycw7F9XlvFZLWgtaMRKVIasTWjmHbaURHvldNe4ovjqJRmZ7Y3jsPhtKM8TpJTrDc538FwqooD1XKIdEPhOeXMvLt+JfvZ+It60Y4KyQZcH+HZH8/h9i+iXtbrRpokqOJKtbyqcuH0p9xm5qgYxO5IQ36bHWPO9+itT/TrW7hcpPoXd3/g2xZiq3j/53sAmWo7UrWzaj+0WXCw3vagj89YHDLbp7TD5abnFnDzeheqCvYEfFeH6ifDfb/x/ATt7/nBSQrvmSQ+FpgfxCGpf9Y+/KxnZlHXt28kPGtk8dF5JMbU4OrLJZzOsxiSRZV25CaLLvTUbQffQ1o37MK12ngwloSGURcedGR7+g7V9ivjjJPFnjEb/q5n7WSR/yLDbDXDHGdF/Nls5D3cBxvtWfTUi2xv1Xsii0QWAwIoWKfMEk/h1gKfUbqMqvISpCcnICoAueJgDPXSONZjw99MRKMj3X8mUQYzY3vROObCZG+VNuPI4pvR63R3XLJcwbVv4Hh4xmfWylRyB9O6wQiLKsPFORcGV08JYyxDOx1w5KJ7qYasU9xHwi75n7+DY/Ssz1Ivtp9/tX2FVmnZrftl+hons7yEiuex/t4Muo6lBaw7FmNGw0kr/tQZi+Fsb1xRhlCulj+d/Xgnbg7wnyK+dCQ6JhZWfpXcgl138JD7i2+Pz5JmVtiHcecsGpO8+VOtNzn/weojXH2hyiHSDYXnfL6Ub/gsEoVNuHvgCh44F3FCrl/CM4zwHG7/IuplvW6kSYLITyhcqZZXVU61PxX5y+v6Wjst0eH8GgPX6rDL4LASIcvd9fYv7v7Ad0WIu/97jdYD3v5AtR2JvIWys2o/tFlwIOwSSZe/B2JTylF77h5uTC1j2vkOd84dNDzpPFQ/uZb3W7D+Xrl+PzNYbq6ND9axDFW3wmkj4Vkji4/PI5HFoPjGO4xdLYE5yGmowdqRIIvXauI0snh0yIWuqljP/dA5L1kMt/1qfUsEyOK2CwXIdxzUrryxA9idFpklrZFsR5+aLiKLRBYDEo5gnTJfwplQeBadA3N4vODeyzc58wTnajIMvzKGemnkNsXg504b/pvdiptHzIgPQDxZ3DF0L7pws2kPzBYLzJYMtIy7MLFKHkUDNErP6GATxqJQ2L0Mx/hnSGYMLPkc7juX0JbjXYIqdAo3EnYxzF/GJQw5v8QpmRhqezqcPgRS5COQywdy9S3ReD9rw984rGg3OJgjUFzhb5Q/ESa7pp2Hcbx/Do9frnh+JaDtdTUki75H5bPCm36k0ihdo3qT8xCsPlT1qZZDpGukV4Rxl4fLe3TFvUNfv4Rnw/4n3P5Ftv167iNNElRxpVpeVTnV/lTYipNFx3gPcnfZYNYtkxYywo1E/yLIovzbI2bQ/6m2I1U7G6Zr0A9tFhyIOvtQLjPFI7NjBlPOeTQb/GIrVD/pJovhvd+C9ffrqV/3e2Z9ZHGj4tlLFhmspfcw/uwWcnO68FD3nlZpR+GQRdX2K+OTf4zofWTDL7vXPrNoSbTBlmGDLWcHErtzkduXCGuAMaWcNt0H3tpBZJHIouFgjTeaYJ2y3KiYORY7UotR3fMC04tPcNSAnIR6aXB90bvMuHTZqpHGvx634naZCdt1DdxSfBcTBofmOGZ8Z63CmVGKKr0L++ppbtpSFH6ojy5dubyRsEt4M4tqL1O+r6jppBU/eu4miQ9qzdi1xqUXRvmTbcDvGduOsv53mJ4exNHSQ8jMykMGv5qGMaF7Cam+xMOpN5GfYPWhoi+ccog0Q+FZ+6L66BryhU08bjZ2SidtEp4Dv5yErVX6FyG7Xtd9sIn7w5HQxWwZyK+oRKpu+TAPD7ZncS244jpVyxtKTqU/FWVMPzGGG111PvulRZhwI9m/iP5A3msuZmLkVRQq7SgcO4t0fQb1BmRxM+FA1N96Xf5hdVvyASTvivUZM7CYenzudKH76DYff55eqH7yY5HFfafn4Zi9gSzpPR9f9xiO9SxDDTCzuBHwLJNF92qqZZw/2YUH0ntatR2FQxZV2q8el4yZMeCw4ReXIjMbyPL5nsVM7DI4I0OfNj0Hfh//gckUeAblYxouJjnGr+P5mPn51NOO9J5Fa1I+cvPSYJO+QrOUCxhwfoXT+d5lRMJuRssaRZje9RnkTFjRuturL7PzFRxzgyhPy0ByqvtKbRrBpPM5jiV75VT3qvG0WXQFLs270H/iIPiSirFLh4J+XQ9GTlTt4t4T2I88ea+ftmdnwmdfn+rLNLPGiu/m108SRV1oeyqf30WBtKdD7FkUR6Qzlof2Gd89Cjx+TOUQpqSXEPdTHaSFU28ir8HqQ0VfOOUQaYbCs7ZXY7oLadJghMWn4kB+NhIkmxKejV9Oqu1I1EekXO2XCS8foFgi9PxLfKBfZ+xsnobj5R3kSf2gyEs4uFItr6qcyAN3g/Wnslyw+0j3L1p/oLrHK0Q7CsfOqv3QZsRBsPpVCeMnVR++vYLpwZPYJuGd7TmNO873uFxu9RuzheonVd9vcv6C9vd8z+JM6BUsUYV9GHMu40Z7CRK3b8eO/Q04M/JmfQfcbGA8+5BFZkH+tbewDzswIL2nVdtROGRR9T0o1y/bFoW3r21Yqo8MN2GFqUQWIzApRjOLETCiDPSNeu8mi9+gu819Oik/oVRcOSnxnk4+LrXI88Np7TTUuRHUrZ6OmpuzDzGrLwl3Z/sGveeaUHiwBHnFjWjud2J6/iEOG32BP/4U0y+foK26YjXdg0iUBmRGdhODnGurh88wtg/HHrkwebMG0fLLKv4YeviBL/U7POWwZF7B4CLfU/kZyg6Xa6ehfv5owe8ABZ4ufwkWXf8a02NP0b/4Bmfy/Zc/RNouJn76Jj8NdTV/RfVX0audhtrg+yJWXIZafdqK9cwk6u3P83fzhXQaas0F7TTUyYdnPaehMhaP0r5lOGan0dZYi4LiShxpuYlrwy/8lpeqDtJU6021PlT0hVMOYafEEHh2nwL3De73dOBwSRkKy1txevgtpqe7kL4620t4NiaK3Mbh9i8swYI37Vb8tM6CPVLfIOpL1WU7j6F7zoXRgS7tFOBDtZ+h+8kK7PdbkGCg15zTjVHnEq6dqkWe6Ccz3Qd+hIMr1fKqyhmVV9+fChkWlYvmoQWMjN9BsXS4lgjnbqT7F60/eLaAW/3dqJJOg556eNbgNNRQ7Sjy/dBmw0Gk2oftUB9GnMu4230WR0rLUVh1Bp2PljHtuIFsg/d5qH5SlSyq9veq7xnGEpB/8Yl2UA/fIjA1Y0dt2yCm1zOzuIHxLJNF3p4thX14vLiCaR+yqNaOwiGLKu9BuZ9hjCHvdAx+5YxBR4C+SJZXuTcdyXD/Z9EAnyrxScb9niayuKXIovc/gWIPFXdHLuR5SFagNeZczjF9FamrAybGYpFW34frE0uwL7gw9eINhh4O4ljBbp///4mGxmKyUHtjBqPz7r1tDqmTEjKhXO0wm0Xfk0F5HPFT84nr1Z7fbHACmFTZg16ev/k3GOjvxIFq/h8l39P2RJrWI/e15a2O2T5kGyzdjLRd+Lr8bdp/+OYwyv+z+CTYfxbVlqGKskTC5fmLyzqh/T9xhOeP/z+x+wwOJPguDWE7DuLY9ScYfvYOE3Ov0H/zLDJLuzGmq1/1l7havanXh5o+1XII24bCs2a/nDZ0Di3g8Uv+n8UF9PV0Im+390ME4TkwWQy3f0nOjsZ37VY8Tl/f12it3jJbcJb/X5Tj/ukceq+eQFq8sV5OCPe3DOLuF19janV5vOPhaQ+xVMWVanlV5QROVVxmLcYZx3tMPXuMCoMtBCo6wpUR/UFxMf/v6ltMzC3h/p0uFCR62wfXqdKONLmI90MmxG0iHESufVixu+QCLg3PY3TuW0w8W8StGxdRkBjlGUPIWAjZTyp+DFXt7wWuQi0zFtiK2paM5LRUbLMysNJ7616GulHxrCeLzHIIHTMu6MdhKv1VOGRRtf2664MhtSwaf+y04UdtZs9YTsbTWu4tlfuRN52O7SEO7VqL7q0Uh8jiFiGLWwnUVNbAg3CyDdlms2GAf41urrTiuxNROEwDAsNB+2arcyqPej9G7UPNVpbyQe1XTvIvnwhnarZbr53YNgvuD8Ti//4yFj++bPGsXlqvXh7flJOCnOlcpByJQVSsGSZpa0gk9G8VHUQWiSzS4IIwQBggDHyyGGAmMwZOWvG60Gy4qmGrvMypnN/PwPZTszO1D2NcWHZme7bc5BQ3oG14GdPjF7VT0T+1Ov7U88v2RGHmbjSuFphgNVjuv57yMRaNbWeykDNViLzpPCRleM+2WI/erRaXyCINEj/ZQeJWa6xUXuOXPtlla9uF7bLgq/ZonImjQQC1ha3dFozqn9qHMSa21ds9vzeafvkWDx704UgqHaxohKFP3Y/PrpvjrbCm2RAtHTD3qZfr+8w/kUUii0QWCQOEAcIAYYAwQBggDBAGCAOEAcKAHwaILBIo/EDxfX6toLSMv3qSXcguhAHCAGGAMEAYIAwQBggDHxsDRBaJLBJZJAwQBggDhAHCAGGAMEAYIAwQBggDfhggskig8APFx/6CQenTVzTCAGGAMEAYIAwQBggDhAHCwMfHAJFFIotEFgkDhAHCAGGAMEAYIAwQBggDhAHCgB8GiCwSKPxAQV9xPv5XHKoDqgPCAGGAMEAYIAwQBggDhIGPjQEii0QWiSwSBggDhAHCAGGAMEAYIAwQBggDhAE/DBBZJFD4geJjf8Gg9OkrGmGAMEAYIAwQBggDhAHCAGHg42OAyCKRRSKLhAHCAGGAMEAYIAwQBggDhAHCAGHADwNEFgkUfqCgrzgf/ysO1QHVAWGAMEAYIAwQBggDhAHCwMfGAJHFLUYWL168+EmTw3DzH0o+VHgkG+ha01KJpyIjl0VVPpBcIP9w01iLHjmOfC+n/X3dq6SvIhMov4HiBvIPpIf7ryWOUby16gmWNwqjwRBhgDBAGCAMEAY2JgaILH5AsmhJqUJHZxuKd7OgBC2QHB+UqV6qDSycgV44skbprzfvRumr+sn5MYojwgOFcf9wL6EzkBsorUDywl8lnoqM0MddVflAcoH85TRU0lHRo5cJ9azPg/zM4wa6ZDnVe31e9PECpSX89fL650D6A/nr48vPa42jz+ta9Mj5oPuNORigeqF6IQwQBggDhAEjDBBZ/EBkkbEoZNSeQ+eJg9jOApPFYHJGgzJVP6PK5n5G8QPJGsnz+EZXMB3BwkLlRx+ufzbKoz49ozgq8fR61honEvEClUHkUQ7n9/pL5EHvL56FHtnlYfKzfB8sTJYLda+iRy+j8sxl9BfPixw30H2oPMvhsg7ZX5+WPmy94cHSDZQWj2N06eX1Mkbhej96pgEGYYAwQBggDBAGNicGiCx+KLIYcwCN5zvRlBsfcMDNGxULImc0IAzHTz/oC/Vs1MiN0tPLqcjo44hnlbiyjHzPdeifhR/3X8sl8hXINUpPL7uWdEUcI13CT5+2/CzfC3nhGoXJfvK9HIf7669g4WsNk9MQOoQbKG8iPJSrjy8/B7rnOnmY0aVPT9YhhxnFDeYnx1VJ30iXXod4DpRHkY6QM3KN4hqlLfyMdJDf5hw8UL1SvRIGCAOEga2BASKLH4gsxuU2o/N8I7JiAs8q8kYWTC7QQE3fOI3k9DLiORxZESeUG0wnDwt1haNfTku+D6UjUuFrSXMtcXh+jeLJfoHu5bIKGe6qXCKuiCee5fwEC5Plxb0sL9/LOvX3RnH1flyX/hIywjVKTx9HPIs4gVyhS8gbuTyuLKfXJcJk/3D9VOXXkhc5X3J84W+UtkqYkCF3awwsqJ6pngkDhAHCwObBAJHFD0AWGduGg8c7cb52P6KDLkENLscHZqpXoEapH9yFeg6kJ5i/XmcwWX1YuHHDkeey+kufPn8OV6eRjmB+RvqN/GQdwcJFmHCDlUGWCaTfSCaYX7AwOQ2jfOnjimfhyvG5n/AX97Irywa6F/FFuPwc6F7I6l1ZXoQZ+QUKCyRr5B/ML1iYnLZeTn6W70Uc4fIwo4uHB4oXyF/oJHfzDBqoLqkuCQOEAcLA1sIAkcUPQRZ3FeNUZweqUqKCL0ENIWc0AFP1kxuyHEe+5zL6Z+HH/cUl6zK6N9JhJGfkFyiuSFvVVdEtpxXoXq9HluNh+me9vP45kHwgfzkNLqO/ZP2yDvleyOj99LrkZxFHuPq43F/ICxnZNZIXcYxcETdQPBHHKNzIT+jTu3pZ+TnQvdARKlzkUcjrXR5f9TKKa+Qn50kOD+RvJKMiK+LJsvI9D9c/izjkbq1BBNU31TdhgDBAGNjcGCCyGGGyyJgJew63o/N0OfaaAi9BVZEzGoyp+skNV44T6F6Wl+9lee7Pn40ufRwjGRU/WY/qPddrJKv3l58D3ev1yHI8jD8bXfp4smygMCN/2c8o7UDhRrJyPuV4/F4vrxIux5HvA+kzSl/209/LeRD6hSuHBUpPltHrFnqM/IWfHF/cy/H0fvxZhIuwQG6wNIziGOmV/eT7cPNhlJ6RX6g86/NgpIP8NvcAguqX6pcwQBggDGx+DBBZjDRZNCej8mwn2koSYQq2BFVBzmgwpuInBnlrcfWNXp+e/pnLG/np9YjncGRFnFBuIJ3cX38JXXIc+V6EC1cfpn8WcnpXyMkuvw92BdIh/IUuo2d9mJDhrggLN20jeSO9choiXE5TDtf76+VlWf29kA3mL8uEkhN50cfRPxvJCT/h6uOIZx4uy8j3XEb/rI8n4gtXhOvjBtIj5I3ii7BAroij1y2e9W4gPeS/+QcSVMdUx4QBwgBhYPNigMhihMliVHo1znW24lBC4FlF3qBU5OTBWqh7lUYq61CR5zJiQCjk9c/C38g1klX1M9IXyM9IJ5fV+8vPge71achyRjr18noZfXwhH8hfhOv1hHoOps8ozMgvWNrhpC/rlu9lHYH85TzI8qr+4cjp86CPK56N5ISfcIWscLm/Pkw8610RR3aFTDA/WUa+18fhYaEuOQ6/F/r0rlGY7KfXQ8+bd/BAdUt1SxggDBAGtgYGiCxGkCwyZsWBuvPobC5AfLBZRUU5MVCTG6OqnxyH34t4elcvp38W8sJf/yz8A7l6ef4s+8n3eh1CVsXVx+XPet3yc6B7vR5ZzkinXl7/rI8vwgP5i3DuChm9K2SEvyyrEmYkL+IJV9YdzC9UmF6P/CzuhSt0ye5aw4QOfXz+HOgScWRXxBeuHMbvA/nLciI94ad/Fv6ya6TXyE/EkcOEfuEnXCGrd43ChZ9wRRz5OdC9kCV3awwiqJ6pngkDhAHCwObGAJHFSJJFWzaaLlxAY7bNcA+daExMUU4ejIm4qn5CnrtynED3srx8L8vrdclyoe6FHtkV96HihgoPpIf76y+hS44j34tw4erD9M9CLpAbSD6Qv6xHlpHvhYzsJ9/L4cKfu6EuEY+7Il4oPxFuJG+kR5YT98IVumQ3nDAjWSM/oT9YmJGMkbyRH4/L/cUldMn+4l4Ok++N9Br5iThrDTPKh6xLvtfLBgsT+SJ3cw8gqH6pfgkDhAHCwObHAJHFCJLFbQX834p12G8NvgRVVU4/GOMNUtVPyOrljZ71fnLDF2F6V5YR90JGPAtX9g90L2TX4so65fh6f/2zkA3kz8P1YfpnoSOQG0g+kL+sJ5CMkb+Rn1H+hf5A8sHCg8UJFKb3D/Us0heuXl74C1cOl+/lcO4fKEzIGbn6OPpnHsfIL5AuISvcYPFlGaHPyG+9YcHyoA/Tpx/qWeSN3M0/kKA6pjomDBAGCAObFwNEFiNEFhlLwKETneioTkNU0CWoanL6gZhohEb+ej/+rPcLFp+HBYqj9w+kV+gQ6YhnvbzRs95P1qFyHyi+3l//LHQH8hdlEHJGz3KY0X0g3YH8ZR2BZIz8g/nxMH24/llOl9+LOHpXLyeeA+mT/eV7kYbsCl2yq48jh4l7ISO7/F48Czm9Gyw8WJisJ5QcD9fLhHrm+kU8vSunLd/rdaqGibRkefl+PXplPXS/eQcRVLdUt4QBwgBhYHNjgMhihMiiKbEEbZ1nUZ5sDroEVVUu0CBN9hf3wlVprOHIcn1G8twv0CXi6OOJZ+Hq8yr0CX/xrOqKeLIr0tK7QiaYv2q6ejmhW7j68FDPIp5wA8nL4fyeywk/o2fhF0if8Bc69PpEfBEuPxvJCjk5LNC9rEvEE64cR/gZuVxOlpXvhbyQCeYK2VCu0C9cWV7Wr/fnz8HiCPlAMiJc1mMkq5eT82R0L8vL90a6hZ9wZXm639wDBqpfql/CAGGAMLD1MEBkMQJkkf8zMbn8NDrbDyMxxL8VVeTCGYSFI8sbeLjykewUPlTagfTK/vK9XKZA/rLMeu4/tH6eN30a+uf15D9U3FBpiXDhGuVXpCHLBPMTYXrXKL5eJpLPa0lvLXGC5VlFXyiZYOGBwgL5B8srhW29AQbVOdU5YYAwQBj49DFAZDECZJEawqffEKgOqQ4JA4QBwgBhgDBAGCAMEAYIA74YILJIZNFn+SI1EN8GQvYgexAGCAOEAcIAYYAwQBggDGxVDBBZJLJIZJEwQBggDBAGCAOEAcIAYYAwQBggDPhhgMgigcIPFFv1ywmVm74aEgYIA4QBwgBhgDBAGCAMEAa8GCCySGSRyCJhgDBAGCAMEAYIA4QBwgBhgDBAGPDDAJFFAoUfKOhrivdrCtmCbEEYIAwQBggDhAHCAGGAMLBVMUBkkcgikUXCAGGAMEAYIAwQBggDhAHCAGGAMOCHASKLBAo/UGzVLydUbvpqSBggDBAGCAOEAcIAYYAwQBjwYoDIIpFFIouEAcIAYYAwQBggDBAGCAOEAcIAYcAPA0QWCRR+oKCvKd6vKWQLsgVhgDBAGCAMEAYIA4QBwsBWxQCRRSKLRBYJA4QBwgBhgDBAGCAMEAYIA4QBwoAfBogsEij8QLFVv5xQuemrIWGAMEAY+DgYYNEmFGWZEMsYvZMiNC5hNjNK002IIpsSpiKEKeofP07/+LHtTmSRGtCm70QZs8BiNm36cn7szoTS35ovkY1U74yZYLZYqK1/Qu81XmfZVdFYeW7DPzyIwi4iNhHDL9sbjR9/GYs/H4zGsT1EwjdSX0V5offlp4QBIosReqmmnnmBJ69+6Lmm5l5hYPA2arO2w/SJvfxsGU04c/8Zhp+/g/3pHHqvHkda/MYiW4klZ9FUmxfyKzRje1A1sAzHyxk0pn4/L8uPaT9Vu0S6k/pY6YZTjl1Fp9FUX4C4IO0xJqUWrX1PMTjzNewzL3Gr5zT2b9tY2A+nzCqyoeyS0Dzl6dd4Hzf98g0GRwbRkJewofo2xqzIujCPSedXuFgaG7EBN7chy7yKEeciTmR6+5AdxyY9dnE45K71SgAAIABJREFUVzAxs4DbNy4gZ6c5ommr1KGRTOKJGS1/Y5cOefLD9p7FPedrnMzylsMo7vflxxhDwfEY/PWrWDhPWpAe45sv/l51zHQjI0ib/b7yapROxgWnZuOBMwe8Ns76HKPOWTTs9S2LUfwP7cftu32fBQNDsfjvszE4k7S5+7IPbU/STwRvq2KAyGIEyaLj2RBqC0uQW1iCvCPNaL33GtMLM2hM+XS+dLOdjeiec2F0oAuVR8pxqO4yup+uwH6/BQmmj//yEw21sPtbOB6eRkKIQQRju1F2ewkTz6ZRm/Lh8/+x7adqF2HHSLkfK13V/DMWi7I7Ljj6G2ENgBnLvlO4OfctBm52ovxIOYoae3B7zoXx/mNBCaZqHjainIpdcq++hWOyD4dX+7b8slacfbgMx8IT1G6g2QrGtqPk+hImZqZQnx7ZPtdaNQyH8zHKbN4+JOvSGzjGb6JEs0sZipv6cHfehcn7zYgPgLHvCwN8tq6w+x2mF1fgGG7HjtX8mEvuYNJpR0W8txzfV56M0rGkR+O717F4e8xsuFTyUyCLjsUVTE9fReqqjdkGIovC5nyJ7+0xG345FIWUj4xNkSdyiXgRBj4dDBBZjCRZ1H0BZdFF6Jhx4fHVEs9Xx43eOPgsguPFAxRJX3ith+/D7pxBXeLGGGBwG25UcvKx7fex7PKx0lVtT4wdQOu0C8Pncw3bIp+VKr7xDlNDbT4fRTLOL8Ixfwu5m3SAFdouCagZdGHqRi3Mkg1YynkMOF3oqd9uaE/VevlU5Pa1z/nMcDG2DVUDLkx0l3tmVzlB04j1026kS7b6GGXkKyrqH7pw/+ETTLy8h0KLu+/e3fIEjpleZH7k/HGb8FmvYz02/MNkNHIDfIjUyOIXG3tm0TH2BLcXFtGa6Z6124hkkds7Oj8av/gyFg+k2fGPgU1K89MhCFRXVFcCA0QWPyRZZLEov+uCY+C4Z2bCvZzpBY4frkXHsBP2+bcYHh1EY67vki4+8IjPPonzg3N4OPcOdsdz9FxuRor0ZZt/SS++uQTHzAAKpS/F26tHYHe+QsfBOG0gx8yHNNJq76lCtDRIYNZKXJ53YfBslmfAd+DiEhzjF7FXlrOlI6+sHCnbvGQxnHLEZZ/C+cEXePTiW9hnnuHahTrssXp1CTDGZbWiY2C1vDPzuHmtHZnbvctm2K423Ha6PEu/5GW/fBlYZ4lXp/uF7ZUNNEBSsTPPn/jCXVR0Fb2TX2F87jXu3b6MvJ2+MxjK9lOoX9V0w7ILMyFUfSjjKoz6EHWs4rL4XNRctWPg6TImF1cwPjOP7s5K7NQNKJk5AVnNfbg+voTxF28xPDaC5oO7fUgNH+TLOJHvHbPXcWAV58xUigvzLtxq2etpCzyvsSmlKCrJ8swUMVaCc3Mu3DmxzyPH98QWXX8Px2CrR47Hzb36FRwPLyC/5ib6HMsYf76I/t42pEltOBw5lfIyVoDTMy4MdFTiUKcdg8/ewT7zHJ+3F/nkTdkuq/oGpWV2PM9sxwncdLpwrTbeYwfV8jLzLhxo6kOvnfd/yxixP0ZbRarPzBKLKcfFWRcedZd7+iwWnYXjj95jYrQTKVHuts5YDI70r/jUcV9ToidPPK/iUrGfVraYNBy++AgDXyzDPjuHq03ZKO1579uPs1y0faHHgQ2Hb32L6XvNnv5e06eAU+N0c3Dk+gocAy0efar1y1ixhtNrbRfQ55xH8+oS/LyuZTgGT2Kb3L/7ldc/XXPpPUzN3cOxlsd4OLeE3mO5yDozhbG5Jdxsy/WtO9XyMjPGntnwZ+cDL9vV+t2n11CYfxHd42/d/W7/FeTv8u13eT8eql8TOAj1nuFyqv09X4bqGOrEsf73GOks0D4cBCKLodJl7BA6nq/gs9aT6PliGaMDp5GRcx59M8sYG7qCA1K/EU55RbmZyYLJFzb8tC2wvbcnR+H1SStWGqJwcPUDg4hPrrcvIVuQLbYaBogsSoOJ9VS+eLnIeyuYKQMt47qvz9relyUMjdrR1lCDwiMtaHvwBo55Oyp2ecmOKekU+l6uYPjOJVTwJXH1XbjBZylvN2K7/KLfVo0rMy6MdJUihjGw+Cpc1p4Pa8+8TPzFkn5uAY6XQyiO9aZhPXIfE845NEnLM91Lqzp9yKKRXdxkUaEce9tw6+UKRu5eQcWRCk85xnoqPQMgLY9JJ9E3v4Kh/osoK+XLXy+h5wsXxgdOYKcY0FuTkVlSjsKScrQMvIdj8jbKV58LS8qQssNbNmbbhwOry+YquxcDfk1XtbO7fudw83Y3qst4Oa6hb9aFyQcnPfnj5VC1XyTTZWHYxaRaHyq4CiNdIwwZ+fFlwxV3lzE1fh9Hyw4jJ78ERSdGMOL8FlfKvPvQGItDzuWXmJqbQUdLHQpLG9B0axHTC1+gLsmLg7iUQ9qy8NzGAYw63+JKk3uZOF8qnpu110tEEtvR73yH80XejxOG+dt5En3O97hY6h2sMrYPTY99VxAw5p6Rm56awbXuDhwprcDh1gcYWnThwblsaTZKVU6tvCy+Gb1OFwYePsDFU404WFqPptuLmHYu4XSeN8/Kdolz67tW7bU9t0tc9QgmpX1Z6uWNR86VF5h+9gSnm496621xFsdSfG2fdOILTC9MoHIng1bfVxcwPfMQh3d55fiM8K6s1Tqtu4sR5zucO+QNF3WoihdejuIbS3A8e4qzPH+Hj+H43ce4Z3fh0eUiL/GMbUS38z0ulcfBGhOL2B2pyD3+EKMvn+N4doxXThGnRumeuG/X0vXZc6hYvyyhFX3OZZwtLED7zAq6qmLB2C7UDrlgl1a6qKbL9z86Zu1orqxC/a0v4Xhix/H6GtTfWoJDmklVtTOvF2a24MVrG5aP+deXqDet3306g95b3ajS+l33e3Bq5DQSpY9Hyv2awnuGp63a32tkcfQsUquGMflFDzLNDEZkkSmkK8ji4PVTKKrswq2XyxjoPY/iim70L6ygt36nB1eq5RV21OzNTOiz2/BXXd5+QA7n94n7o/HDdiu+OxGFqtUPMnoZeiaiRBjYehggshhRsngd2TGxq4OHNBSenYLd+SXOHXLP8PEG5iZZK+g+6l2+xbY1o3fRhd6GBM/LYG/bMzie3UFetHfgG1s9ginnJKq2e/24zrgj9zHmXEBbTgLyul7B8fQ2cqWvkFq6+/iysff4vNqdLv8iz5fdOcbOYrdEPlXJjmo5Us7Mu8shzSTa+It10Y4KaaYyJqsFrR2NnhkDnufYmlFMB9hfE86yx2RtCZnx0itVO2uDh8VxVEp53t44DofTjvI4b32o2i/S6XJ78SuUXVTrg+tSwZVqukIulMvim9DjdKGrSh5w27BrfzaSE6ye9sH2ncN951e4XC61o9WBdLc02yXSs5QNGLYdEW46eFNbat0gEU0RJrssvxePdR9YmLkcF1+60Ne8x5u/1Rm5ibvNnlkcPmPLly467rfAJj6AqMoplpdldeGh8z2uN+7xElKNOLjQXee1lShTKLu49S2hvcDdr1ltu5FcchE3Zl142F0efjmSOnBXO4BG6hO3H8cNpwuf6wgpiynTZhcHzmZhR9kgxhZfoj3fO5MpyiBcU3E/Jp0zMKpDVbywZI6rZVwu96bDks7gjtOFm027vfWbeQXDulUOjhezOFXga+Ow0y2T0tUOo3HhxjEpXcX6ZXk9eKxtHYhFWf8KRi7kg7GDOPtMh1NR3iDp8o+NBdfewXGvWTtQLKFpGtN3m7SPkbv4stbxz5As8KyIU15nLCYKr760Yak+BFnUvStiq/h78AmOSh9XVfs11feMan+vkcVH55EYU4OrL90fZIzIokq6brLoQk/ddvCPZnXD7pl7xpLQMOrCg45sD/5UyyvahmZvZkLPmA1/1xOYLPKlwfGxJuwmouixtWxDut96JInq3F3nRBYjSBblJW783vHyBS435fqc2OkmWb6n0TGWgfp7M+g6lubpoPI/fwfH6FmfY8TZ/isYcr5Cq27PAR+EFvUuYWpyHkOLr3HuoHfAIYDOWCLqhlcwNdCiLUdjMTW4ohvgcllVsqNcDj7IGD6LxFUSzb/CWw9cwQPdyYKefJosiBayJbdgl2YvhAx3Q5EiWTYYWVS1s/tLc4/PXh9W2Idx5ywaJYKhar9IpyvKG8ou+WHUhwquVNMVcqFcFluLrpcujA10obykAPt2x/ssKxXxE5om4Vh4gNL4VRLDMbOjxY9oCvmkk7NwzN1EjvRhRIRxlw+AHQv3UWD2En85XNxvq7fDsfgARdJgiiWexh3djBYTM3I1EilisSi8NIM7F8s9y/ZU5VTLG1P9EA7dByW26xRu6WZDRXlC2YXr8+vXFt7g1tVGJEkfssIrxyAOyfbTZmtXcLk8ytP/ifzt4bOLM3MYmH2Hmy0ZsASoPy6/q9kRsA5V7betgdfvEIrlsmmk7Wt0FHpJjbVyCNOLdjTm5CEjKx/ZJa049+gdph3XkSV9GIt0uqr1G8dxyvcqmhn2nZ53L5He1oLrzm98Zs9Vyqu9O0ZcGDrn3u+bffkths/laHWVc/UrTN+q9+BZtby8vpTJ4kw39kv17n4PvkbrAW9bDadf09IO8Z5R7e81svj4PBJXP76OXS2BOcgBN3wpaKD3myCL12riNLJ4dIh/NOMzwrvB74fOecliuOXVyqxAFrkcXWQDwgBhQI8BIosR6hy1l8vsICqz+OAhF2mpSYiL8g4uhOHdJMvpR/hEuHCNBv0s4xKGnF/ilMGx5+bcHow6XXBMXUWqtDxH6OPutrrHmFqcQs1OhpjyQUwuTqJKWrrJZVTJTjjl0A82NSKtK4dp52Ec75/D45e++48cH5gsqtrZPXjwPWiBFfLZKN8j0lXtF+l0RT0b6RVh3OXhKvUh4qjgSuhVOZ1W6A3k8v1/O4s68dmDeTxecIHvRbVPP8LxQu8SLB435/Jb5XLwmZHC7m/gGAl8em7Olbdw2C9gjzQoNcpj5sUv4Zi8jH2SnOkg/2gwg3rpZFB2gM/whW7nqnKq5U3rWIBjRvdRo+AG7M45HNvnHVzzsqnYRdPn6dfykL4/Awk2/5mJcMrhsF9EkmQ/lstnwV6iOc03fzyP1vzrGNH6tSshT3HUDpexd/roFnWoar8Dny3BMXHJM1PG45uKbmPC+YXPAV8aAZNOwNTkMq9iiC/9LPCWY/3pPsXR3V59qvWb2fkaDo3EMFi0/Ya3kaPNSvrOvAYurzddvv+xY84FPmPPPyBVD7jgJjQJqH3gwlCHmzhyG6iWl8tysuhUmVnUHxxn8B5U7ddU3zOq/b2XLDJYS+9h/Nkt5Obwtu/7XlBJNxyyqFpebmdx8fbe+8iGX3b7t18hQ67XXmQLsgVhwIsBIotSZ7oeYBi9XIz0qZIs1ZknngYzZ6B57D3sg4/Q9/IdbjTt8yxBk/PAYmtw9YULt1syUdr3Labu+h7EwGXdB7R4lxVp+m0ZyK+oRKq0BFO5HHwm69E15GskmhNpcWVj5+qJq3wAUtb/DtPTgzhaegiZQqZpGBO6l64oTyhSJOS4G7mZxdBkUdV+qvVrhCsjkirKG8ou2hfpEPUhdKniisuHSlfoDMdlllgkpFfh9Nh7OBzS0fSryzmnBy54sSIwk5WBHdKsFU+PnwzZ8NB377CcD44/vjx0Wnfip2XPQZSUF2Dn6myj9puJfv/fb+xsnobj5R3kS7OS7hkg318tyGmKexU5T/5ClJexaJT28QNRTvjsB97eOAHHwiAO6Q6sCG2XVX26g3tE3mU3rHLcPOozQxjPZ8EWHvjM5nHdph1VuPzFCu7dtWv/OGzL8Z95FHlgbAeqV09t1c8+qtsvDhX3XHDcbvDMlHH92lJLXr+rH+H4B43im+/hWF2K6cmDNgP5Fu25bnIX+XTV6pfjlB+sNnW9RpuVd898z6Lp5ACmF+57Tkbl+wuVyqsdZrSEU9l87yg/QMm9MkZb1jrLlw/bNEKiWl6PvUxmzLyywdUa+MAV0f8ZzSzK/4pU6dd4/lTfMyJdnzMIDD4OymSRRZXh4twyzp/swgPpvaWabjhkUaW8ws7CZcyMAYcNv7gU2N5CllzvIJlsQbYgDPwARBY3KFnce2oWjmf9yJMGvu69GhM+++b4wCW1fQZTLyZRvceC5FP8fhq1Sf4vBD6YLOh+C8fDCdx48R5dVf7LVbVfP7x8gGL51xml9/x+naFKFrW9FdNdSJNmO1l8Kg7kZyNhdbkWY3lon/Hdk8EbZ0zlEKakl67cYDWy9fCMz+Eycrh8H4wsqtpZdfCgar9IpyvKG8ouKvXBdYWDKy4fKl2RP1NSPc4PPkHPxXKfg5rcaSZg38HD2L/Hu1+R+2defA3H1BXPbB5jyWgcc8F+rczzUYQPhLanHkRWuu9pqG69RdrMyN2T3mXeIj/u8H049siFqb46D0ngA+7C7jdwjHV4loLz3yVU8j2H/cc8/2pkpt2ofbCCyf4Gz/49rjP17EufXy3I6cn3KnKq5WUsHc3jvgex8LSy+GyZ7oRj7s9YKLu49T2+XOyZnZDzLt+rlWPVzjdqPWSRD6TL7/p/uGJRGWgYeoeJ4Q4kR+1D49gKJgeO+2FG5IGxfK0PkX+O7g1Tw4v43YS8rJKZ9qJ+eAWOR+eQuDobylgKmuwujF0s9NiFt5e9rU8xPX8fhatLWNXrzf2bi9DpqtUvY1lodbgw0J6xSuKK0PFsBX1DT+GQZl6Vy5vbjUdOu/be0fbXr+7TZttacMPp3VKhWl5vvZhxw27D3/VZfNqOCOeu1u+q7lmM4HtGtb/3IYvMgvxrb2EfdmBAem+pvt/CIYuq/bhsS7YtCm9fB98jykwmFKaacTTF5HOAkKyH7ok8EQa2HgaILG5Qsmjip6fx01D7P0PZYX4a6lX0aqehNngOzOAN1pJxEfcWvsXNZvdsIrMcQIt9BRND7YadvTmvB2N8WdeLQZ9/KYrGz3YeQ/ecC6MDXag8Uo5DtZ+h+8kK7PdbkCAvHdNOdQ29zM59ats3uN/TgcMlZSgsb8Xp4beYnu5C+upMB2PxKO1bhmN2Gm2NtSgorsSRlpu4NvzCb5mnyGfi8aeYfvkEbdUV2umohSUHkSgR3LjUIvcpmIUl0E5DnRtB3erpqLk5+zwnxaraWXXwoGq/SKeraheV+lgLrkLVh8jfntYZbfkoPxhIPiyIhzO2H8cnXZi030FVaQmyCkpR3HQLd+e/Rf+JdIkYWpB16TUcc0/Q3lCNgqIqlLc/wODCW3RVeQ8DEWkKUjTW34GCVQxkp3gPIuED/ZwrS3AsvMTlE/UoLDmKo5cdeLwwjzbpQBW+jCu5/TkcCy9wsbkKeUW1aOh+jokXX6BB+gk8Y1GrM3zeX+aIvMiuupxaeZm5CpcXdAeirP4PcFo3m+e2t5ssBrTLqj75YBc5/+JevRxRyOt6A8fCHDqba1FYWo+GazOwL8ygOdP7gYCT8jxx8ulO91L+2LIB7XdA7bnRXoJmS/GceJxbfAW3nC70X6hcbfeHkLT6OyFevyp44SerFnZ/BcfCPC628Pw1orlnFPccfJau2rN3lh9o9NmCCwNX67W0coprUX3uMUYWlnG9Kc0rF/F01eqXWevw+eIKrlS4D4QSHzmmF1e0/2WKmVfV8sbXPfacJs1yujG6uoeQ349JB5Cp2lnghrv7W2Pwq1cx6JKWcMvhWr/7bAG3+rtRJZ0KPvXwrM/7TaVfC+c9o9rfy2SR59tS2IfHiyuY9iGLau+3cMiiSnllO/KDa/JOx+BXzhh06A7I85FLsGCp3Yqf1Jh93veyDN1vPaJAdU51TmRxg5JFPjDdpv2fcA6j/D+LTwz+sxiVhRP2FUyOdCBJWgIXlXkFA4ucQKZ4BtiisTOT+z9x9m7vIRsijLs83bjMFpwdeI4Rnu7TOfRePYG0eN/9l6ozi5q+nDZ0Di3g8Uv+n8UF9PV0Im+3774JtuMgjl1/guFn7zAx9wr9N88is5QPRnz3foi8spgs1N6Ywei8e4+jfm9joD0d2n5Jaa+Rip15mqqDB2X7KdRvOOmq2kWlPthacBWiPkT+og5cwO3ZdxgdOIW90myzCI/JbMXFYY6VFUwvLOPh+ATONxdim06WxWSg/IodAzPLmJhbwsCDu2gq3ueZsRL6uKvN+tTex52Zd5hePcHS77+BXN9lu/ZvvYnnTtwf6EN1TsL/z96bxbaV7Wt+5yFAgBt0PwRJkOQl3UgDN1iH4yEpkQopUSQFUhxEcdCsaPJsy5ZneZ4nyVPZVklV5bKrSuVBVcflssu2zqnh+NQ9Zd2+97obuEkech866eDe5DbQCBoBktfgC9be3OTmJG3JtC3Z34OwKXLtNfzXb629vv1fQ37gr8Un7K0YPKWme/fx9/hwahIjsWIPvRCtiodPf+SBdr/+ajScUgYD5RXKNMjnONxZWOOmeTVKy6vEKb1hi9ilEF9x29eXQY3HWHmVsK42rD93V623h88wNXUR6xKefD8lPcT+bV9g9tlTHOos2FWY27BHvkiY2ZMfxKo7uRbOUtWvxZ0r3bHWgP1k/sy+Ieyb+Q6fP/4Zt2dvY6x7Cw4/LHjplDI0yw2NCunef/IjPvnsFvasj+VfQslwSthapmuwfkXkOD6af4pdsQIH0SPPlJc0pZ5XI+VVBFHubMa6zZ/nz5usU0RkyfpYg+Ut2MeMz+Zc+PtZGzZ6yznT+t3eXnm+7U9KW5++cQ4d/pLnh3xu1fA5o6W7nGmoSn1b1DONS59HRp5vyxGLRvrxvI2FQGTIhr+dd+Ff7jdX7CO1sP6kDS/H7bidO5dT+55XigUy8H4zQLFYI7G4VhqSKXEWN+d/wuGu6ut/1kpZmM/3u/Ni/bP+ycDaZ8ASsODBPRf+8Tsnnu01F623Zf2+Wv0KtwXTM0782++d+KvTFgRKXrrp7Su9j1uH7Xi5x4qhkvXN+nD8/Gp1QvvRfmuRAYrF90gs5qcJPbiMNj4M8tPZ1mLDZZ75wCEDZOBdYUA4zBjdbcf356z5NcLvStneZjlEsxUPpmw422HKr7Oulh/prby6y46fuk1lMyqq3cPv2QeRgfeDAYrF90ksWgdw/OECPj3ekZ/2xYb+fjR01jPrmQyQATJABqoxIL2QT8dtOFNynFa18PyeLJGB94cBisX3SCyyYb8/DZt1zbomA2SADJABMkAGyAAZeFUGKBYpFjkdkwyQATJABsgAGSADZIAMkAEyUMYAxSKhKIPiVd9A8H6+xSIDZIAMkAEyQAbIABkgA2ufAYpFikWKRTJABsgAGSADZIAMkAEyQAbIQBkDFIuEogwKvgVa+2+BWIesQzJABsgAGSADZIAMkIFXZYBikWKRYpEMkAEyQAbIABkgA2SADJABMlDGAMUioSiD4lXfQPB+vsUiA2SADJABMkAGyAAZIANrnwGKRYpFikUyQAbIABkgA2SADJABMkAGyEAZAxSLhKIMCr4FWvtvgViHrEMyQAbIABkgA2SADJCBV2WAYpFikWKRDJABMkAGyAAZIANkgAyQATJQxgDF4nsOhbA4IUyiDIxXfQvB+/kmiwyQATJABsgAGSADZIAMrG0GKBbfQ7EoRB1M/d/Afv3fw3H7H2BtpVhkR7a2OzLWH+uPDJABMkAGyAAZIAO1Z4BiscZiMRKy4GTMhDqxegWYaLkFx+3/C/adx2GO9sNkX715ZaOvfaOnTWlTMkAGyAAZIANkgAyQASMMUCzWWCyuG7Dj5RYLmlexWDT1/wLn7Z9gsVAkGmkkDMPOlAyQATJABsgAGSADZOB9ZIBi8T0Ui6L3j3De/hkWehS5VrPG/L+PnSjLzMEDGSADZIAMkAEy8K4yQLFYg8GycJnxcNyOf3XgN2V/L8ftmAkVPHjCZ8VP4zacazHjxhYbXuy148etVhzzm2DOeSOFyYzru+x4MWiGQ+ehFBYzPt1rx+86TK8kckTmKZy3X8LqLuTrXQWc5WLnTQbIABkgA2SADJABMkAGVsYAxWItxKLFhK6QGetCZpzdaMfLHVbszP0vv0s6CqJMFYt2/LDVhksJM9aHzbi02YaXe63Y7VLDCSGQ6bTh5T4rtlgL9zrDVvzluA2nPIXvVgK+aH8I5+3/EVbvq8WzkrR5z8oaKu1Gu5EBMkAGyAAZIANkgAy8aQYoFmsgFvWVttSaRU0s3okXhJqwW3B/vx1ziYLHULgteDpux2xU/U4IE7YM2/FymwUtOm+jPu3FPguLCyZ7HYSrDea9fwfn1Ncwmwt5WOxe/saOiQyQATJABsgAGSADZIAMvH8MUCy+JbE40VgQalIIHtlgwxdtOrEoBA5tseNvNprhFQJyCurtfXY8SBbCLKfBWg78B7g++3+VP+fMS1jCrleayrqctBn2/etYWOesczJABsgAGSADZIAMrH0GKBbfili0YcJXEIvVGpI3bsNfj1sx7hRwRaz4q/027HUufV+l+EyNgzC3DsPcNg7bqf8DzgtXYTKtLK5K8fO7td8ZsA5Zh2SADJABMkAGyAAZIAN6BigWV7FYFFYzPttrx8N2E7YN2/HXGyzwrGAKqr7C5WeRegTn7X8N6yuufSyNl/+zcyEDZIAMkAEyQAbIABkgA+8OA78ymVY2rfF1Q+AIOdbkNMnhfjtebrUgUEXUabuhGvEsyo1u1g3Kcxtt+GqvHZ+31sYTKNJPKBZr/JLgdbcHxv/udLqsS9YlGSADZIAMkAEysFYYoGexxqIhnJK7mNpwKarujrouZEJYt6PpcsSihMjit+CP43Zlt9TNlhqJxd7ncN7+hecs1rju10qjZz75gCIDZIAMkAEyQAbIABkwwgDFYo0Fg7CacGDYhud71XMXX47bcKy+IPKWKxaFMGNqrx0vBsywV/FWGqlofRgxuADn7R9h4W6oa9J7ra9LfmZHTwbIABkgA2SADJABMvC6GKBYrLFYrHWh5ViKAAAgAElEQVRFmX1W/Dhux41AQXC+ahqi7bdw3v572Ho7YHK4ILjRDUXjKm8Hr8o87+dDlAyQATJABsgAGSADy2eAYnEVD5LlkRq9PXa83GVFdw29gEK0wLLnf4Lz1v8D5+1/gLVGayHZAJffAGkz2owMkAEyQAbIABkgA2RgtTJAsbiaxaLZjJk9dvzUbYa5RlNQNRClEBV1cZjCvTDZa+e11OLnlZ0eGSADZIAMkAEyQAbIABlY2wxQLK5iscjGtbYbF+uP9UcGyAAZIANkgAyQATKwlhmgWKRY5Ho9MkAGyAAZIANkgAyQATJABshAGQMUi4SiDIq1/PaDeefbOzJABsgAGSADZIAMkAEyUBsGKBYpFikWyQAZIANkgAyQATJABsgAGSADZQz86je/+Q1W458j5FiV+dJsZQ5kVnX+tHzKa7q94a386fPAz6uznbFeWC9kgAyQATJABsgAGSAD1RigWFyhWKZYXFqAVoOO37NDIgNkgAyQATJABsgAGSADq58BikWKxdfmdWQHsPo7ANYR64gMkAEyQAbIABkgA2SgGgPLFou7en6Dn87/Bv/7LfVPfpbfVUtgpd9zGmrtbPo2pqH++OOPkH8rrX/eV7v6py1pSzJABsgAGSADZIAMkIGVMGBYLDodv8F3J3+D//t+5T/5mwyzkkxUuodisXa2pFisnS0rscrvaF8yQAbIABkgA2SADJCBd5EBw2Lx0pbKIlEvHmWYWhmJYrF2tqRYrJ0ta8U342GdkAEyQAbIABkgA2SADKx2BgyLxb+9sbRYlGFqVWCKxdrZkmKxdrasFd+Mh3VCBsgAGSADZIAMkAEysNoZMCwW//2XS4tFGaZWBaZYrJ0tFxOLqY4g+q9nMbCvCamkp2ab3XDNYu3qr1ZtivGwTsgAGSADZIAMkAEyQAaWw4BhsfhvPllaLMowy0l8sbAUi7WzZTWxmEo2IHsgheFrMXRmaicUZXoUi7Wrv8XaCX+jnckAGSADZIAMkAEyQAZeFwOGxeLjE0uLxUcnaldRFIu1s2VVsdgdwsBUFgM7G2vmUdTSolisXf29rsbPeFlHZIAMkAEyQAbIABkgA4sxYFgs/g/x3+A/3KsuGOVvfbHaGZtisXa21ASc/iq9ip1H0xi+EkU2VdmrmOpuwcB0Br0bKv+uxVcpHMVi7epvsQbM32hnMkAGyAAZIANkgAyQgdfFgGGxKDNwc091sTizs7aVRLFYO3tqok5/TfWHMfhhBn2jvqpexdRIK4am29Hdu4RYrBCOYrF29fe6Gj/jZR2RATJABsgAGSADZIAMLMbAssRirLm6WGz+72traIrF2tlTLxLl51TSi85TGQxfjCDbXiIEhwLIdqrfpTbGMHwtio52D1LtXmTX+ZFJ58IvEY5isXb1t1gD5m+0MxkgA2SADJABMkAGyMDrYmBZYvF1ZaJSvBSLtYO+TCwORzE0nUbfpoYir2Iq5Ufv1SyGp1Lo39uM9KYYho4Gkd0SQd+lDIan0+gZ9sBIOIrF2tVfpfbB72hfMkAGyAAZIANkgAyQgdfNwLLF4rePn6DSX60zSrFYO/j1YjGVbET3uQyGLrQgU3JURqq9Adn1IfQea8PAlTQGr6TUv6vtGDjeiq5NTcikpJdx6XAUi7Wrv1q3LcbHuiEDZIAMkAEyQAbIABkwwsCyxaKRSGsRhmKxdgAXicWNMcWr2DNS7FXUh1E+D4fRfy6FwYkIOhY7VqNKOIrF2tVfLdoT42B9kAEyQAbIABkgA2SADCyXgWWLxc6ubjx4+CjvXZSf5XfLTXip8BSLtYNZE4Kp9kZ0T2YwfDqIdIlXUQujXDdEMXAjhZ6RJnRPZjF0NFA5/CLhKBZrV39LtRX+TluTATJABsgAGSADZIAMvA4GfuVwOGou9GqRUYrF2gGfF4Lb4hj+sB09/SWb2rTrvIz9YQzcyGJgX5MiELM7kxieTqF3SBdGhl8iHMVi7eqvFu2JcbA+yAAZIANkgAyQATJABpbLwLI9i8tNYKXhKRZrB7MUi8qmNJezGDoWQGoRr2KqJ4ie8SAyuV1SU2k/ug+0oKOjWGAuFY5isXb1t9I2xPtYB2SADJABMkAGyAAZIAOvwgDF4m9WBpA5kFmVHtlKMEixmBlLYmiqDV09xaIv73XUexdr8JlicWVcVao/fkdbkgEyQAbIABkgA2SADLwNBigW3wOxmMoE0Hsti6ED/kW9irUUjhSL7NDeRofGNMkdGSADZIAMkAEyQAZqxwDF4jsuFu12B7J72zF8I4GukqmktRSHpXFRLNaukbLDoy3JABkgA2SADJABMkAG3gYDFIvvuFiUUJUKuTfxP8UiO7S30aExTXJHBsgAGSADZIAMkIHaMUCxSLH4WsQkxWLtGik7PNqSDJABMkAGyAAZIANk4G0wQLFIsUixuEIG3kaDZZp8UJABMkAGyAAZIANkgAy8KQYoFlcoFNbabqhvYuppaRpvCmKmww6TDJABMkAGyAAZIANkgAzUngGKRYrF1+JZlMKRDbb2DZY2pU3JABkgA2SADJABMkAG3hQDv/r1r3+N1fjnCDlWZb40W0nPovaZ19XJEOuF9UIGyAAZIANkgAyQATJABlbOAMXiCsUyxeLKoWODpe3IABkgA2SADJABMkAGyMDqZ4BikWKRHtIVMsAObvV3cKwj1hEZIANkgAyQATJABlbOAMXiCoUCPYsrh44NlrYjA2SADJABMkAGyAAZIAOrnwGKRYpFehZXyAA7uNXfwbGOWEdkgAyQATJABsgAGVg5AxSLKxQK9CyuHDo2WNqODJABMkAGyAAZIANkgAysfgYoFikW6VlcIQPs4FZ/B8c6Yh2RATJABsgAGSADZGDlDFAsrlAo0LO4cuiEcCC4pwWBkDkvVIWwIrAnitY2K0xC5L8vbdxCmFC3vhXtvQ6YFwlXep/8X5jNsFgrxy0afEjub0Rdld/18YmgH+1jHjjMhbiEEHANhBFL26vm39rogE13j9nvhr/TW/7X40dqvAlOXVgtfWFyIHywBU0eU1UbaWErXV0DIUR7c2n2BJA+0KikY0k3Iz6Q+77Lj/aDfrgqpF8ap7C4ET8ehM9dsEVpmNL/XUMRJHudRfXnHokg3umA2SQgbVl6z2L/C7MJ5pK8CmFHcH8Eft/idhLCifDBCEJhy7LSdHY2IxixFNW1yetD6mgAHufy8r9Y2d7Gb0JY0NDfBK+72HamZj/S+xtR7zBePpPZBFFXD3+sYF/h9KDtWAsavZXjWWn7ehu20tKUzJpKGNR+43XlzwrajrYjA2SADLx9BigWKRaXNUiuRaMVTi+yl1vQoBNmwuxG8kYcwZIBaml6wuZG+8UYAjkRIMx2NHToBZcPrQdb0eIvH4gKkwutB/2ot6m/SeHpSnrgtAmYkmF0bXYWDf5L05b/y3vc2xLI9BWLQmGtR9vlJBJtlqpix9QaRPdRVZwpcdkssLstsPkcsNlMStzWiA/R0QBCGRccuXzq86HEsc8D6zIFlZp3M/wH4wh61PKbO1rRuU4th2e0DbGI+r0p2YKuLUvbQomzuRm9xxthM5gfIczwH0iiNVQQIlKcBI/L7wRMfh+S40H4mwsvElRb2eEtqmetzn1oPdKO7m11ReJT8tR+yg+nLl/CZIO3ux4OPXcOLzLnA6iz5JiwOhHZHYDHpf6vt73+s3A3omOqFf6ccBIWB0K75QsQtf6FyQKbSy2jvT+GkZkO5W94OoPBy0l07vejYQnW9em96c+isQldlyNoqsvZxWRD8GgCibRNEfT6/Mg24Yw3lL/0GAmj+6QfdRYnohfiCPrkiwDZfuJI9ToqtrVXaV/6PBn9LEIB9E23IxpavL4Xi0/m2bO1DUPTabS1F3O72H387e0PgFgHrAMyQAbIwNIMUCxSLL5xsSjFSN9ud9FgUQ7aeicCcOkG96UNWA7KXOtiyPbb84JMfmdzW2G1qgNz0eRHxx43LBXikWGbxjNoT+fCSuF5pgWNHhNcGxJIJNTvTRZTUd70+ZBiNTrqLhJr0qvgHImja0NBYIkKHjJh9qD9gwia7MUDU1OdG21nE2gbakCDv9hbVZS2sCBwMKYMurXvzZacIOkMIt6vCSgv/Osj6BirLxZQwoXY2SA8Odu4RxOIhuUA3orgiVb4c+JU2qKtTY1XS6fa1dLVit4tziKGVC9L5fulJy82EYbPLCBtJOMV5nq0XWqBN2czx2Acg/s9JXk3w+qxwmIxQbgbkL4QRchfnIbwueD1qoN1EWxG11h9Ub5kWpZ4C7rPh+DTRFA0hJ5cOClafbvb0LO3EZ76QtxS4JaLIT8S+4IIKJ7hBoR3RhDt0+zfgJZ9SQxeCMJjF/BsT2H4fAua4vXwxt1oGgih63oWQ0d8RRxVs/Hb+F4yEToWQ9CrCjxnfxiJtOr1l+3IYi/YR+bP7LSiaU8c4Sa1TjW25G/KrIH9rWj2Cphb/Ij1OyC5rTQz4FXa10rsJF+YDE9H4S9pk8uJS3LTtC+FwSsxtASK7bKceBh26QELbUQbkQEyQAbePAMUixSLZQNqrSEq3pPpDBKJYnGj/b7Sq3u0He3Z4jfwjuE4hvZ5qoo0mZao8yJ11A+n2YT6jA9unxO+kmmc4f1JdGzzwj8SRnbMXebxcsTqlWmXeYE35oO/swHx00kk5TTM7makJhOIBIsHfXIQ27qzCYHRFiQUUdaI+NGI4uEUbi8yl+KIdmliwYvw/gTaO21FtpWDSmdTbsAd8yO1Vaat3tN6NIWuscbc/41IHg3BWzKd0RwJovtkEM25e5rXRdB7IYQGuwnenQm0Bgv1VL8lgUS8pAzeJnSdb8kJHB/azkXR7DJBWD1ov9SKSE74xE9LD28hLsX2wo7AjkDu3kI5I4dkvgv/K+XpC6HzXBAezYNrtsGjeQV7Q+iejKBlIITOo364LAJS4Hcf8uYFvrDY4QnZ8i8E9JwJpwut+1sQCFpgbXbBqfMS2gfi6B6tUwSYtTeKdFdh6qMWhyKMj2eQ6VV/c44kkOqU3kAz6kdakOipPL3Z7LLB7qj+EkEff33cAYsmhKXAP5rFoO7liBRb3rEUhi8FUV/hpYYW15u8CrujrC0FenN89gaR2uvPs9q8PoLey1E0ewt8yanlkdMtaFAEvxWhExE0uUq9/o1I7JECuxFt55JIZaz59lGL9rUSe7k2tGH4chDuVVIPKykD73nzAyfanDYnA2TgfWKAYpFiMT9gKwVfRILon06gxVcsHErDLed/6VmKXpAipRCnFFGBIxn0bHJVz4sww7uzHd0b5PQ1OyLSE+Y2w+ZxoK6pWHgayY+ob0B0g0vxbghTPRKnm/NeTTmYN+emJWpxSVt0j9XnBYzwNqHjsA82s1xrKUWjrjzSU3a5Ff4SsafFJa9SHGuCWbHJmVB+wKrEPd5Q5HkRJjtCuwNw2wQ8o8m8F1TGJdfnhU+H4c2tmZL2DB4teAq1dM3pYF7ACpMTwaPtGDwfhCfoQbjDjcDuKOLpOnh76uGyF9tUWBuQOl+wkZquDeGzsTJhaelsRffGwjRDaU/N+2tqD6Mn54lU1pC6bHANxtC324eGpAdNnV4E1ofReSYMv06MyPRM9XUIjjSgLucFEk43EoeCaKhTvV/e3QmE/bnPO+OIVJiKLOOxhurgsslwZjSNtyHsN8ER96ExN/VVvkjQvJ6a7eTVMxRCi+6FQGR/K8LNcvqwGa5Wp7IeVbLUdjGGYM7rKaQ391IWXSOFFwcyvP9ApsyzKMxWeAZDyJ5PYfB6Gn1nWhFJ2MpeoAibHf7RKLovZTB4pQ2pASf8+zIYPlrwVMp041ey6N7sRuO2GHqupjFwuQ3pDaqY1pdLfpZ5sknPrW7dneJdPNFe9BKi9D7tfyGn814II6S8cAig44QfDqHzBrt8yJxsgr2KKHuV9mXEHkoZK9itaU+J3eIhDE4nENa1Z3mvrSeKoakYArmXKEodHszmpxfLacYdAwXxq9lFSdflQnAsip5LaQx9KKchtyGzzQ177oWCFlap/wFZ/+1q/Z+LIpa1F/UDMqx3LI3hU354u0LomMxg8IMkuvY2or7EOyoMpqulzysHv2SADJABMlCJAYpFisUigWZrcaMuJ+REsgVDV0LwSG+ByQxnVB1kVwLJ6Hei2Y9u3aBW3iecDUhPxJHoshflRR+nJRFEz/WksrZI2BqQOuhVBlHm1iC6DnqLNpvR3yc/20Ie1Ssy0ILsngY45bq44xGEcx46/0AYPadDec9JaCyBvsO+osGc9FqluwueKnMmgo5hB1x9QYR06++U8jT70XNMHbhLoWSP5NIfbEFmTE5hNaFpXztS63IeOelty3v8vPBvi6NjSC8uTJAbqvgbpTCRU0ZjCLhUUWS2mSHtkdatG1TWf55qzq/XEy4nGrWy5q/NSF9OIb1R5xXcGkXX7kYonqMrhXWhSpnCAfTqvGPKdzLdi+VemYYdyTKvpgwv/+o3tyGZNkGYrPD1+dCYqENoPKWIWJvTDFPJAFq7z9UVRte5KBJbmhHZ3Ixwnw/+jgYEdycxeNQHu/RsnWlRBLP0coVPFcSzktd6VwUb+JG+HEcsbxPVFs0bW9G1z1PklVaFUyua8t7SerTJFwyKJ60O8fPq+j7R6Eenzk7C3oDMdAbtGTMsNjMsdXZ4h6Pov9GG1nBBkEvx0TCWxNC1BBJDDfC1exE+0I6hqQRCOuGiTHncn8LwBwnEBxvgS3kRPRJD9/ks+rfX5duPcPqQmc6i+3QEyfUyvgaEDyQxPJ1CrLXwYkOzb6Wrsu7zcggNOgFZKZxi33gInZvU6chySnmXLi/yd1M8hJ7RQv5K41l5+7KgyYg95FTRknCth6PoPpdF/45CvrTZFG1JndfU5EBE2lc3rVvWl6NFTiuuh7c3jL4qMzAkN82H0xg6H0YoU4+GWB2aRlqV8KmMvv4tav1fjSM+oKv/D9vyU3sVOyvre7MYmkggvbsJ/nY3/HKGwYdZZTq4tjmY0XRL64H/c6BIBsgAGSADpQxQLFIsFgaYZhfil7IYvtGO9IZ62JIt6N/lQV26GakLaWWgKde4lUJk9H8pnOq3tKNrXbEotHa1omdbAKGBgkDSxynq3YhsaETsZERd6xYJIrPBoa6FOppEclAneHoDSB9sUqY3anGY7BZlTaNzXVwZtAu5sYzLDJPigVM9Y3IdZcd6R8WyyXz7cl4rLU731gTaRxrQ2GxDfZsTVp3IsfVFFQ+oFtbktCnpudbHkUybIT2JrWdaFBEuw8i0O3Vpy7i1zWbk79ZYMxJbtCmrAWQvx9AqPXBbYug/H4Q7HkTX1oJXVvib0bWzsCZU8Ro1WPM7hprcbiRORBHKedLMbc2IZ8o9WFr+5VVu0tJRUj/SG9RX6gEVNrScjqK5gldV8SAfTSASr0NTVwO8OfEbOJpAKLczprDXIbyhfAMfS6Ae3qANVrMJjfvb0Z5WvTjC14jktjpYpGfrqE8ReFKgpUtfSJgtsHssRZ4zffm0z9KrKKeItmcKYkH+pgink00FAe5vRmfOxsLTiI79qidYroHL6uykrMWdLvZADV9PIBor9kIpU3Gn02jPFF5IKBtBTWeLXlJIMdqtiE9dOF8TuqezyPYX4hQtcuOWDLL9hem8or4RHdNZZHoK92rlrnSV9dtbsnZUsYVu8x7tPudIDMmk2jdI/tOdBSEkw7jWy+m+he/MuTXGSnyv0L4M26OK3bqms0VcC1GPxLUsOgYLfZE52YKBD6vPsJDtd6jKDAytDlMdhbIrQjPohEu/LtbnR9d0GkndBjmizoesrP/OAotC1CF2OYvBw978ywy1XWWLPctyE7HpLJZKV6s/Xjk4JANkgAyQgWoMUCxSLOYFkuI9jPsQ3R1D12QKvZPt6JtMou9SG7J7Awgmi49+qAZVte/luqTkRBjR0QgiOa+KEDaETrYh0tKA6MbijVJkPHL9mq+rHnabB6mc98wxGFOmYVqTfoTCUnzJNVJRxdtWNW059U9uDlNfELvKID+3yYhrQ7yqN0xZj3U+gVh+CqIPibOt+U0xbD2titdEbtghhWXjvlRZXHKAqKUvXD5kDxfW6Ok311GmkB6L5jebUWxgt8Jep3rdTPGWImEof5cbwui9FNbuVmRza/L09pB5s7X6kT4bQ4v+2BI5xfVEEtmN7oo7sKpiOalshqOPzz4QQ9dIsfAXFg/az5VOVzXB4qtTNt3plp68rBPW/JRZJ6ITYXVzG6sDoaNJdO7wKtNE9Wlpn9VpzLkNcnTHFYh4CF1bVMEsYoXP2n1Gr8qU3rPxIk7kvVL09ZwI5r3PzdsTeRub0xF05OzgkZsGtRQYM3dEMPxhFC0RF9xhFxqSjUicTWN4MpRf0ynjl5614akImpw5D6T0QtarYkE/4JdCbPjDCBp1azWFIhbTSMQL6cqpwMPTMQRyG/koZXA3onM6g2R7IZzk0pXUvWzReVlDe5Po3deUL7O6vrZ48x4l3twOt+1DajzRo3FEs/pjYRoQO5lCen0unaEWdF+Mojl3/MurtC+j9jAaTumPTmQxmN/0yIrgsSwG93nya2plmfV/sv0NTxV7srXfhd2D1I0s+o8F0Jx0weWpvIGVVv+NuunvmpdT/+JCE5/prmLx6dueQNeoOz9l1Wi6Wj55La5T2oP2IANkgAwUGKBYLHnwG4XjXT9n0Rr2I30sie7TzfmjJozaplo4e19MGVQL+RZd7n5pEzDHW9B7rBF2kwcJ3ZpALQ5hNSsDIOkp6Rp1KWKsaZ8Uhha4mnPeJbsX6TOFYxIq7kQq38ifCeQ3FJGizLc7phzhIAfMzYcK3jAhB+q6tVWKp+pY4XgIZZrnGX9hjaP0bm1Rj25Q1qhNFqYr5ssh15CdUTc0MbW1oO+QtmGIbnMdZaAeQPZkoSza/fIq89m4tx3ZEWc+f1LINe2PFzxzimcsoRxDob/XVO9CYHsMvWdCaKxw9qDJ40XqchZD19qQ2RVEZMSbP09PEWgTbUho5zPmBEX0WFrdTEgnMPwjEfTt0Xk1m3xInWtHz+EgAr0h9BwoWYsp3Gi7HILH4UT4aEI5UkG/S6b09NlactN4ZTq5DXLk2jg5Xbb7hLpJjvQaJ1OqB8YhvVy5z5oNhLV0s5XKAsnfGUTnZPnGM7beGFK5DXNU72NhQyG5mVA8Kl8U2NAiN3bRCbm6jW0YngygTseTSe78O51BPFYQbQ1jqaL1b4WjNlJFIt0z2o7hC8ViXPIk19mFckeiyDLXb04qG7doO98q/MTkerziaY3ye3OdDTa7nOJcyI9wuJE8H4Y32ohg7kgVzZalV8XbdVptW9pGN167FU4pjOQ0Xfmi51Qc4VRlj+artC+j9lg0XEOh3LJsDXJNYO7FlFpXybINr/Q2UNYQnitM+9b/Jm1qb2tG8ngbBqaykEenDExE0RoveIHVNOWOucVxiNYgBqaTiDQX8qd6jJc+6sNouvq88nNhYERb0BZkgAyQgQIDFIsUi0VvyWXjsMaD6JbrAyNOhM9llWMuVnKun76hCVsdEidD8FjloFpu+pFGImFHy+kkYhE5UHUierB4sKS/X3qxUll1Cmf0aADupvqCx2OzutZO9Xz4EDseRzRSePMu41GnCqq7rUqBZc+EkFqnHgwvTHVInCoMwO1pT15Uynvleit57qCWH9HcjK5dBUGkfa+kI4XwiYKw1H4TDXKqonocRJEnsXRznYB65IN+4K7FYfL7kdnngTMRRHq7G3Z5/IS0m35zHGFD+HQEmofC2uiCL9OAwNYY+s6HEe6WIqkRiXG5WY4JDYMBBHNir3lLFAOXY0juCaG5UdpaHaSKeh8yR9QpnlpelHQnyzfRsfe3It1bmMInzA40tKmbdFg6o+WeSOFG8oM2dJ6IoTVW+YxKk3xhkPNEyg1yunV1odhcmFSvrVv17DaNxxEq2821sNmKVoZKVxENob9k6qXiWd2VRGqDJjAbkTyXmxItvdrH1aMXpFc1pWzskrObEGjcn8HwIXV9rZae6glM5acaa9MIh476Fe+j9EAW/hywa2dACjMCR7IYPlAcn2MojuEb6tEjmj3kETHDuXWzWrq2/pjivWxcYg2ifCnRsKMNmV4bpBc8ppsircWlv2pty1rngCcTRNfZFviT9XDlzpm09bYi09eA8Ma6ss16ZDwrbV8yn8bsYSycVibZ1wxfkRtOyVkCaQwe8lY94kSdCZDF0P7Fd3KWccsNnezNHsTOZJUXCNpOuFr9D+9vKLKPtVetL/3LB3NndNlHfVRLVysvr4UBEW1BW5ABMkAGyhmgWKRYzIsg2UDM/iZ0XMuia5MqpJyDcQzJQ6tbCutmltuQ5GDbtaFVObBe3qsMRkf88A9E0LnNpXjJ5HdymqbcuKU0filafLvjyg6FinCRR2xY1QPtzWYbggda4Eu54dV5dErjUKYKDsn1W2Y4M81o7dV553xN6NyrCUkbQtsbi3ZtlOut9FPBrD3RovVh+rTkkQ09G8rXPqob4sjzIeXOr4VyysPP9RuiyLgrrSkTZhtaDkbgVwSRjCONno0umOQ6tPNh3ZEWQXTodp00mdR608crxUqnssbOidZzhelzylRLnVdQK5f0tGpiLf9dvQ8dFbwppkWEiLrxTaF+JRe2WABdU+2Ihgt8mXx2OHReLi1NeZUeM+2cTO17RexPhJTzI5UXEWfKN93Rwi51lUdpdA6XTK1VjoXQ2UlusHRcZURY3Gg/n/OqyY1d9JulyF1q5QYqo7r1pMpZoQkMXw/Dl+NVTn1tOZPF4C53QaBL2/jr4GlWj1qR+VY8l6ekWCx4Z4VJejMzGNZ71mV+5YYsurzI+9XzHgse8Uq2kHXi6Iyga79H2eBJegpbT7SgIbexT+k99kQTYgfb0He2FbFhDzw9YaXv0MLJMzHbDzbBabYgeCCszCbQftOuKzkV3FMAACAASURBVG1fxu1hQ4sBu2n5kVOaB6djaA41onOqXXmZpf1WelV4u5xFT6Up9MKCukQ93LmzP7V7FS/nRMHbLMsRPlssOGU/0Xwog6HDxUJV8xgvdtSHvNdIulp+eC0fGNEmtAkZIANkoMAAxSLFYpE4M3k9iG5pyO8EKqwutIw2wp3zEqyk8ZhDfiQ31uWnTso4TI2NSB9ugksnLuq3JNExWDxQl2EVL9ZZ1XNiToXRodsgx5ZtQbLHrhzUHtJtDqHlU54f17QhiNimINpGG1AXrEO9uyBMlPh9jeiYTCC9P4LU0QR6TqhHVKhpyymq7Wgf0bxKXkSOlK/fU8PKAZ4UPjpBZLLAlWlEZHMQyTEfXLZ6tJ0rTIc1d4SR7rHC1uxBaFMI6QvlG2nINZleuc5T5y2Va9IGxhtgTYWLNsfRjiDQyq/my4SGsUR+OpulI6Js86+sf9JtBGOT04R1m7Po4yj9bEqG0V/Fu1oaVs2D9HjqpvqabfCOhJBY54Z/rF3xFsqdHKWY9w14i8S6Fp/qgUkgHLKjPuZGU2cDmiI2mOxO+OKq91JZ51Wy6Y52/1JXKZTkjpn66aFK3uWOprnNc5T/I0F0bVN30BTuOgSSdsUjJD13+o1dlOnKU1n0jDUou2Y2JBsQ3BJF31Qa2QH1HiU+IVQhdy2OWJ8HvjYPmjdE0DOVQkp3VqfMn293GsNTbUgOeZQdTiN7WtE9mS06o1SYPWifKtnwJnfe41CJ90pvE0W8t4WQGfcVbRAlxVz3VvWYGX14+dmWbEI4aYc5t8GT9Jq35Ta6EXYnwvta0JTz8kohLs/BLJrirUwBX1n7MmwPg3bTyiY9pZ3T7eg40Y6hE8UvjmQY4bDDLXdBlX/JADqns+jc5lb/j9fBmdvcSRHaF7IYOhdGoL0Onlg9mgZa0HU9g84RuUGX5oGW56SmlHptG1TrtWVXAgNTCUT0a4sln9JjrGuzWp71V6Pp6u/h58KgiLagLcgAGSADxQxQLFIsFonFWjcQ4apHy3o3bLrdQk0+LxK7m8rWQprk7pofRBEoOV9P2RUwN0CyNrngyHlkLJFmtK3X1gra0bI/BK9O1Io6D9ovxPPTG02+BsT2BBHM1KHOZ4PNZoL0hJksJpjlVEenBXafA3XyHD7tPDU5TfRCUPFaSdsoG6CcjKBRO0JBWOHubULLcCNCW2LoPdkER66swlWH1hNtSPerB73LXUhjR+NIbfHCG3bC6bXC3mCDvd4Km9sGZ1cIqa1eeBNuuHOCVp691jASQDBizQ8ulXzYXfAETKgfjiCsO7rDlg0iGi9eG6YMHnUb9EQOtilTIJW1k0ea89N5o0fbDR+rULcpiWxf8bqrxdhR1q0pG9/Io0QaEBzwwqOVsd6L1NUk2tptMNX50D5arzCpeIFbPfD3+RHZFkJyTwSpvSFE+jzw+C15gaJP15wOo0N/pqGt/LB5dbpyQfwX/m9C6nL5RknKpkKbnRBWK1xBJ5p2SkGkTnOWx5I0DfrRuimI9IXCOXxKHXmbIHfb1NYfDt1IofdMFNEOR5FgUsLaHGgei6L7chqD11LoOR5WRJh2FIJWRslQ9GgS/fIcxnPyHMYGJK5mi3bfrbThTd4DljveQotPuwqTBe6+IBLr6pXpzdr38ipsLsTOp9CxxZ2fEqv/Xfuses3jyrmbJnc9wqNN8NQVXswIlwepa2l0jHrhcuSE0iu0L5muEXssJ5wMKz3Vbdfk+sI09EdoaOU0ZSIY0tWrVr/yOjydLDrqwhJqRNuJdgzcyGB4Ko2+8zG0DbqK+kMlTYcTgZ0x9Mj6l+cmHg4hECreDEe243DJESlankqvRtMtvY//Fw+QaA/agwyQATLwa1AsUiy+NrEobA409dYph5XLxibfpNuTfkRH3HDodv3TGqJy8PyJDAbPS9FX8M4pB7nrj4YwWVCfbUSovfjAanM8hN6JVkQ6cgeky7WJnhLhZLPD29eMxHgMHWfalB1f+y+nMHAtjcEbWQzdSCCm85QItxstnarYU8tghk2XN/U7E+o3x9C1348GnddSGYDHC/cqYS1WeDqbENvdiuzJNvRcTKFfpj2VwdCHcoCaRDyhTj0UNhsaOjxw6wbcmq2Wc5WblUS3udVjJYQZ7l6fItTrRqKIxtXBvPRe+ga9qKsy3VCfnhQFwWOpol0/9b/rP9sijYjtDCFxKIm+0TqYXDY4S+wnwyvrZK+l0HWucLSK9Bx5R+NIjTahMWKveuyFwtmGINp2hZGdaCs6RF4KTuWweUtBtOjzp/8s6hrQdtCXPx5D+801EEFYrqs1mWFPBpDa3ZB/ISDDyB17wwfjiGcK3kLt3tV+lTa2hhoQ3uxHY1N1G8kXPGm5AdJkFPGhujJBqdjB7EJ4dyN8ETeakoUdb/U2UDyR2To4NO/bK7Qvfbz8zAEdGSADZIAMkIHXwwDFIsXiaxOLJqcl70GRYqQ+40NTS/Hb8tKGbfLY4NBNTZW/u/paEI7IDVdMsIfq0ZCoy2+eob9filFnthH+sA0WnSdTH4afX70jEeZ6RPaXe4ar2dbcGkB2vAn19sILgEphzV43wrujaO8vX/NZKbz+OykKG0ZjSI+oa2D1v/Fz5To3e13wtXvQ0Lx4m9TsJ714rdv98OjOB9R+47WyjWkX2oUMkAEyQAbWOgMUixSLr00srvXGwfyzgycDZIAMkAEyQAbIABl4nxmgWKRYpFhcIQPvc8fBsvPBSQbIABkgA2SADJCBd58BisUVCgVzIEORtULbsWN59zsW1jHrmAyQATJABsgAGSADa58BisUVCh6KxbUPPzsw1iEZIANkgAyQATJABsgAGajOAMUixSI9pCtkgB1L9Y6FtqFtyAAZIANkgAyQATKw9hmgWFyhUKBnce3Dzw6MdUgGyAAZIANkgAyQATJABqozQLFIsUjP4goZYMdSvWOhbWgbMkAGyAAZIANkgAysfQYoFlcoFOhZXPvwswNjHZIBMkAGyAAZIANkgAyQgeoMUCxSLNKzuEIG2LFU71hoG9qGDJABMkAGyAAZIANrnwGKxRUKBXoW1z787MBYh2SADJABMkAGyAAZIANkoDoDFIsUi/QsrpABdizVOxbahrYhA2SADJABMkAGyMDaZ4BicYVCgZ7FtQ8/OzDWIRkgA2SADJABMkAGyAAZqM4AxSLFYk09i8LVgPS1LLo3OmESoqZxsyFXb8i0DW1DBsgAGSADZIAMkAEyUGsGKBYpFmsm6IQwwb0tieGrYfjsFIq1bqyMjw8AMkAGyAAZIANkgAyQgTfJAMUixWLtxKLHh46pDDoG7TWL8002BqbFzpcMkAEyQAbIABkgA2SADBQY+JXJZFqVA3tHyLEq86XB8z6sWRTuRnRMZ5BILO0lFMIM3652DE+G4LYsHV6zI6+Fxkhb0BZkgAyQATJABsgAGSADq4kBehbpWawqykUkiP7pBFp8S4s/k9+P7g/TSHVaq8a3msBnXtgRkwEyQAbIABkgA2SADJCBxRmgWKRYLBJ3thY36lyqOBTJFgxdCcFjEhAmM5zROrhs5cJRCCv8BzMYPt8Ml7n8dzbCxRsh7UP7kAEyQAbIABkgA2SADKxGBigWKRbzYlGYXYhfymL4RjvSG+phS7agf5cHdelmpC6kMTydQjRcLgZN4SD6plNoS5rzca1G2JkndsJkgAyQATJABsgAGSADZMA4AxSLFIt5gad4D+M+RHfH0DWZQu9kO/omk+i71Ibs3gCCSQdsJZ5DIWwIHc9g6EQjHDwqI29LdkLGOyHairYiA2SADJABMkAGyMDqZIBikWKxosCxhv1IH0ui+3Qz6itMPdUatFl6H6fbEYuszo2StHzyujo7INYL64UMkAEyQAbIABkgA6uXAYrFNSAWm/78zzH4z/45ht7Q3zqPA6e2ezFe999h33o/znT8Guv+m39Wlv7gP/9z7FvfhPN9poq/v6n8Mp03xwZtTVuTATJABsgAGSAD7wMD2f/2X8DKWXOgWFzlYnHyv/yv8f/96j8C+EcbkAEyQAbIABkgA2SADJCBN8bAv/mP/wz+P//zirPw3hdvKMXiKhaL0qNIoUihzBcFZIAMkAEyQAbIABkgA2+Hgbv/6X9GsbgalbEj5FjVFWMOZF57/uTUU3YMb6djoN1pdzJABsgAGSADZIAMkAHJwGrUSm8qT/QsrmLPopwPzk6KnRQZIANkgAyQATJABsgAGXh7DLwpYbYa06FYXINi8eV/8k/xtv7+5s/+Kf71f/Vf4O/+xX+Ov/0n/+St5eNtlZ/pvj32aHvangyQATJABsgAGXidDFQS5C//7J/Qs7gaVSynof5a2X20FFrZQFZjfTFPq3fLY9YN64YMkAEyQAbIABkgA0szUGlW3/s+9qZncY15Ft93YNnRLd3R0Ua0ERkgA2SADJABMkAGls8AxWK5zSgWKRbpqVwhA+yEyzsU2oQ2IQNkgAyQATJABtYqAxSL5exSLK5QKLyJ3VAJbDmwa7XzYb5Zl2SADJABMkAGyAAZWN0McOxdXj8UixSL9CyukAF2+OUdCm1Cm5ABMkAGyAAZIANrlQGKxXJ2KRZXKBToWSyHaa12DMw365IMkAEyQAbIABkgA2SAYrGcAYpFikV6FlfIAB8q5R0KbUKbkAEyQAbIABkgA2uVAYrFcnYpFlcoFOhZLIdprXYMzDfrkgyQATJABsgAGSADZIBisZwBikWKRXoWV8gAHyrlHQptQpuQATJABsgAGSADa5UBisVydikWVygU6Fksh2mtdgzMN+uSDJABMkAGyAAZIANkgGKxnAGKRYpFehZXyAAfKuUdCm1Cm5ABMkAGyAAZIANrlQGKxXJ2KRZXKBToWSyHaa12DMw365IMkAEysDwGhM2EnqQJTiH4wnGF4wgytzzmaK/3217CZUZ/1ATra+5zKBbLOaNYXGEnT7FYDhM78tVhEyEssJhN78QATggTzBbLO1EWI+3jfSuvEZswzOroV7R6kIy2r7fhxbcu/LuPrWh8zQM3Ld1aX9+lfrLWtjESH+23utqlkTpb62FE0Ia/+t6J/+UjG7Y3v76XVBSL5WxTLFIsvtJAPBKy4GTMhLo1OmDQOk9z51XMzi9g7rcTiL2BssSOzWPu/llEdGmJziuYnf8G24LlnaC/7xB2bMos+RZfiGasn3mOuScPMBopjic0/ghf/e4v839zjz9AWpe+ZovXfRXCjuDIBCa+/B6zTxeU/MzNf4VNjcX5leGSxx7j7vwfcKLf+UqclpZJJM7i0/ln2J0oTlOGMyXO4qZk4cl1ZAzaZ7H4StOu9v/rLG+1NGv1vXCM4sK8Wpd6xrTPczf3w5uzpXfsHuaefohOc7ntXyU/jT0HsGNrx6J9kSO8CXuufo2PHvwRsw+e4IPJA4i738yLlZVwtVJ7mLpkX1Koj7lPD+Ttv9I45X1CCHTscuB/+50T83stiDpqW4evkrfSe0XfDdyb/wqbS/oVtRzV+8nSeLT/F4tPC7PU1Wg/vlQ82u8reW7VohyLPWe0vL1P18jB7zD34M2MHVZqV1dsBw5OP8TNb3/G7NePcPHsLrTWF/q+1TI+WKx8sv/xtFgw84kT/+c3DhwMFPK/2H3L/Y1ikWKxZgNOehZVmNYN2PFyiwXNBgfVy220byp86+GnmPvmJ3xeRazVOh/LFYudE3/C3K2lB3xCNGHo2g+48/A+NoWLB3L2QAbpzj7lb+j8E7wtsejouoJbz57hzO5NyObyk+6Mw20qzq8QHvRd+gF3HtzD1mhtvYv29TcxN/8FhlylaVqRPf8j7j/4EV9U+L0aB9Xiqxa+0vevs7yV0qvld8IeQEyry57TuDq/gBsnNuR5S0W8+b43ffYnzM0eR6CGfYYQTgzdWMDc9VHYq8RradmHK4/+hJkrxzE8OIye0Ulce7SAL69vX1Rg1sJOQqyMq5Wmbfa15Wy/A8fnFnBnYhimKnZZThqWqA0vf+/ET9vNr30q2HLyVSnsYqJosX6yUlzyu8Xiq3ZP6fdG+/HS+6r9v5LnVi3KsRL7VSvDu/D9aheLwjeKiUcLuD1zDusGh9G95TQmvn6B2emd8Oaeu6tlfGCEBzkF/tpnLvz9J1aEa9CvlaZJsUixmB+wlMKx3P8pFt8dsSiEH1s+XcDt0xdw4skLTGzx1IyTaly9LrFYLb3S7/27H7wVsSi9Z71X/oS5mZ2vfYBeWmb9/y3jjyq+CRZ1W3D+yQtcPDaBG/MPMVrBy6uPR/tcLT7t9/fpKoKH8OH8cxzqLBbi0gZCeLHxowXcu7wJlho+5IVow577C7h5NF2x7SrcXf4Z9z7Znx8cyfzEjj57I+1gpVy9KjfCNIDj3y3gxp5wRbssJ375Vn/7pAv/7q4N6ZIXO8uJ502FrYUo0ue1FvHVUiyu9LlVi3Lo7cLPv4YiFt/QrKSV2FuZzfHdx+jRzQSwD0xjdv4BtvjL++m3NT5YTtlsWRv+7nsnPq4wO2g58VQKS7FIsfjKD0wNrLUmFoXPip/GbTjXYsaNLTa82GvHj1utOOY3wawbtMkBQUOTBR9usuEv9tqxsMuG2S4zIpZChyIXGT8ct+NfHfhN2d/LcTtmQoWwHV02vByzol2fRsCKhXEbjtUXwhnNX3uHDS93WbE5aMX9HXYs7LXhyToLBp0rn44gnNtw4ekLnBkJYdPHC7gzua5sICvX6dS378XRjx7h1qOfMTv3LSZPjyFc4pnS3jB2dpzAhS9/xJePvsfM1Dl0+Is9Y0bEomjcj2u6qWTalD55nZt/geN9Ovslz+O2Luzcg4tI6Gyucatdl3oYyPUogeEJTMz+DrNPX+D+dz/i44+vY33CtaI2ZLLYYXc4YXeksff+Am6d7M39L7+zw5wbfArhwOD1F/mpsrKsV3f4y9IUogMHHixg5vA6dB+fxUcPf8bsg29xfrwH9SXlFo5WDJz4HDO/fY7Zbx7h7I529E/+grmZXWWC1bvjHu4//RyDwTFcnP8J4+mCjTXbGYlPdF5WphSPBorvd2/+HHef3sE6n/q90fLKtEV9GhvPzmLm6+e4++wFvnzwGBPH18FXMnAX5ka07biKi7PzmH38HJ/OfoH9I5EyT1D67B8wd+sYshuv4Orcc3z57TNcv7gfrSVMG01Xs4+57wbuVp3+p9bbR0c2rqDeUhi89KLoRYMU6fp2of88980ltOVYEKZ+HHu8gA92BotYcob70dOXLGKmvH7L010Of9IuS3GVj+/gEDoO3caMMk32ES4c7C3Om8b9EuG0uhCN+/DB/AucHCzuf/K/i04clO1oPJa3i2z7PZd+wdxHe0rSNuOzhy78z0fN+bBaPNpV6ScTO3F45lt8Kqe7/fYxLl/Yj0RDef9cl9yDwzO5/vTBY1y5MI6Epzic1p/29JzFxbt/wJePfo8Pr51GxldcHvkyoHlkAhe//AGzj3/A1JVxREeulU1DFQb7SaPxyXIvVY5l9ePChLr2fTj60Xf4/Ls/YfbBQ1w4tgXN9uJ+RKZr7Lm1tF2EpR/Hvl3AzWOZIu+zMGUx/vUCbh5J5evbuP2MPT+MPlfVaf7fYdfAJhy+Kfu1n3Dz9kcYTXuL81zj55bG9VJXhdOvL6AzewITX/6kcnr9DLKNpZwar9+luJJ5Mto+2k78gLkvTyCoezYKVxSZoWGE3eVsLTU+kGkbyZ/RcYTRcPp6ECYL7n7nwt/sr94feUJW/H6vHS+2WdGlG8Pq46n0mWKRYjHf6VUCZDnfrU2xaMcPW224lDBjfdiMS5tteLnXit26waGp3owH++z4ab0Fu8JmbE5Y8NUuO/44aIZHG3hZTOgKmbEuZMbZjXa83GHFztz/8ruk7u3V8sTi0vlTxaINv11nwb6Imr8Hu+34q82WFU9rM/dcw2xucKtM63kwgbiuU5VcmAL7cPXJC9y8cQojcgrb1nO4/GABX1wbzdtFhlM770e4cm0SG4ZG0L31LC4+WMC9W4fh1w3qDYlFewiJvmF09g1j58wvmLt7DcO5/zv7hhBuKHTywtWCttw0wHUTz/DKYjFwADee/oKZif3o7elDum8bxqZ+j7lvriFtK6RrtM20nfyh+qD+6UfosapxykFaY1KdKpveMoVP53/Gke7iAaRMU9RLMbeAmVsf48S+UXT1b8WOa89wf/4HHMgUHtDSk9V7+QfMPfwah8Y2o3NgO3ZNfYEPZxfw+emeov5AiCjGvlzA7OVNsJvW4fSzBZwetpWEMRaf8O3F1fk/4VhvIe/CFMPOLxfw2dn+vHAzXF7RhJGp57j35TQ2Dw0gle1Dz+5P8en8n3BmqLCeU4h6pM58h/sPv8IBWd7+bdjxwTPcf/YNtod1ecl5+O7fe4ALE4cx2D+CgT0f45NnC/j4SHt+ACanmxlJV89B086vMPfdDWR0vGu/i7pcvd3+ZNn1tnt6Vqm3z0515+ukLtytTrccncHt+Z9wZkeOHdkWkkHYtD7LP47r8z/jaE/BBlqe9NdKvFRK1yh/Mm5DXGk83/wIx/dsQ1f/Fmy/+hT357/HeErHs8FwWplEh3xp8RhjJeuX87+7ZX28wOlhe96mQrRgxxcL+OJsX/47pRxmC777vQvPt1e3oSmwB5cfv8Ct6bPKdLeuTcdx/v4L3Pn0IAI6HkRgL64+foFPrp/AUL+cFncKk79dwJczu+HT9b2F/nRC6U97tl7A1W8WcPfjvUXhLPHTmHn2Ajevn8LQwAh6x67gzCff4E7JSwuj/aTh+AyUQyyjHzcF9+ODJy/w6dQZjAyO5J8zn02uK3uxZeS5ZaQccqDeceEPmJs7h1ad7dU1tvPY01aob6P2EwafH0afq6pY/AGf3J7F/m0b0Tm4E/s//hFzj2cxoluTajRdjf9aXRVOv36Aix9MYP1Qod7ufXqg6LlvtH5r3T6Sp37E3JfHi8TiYmVfSiwazZ/R+jAaTp9n+aLh6qwL/+u5Qv+o/11+9sdt+MtxO17utmJ9boxRGqbS/xSLFItFD79KkBj9bq2KxTvxwkBf2C24v9+OuUThYZCUnrvdVgzp3sK4W634q3Erdld4u7nUmsXlisWl8qeIxXEr9ujy0piw4uW4DTtXIGJkfUePPMPc1xcQFQLSK3KnwvTD4P6HmHt4AxldGs4Nn+Le/F2s9xRsqjw0nn2Jdbq3dc71N8vecBsRi3oWlzN9SS5Uf1WxaOqdwr2SKSrC7oU/HELdMjpdrQz1wTRiyQxiG67j1vxPOLk1o/4vv4sH4BAFG2r3mHqv4+78A2wr8c7J30XyHG7N/4JLo80FYePdo6yV008jFqEjmJ5/jtPD9fm2LwIHcWN+AVd2NOW/k3Ga05O4Pf8HHOm2QfP0XB1rLgpjND4henHk0QI+GAvk77f3XscXzx5U3MBIpr9oeet3YHJ+AefWO/LxCeFCY7wdIa9uoB84jCllQ6C6QjjPLlyeX8D5DXpRqXr47kyNwZ2zvVwzuX5mAXPTO+HSvjOYrlZn8po59xxznx1CU4U6XXa9DenqTZneuoDL24vrTaZpGZopa4v6PKkbvlRmSR8uX79LpGu0HDJuQ1wpHq9fMLm1UDbh3qnU28QmnQ0MhtPK5Bn9EnPPPkWfrr/UfpNX0X4Bn80/xc5oof0J8zBOPFlAGfsOK373vQs/bC08L/Rxyc/Bfd8o/WRWl56l6wq+mH+E7S2FNBzJndhzeBRhXV/i3Hgb9+dnMaKbcVKpP1XKND+L4bpCfJFDT8r65+Y9DyA3zqq0wY3M62L9pNH4jJZDs9NS/Xj44GO1HDr7udbfxN1nsxjRPVNkfEaeW0bLYem9jtn5p9ilGx9EDn2Hua8nENWJfK0cS9nP6PPD6HNVFYsvMLG5sEREyBcdzxZwcVthPbTRdPXlqMVnldPiOnKul+ODYv6M1q9Rroy2j1qLRaP5M1ofRsPp60qKxcnPXPiHyepiUc6Uq3ea0KTrZ/RxVPtMsUixmB9AVYPE6PdrVSxO6N/CCROObLDhC92bw5F+dcOasNUEp/bns+D7cRsu5KbO6W1Ua7G4VP5Uz6IFnbqBqGgun9aqz+Nin4UIYvSzBdy9uF6Zeqp5DCZL1i1mz/+MuduHiraJF/Ez+GT+d9ijmzOvdN4PJoumgKrhfo+9ycLgZrWLReHfhw+eyjf/p7F+uA/RkBfWKoOGxexb+pt5YFod1Ou8oqVhtP8bx+Yw93QaHRV2zXRsuIW5EqGuTrn7BSf6Cw8P97ZZzD37BL06ka+uqfsjDncWBr1yg5SeS88x99tJJCwCQoSxY7Z4CpbMl/H4mrD55gJmz/YrfY700G346BfMXtpYURjLuBcrr3BuwrknC/hs5hyG+zrQ0lRfNH1cs5l3x13MPf0I3bqHo+rllN4ja77/0zx8FzbqRKVwovPUA9w4MVzwfBpMV0tfiEZs+mQBdyfXV8xfretNSzew9xvMPbqClK5f0H6TV++O+1VZ0oczWr9Gy2GUKzW+YqGk1dsp3RRSo+G0MinTz+aKd13WfpNX56bPMDd/CwO62SCi+QBuVPDoCwNiUeknbx0s8vrJQZ3ZYoapQv8hp5LZlOnpTtj7PijbDbpif9p5FV/OfwP9FO+OC3+BuZJ0TX03cL9ksK4v+2JicbnxLVUOLd2lxGL2ws+Yu3kIfs0m8tp2Bh+X7Nxs9LlltBzCOoQTjxbw0cG2XH8VU2ZZfHqiI/8yTiuDdl3MfkafH0afq6pYLH6GChHD1g8f4Nz21kK/9pqeW1qZq11VTotnJGnP/T1thee+0frV0lmKK6Pto9Zi0Wj+jHJgNJyWrrwaEYv68Mv5TLFIsZjvVJYDTqWwa1Ms2jBRQfDpyyfFX7W1iJM6oandU1uxuHT+tDWLHbpBoaiwBlLL31JXUbcdE8+kl6lZOc/PbFGnCt7JiUft/koPeRE7hU/mv8c+nQjUHhr64zcqhVv1LMDgLAAAIABJREFUYlFY4O08hOMzj/BF7niLuw++wpGNsbyQ0GyznKsyvWWRQb0+rsV2zVSnC5eIcmXKXbEHQ05/nbtzCiEdL6aea7gz/9uihf3KW+qnC/jkSDrHgeplu1uyi6TR+GQ50mefY+7jvYrnzqy8WPgOO2PV11csVl45VczXcxwnP36s1Idcszp7/3Ps6vQV9Wmp03Kn0RNFU7JFehJfzD/BWGth0CLapGd2vuhFh9722mej6RbCd+HQwwV8uD9alC/t91evt6+xualQDhmvHDR0TvwFFjseInVG2uXYkrs2V6/f4nSNlsMoV0p8JRtkqPVWPIXUaDjVLnUY+XABc1M7qr6gULxTpdMPu6QYK/fCSrE4v4RnsVI/qdW9/mryDWDX9Uf44knx+uS5kt2oK/anFY4YqpTuUhu5LCZ2jMZntBxa2SvFq/0mr/J3/bpb7fNcyXPmlZ5bFY4Ukbv1dk48x9yXJ5W+UvWw/4D9qcILNX0+5efF7Cf7DSPPj0r2qPS8VMWisf7KSLqlZXnV/ytyWmF8YLR+jXJVMd0K7aPWYtFo/oxyYDScvp5kv3/xcxf+fqLwclj/+6t8plikWKw4gFkJVO+qWFQ8i9ssGGk0oaPoz4yAzluh2WwpsZjptOPlmKXojb8IWPCX4zYc0U030ja4WUrM1losWnqncEe3MUz+4VziHTT6BlTtvEtEjCIUfg/9G8bWI0/L1oiIriu4M/8AWyscNlvpoarVQel1sYe4FnapNQlaOHkVZicaIr3YMPkd7j/7Cpsr7J6mD1/ts+zcO+SbcwNnvgnRgA1Vds0Uwob+q3Kjk91F63g8o3dUr1puCrUQucHytW1FArdRrql7cgNZnafDv/u3lQdpul1blxOftIGyA52yyYr0Wv4Bd6Z2FG0YorfTYuXVh5OfhcUJb3Q9Dnz2C+Z0XiNtGun9K5uLNmiq3zqLuacfF3lXVQ9V+dEhpWnp/6+WblEY905cmn+BM0PFaz2VfL+GelPjbca2W9WPh8jb5fKmIm+npbkLfcMd8OU810br1yh/Mm/GuLJh4APJc/GGS6X1JtM1Ek6rDyFS2Du3gFsnOqo+9zonfsHcZ4fzMyaEMCN29GlFL6wwmfHgdy4s7Kn+wqNSP6nlR7vK+hi6/jPu3/8Im/u7kZBT0eXfjpu4s0KxaNSDpuVBXhfrJ43Et5xyaOku1Y8rnqfPLyCr2SR/bYdP5/01+twyUg4tb9b+KczOP8KOsIDyfJCbpOn6SC2cdl3MfloYeV3s+VGJl0ozdoyKRaPp6sPV4rMm2vR7HWieRf2MIiP1uxyutHSLXk5XEIvqBjfqiwCtvMIVQ3ZkHSIl05vl74uND5aTPy0teV2MgxWFE2bMzLnwd6eq90f6eJfzmWKRYrHqQ3M5IMmw76pYVNYsSnGne0gIuwndfhOadesYNXsNy2mrW6tvLuOV6wn3WbFDNw0w1G7Dy302bNKnkdut9U2LxcTx32Hu0UcYbo0hFFH/Ijs+xd35b7Fdt6uruhbnOjI6wayuSbhTtD5R6bwNrFlUprs9vYUB3eZCvrH7mHv2cX6zF83G8qo8VEumWel/13828hBX0npyo+qh8/ZAFulMa37tmoxfhI9hZv4POJAt9uzI30yBrTj60VeYPDFctOGPPl9yKuaWm9UH9cVhsxiXuzTmpkUV/6ZuRFO6QU1SehF1O77Jg6O33lrA/Q+25sWiMAWx9eYLzH1+BP6ct1GY2rHv/gLuzhxGLMeAZKHv3HzRpgBG49Pyqq6Tm8VIfD+uPf09xtOFaaBaGO0qxGLl9aKlawDx5sJ6RXlf4sTvMXfvDFq0cogWbP+8+FgK+WAfnvoT7k2NFQlrZS3TEodIy81ejKSrlUFetTVwY7o1cNrv2kYvtaq3Qrw9OPxoAVN7C9PRtN+UPGl2ubqlwIGccjvxY4lQMshLbiOkJcthmCt1yp9+91Fp+5EP/4T7M7t1a0qNhdPKLiwblE2aStfmar/La+LE95h7+gB7OgNwOr0ID5/Fxa9+qeiFlULy8qwL/3DVUtQv6ONT1qB9O4UO3Zo7bc2iFCEyrBAZpW1/fLi96HnsWPcJ7q1QLBpdm6fP62L9pJH4llMOLd2l+nFlTdv9c2jVPxvrI2jLtsOrs6nR55aRcmh5E7YRnHq8gOu7u7D5kwXIjaT0O6Vr4bTrYvYz+vww+lw1KhaNpquVoVZX9blvcM3iEvW7HK6MikXlxeWTj9Gre+Fg7/+w6tEZi40PlpM/o/VhNJy+voTbip9+v/gaamEyoVNuhBg2FW00pI+n0meKRYrFoodTJUiMfveuikW5G+o3++x4OmjBdrnDacSCq5vt+JsxCzIV1o6FU6rwuxRVd0ddFzIVbVogHGZ8sceOP260YHfYjC1JKx7tsePHPjOcuqmBb8OzKHf9k4Pru1c25ndNlPUv6rdjUi6c39qQ58Ukd72Tu6FeP4mhAbkbqrrL6RfXtuUHc/JetfP+Fleuy91Q5S5/2m6oB4s6K9GwDROP5K6BZzAi4xudxAcPF3B7YrjILhqP/l1f4/6Tr7B/w4iyO2pnXxf8uo6/LtKTPwBd2Q310afYoh2Snmopm4ZmTk3g9vwPuLBvEzJauERzfjBt7byKz+Z/xMUjO9DZ1YdM7yjGrs/j/uNbGKjwJlJuJiG9snPzs0XiWcu/YlfRg8PfLuDG7pa8XYt+d4XzO7qme8/gg/kFXD+2LleubgRynmhhXo/TT4s3OhHCrWzOoveqyZ1GOyf+gLmnj3Fi5yZ09o9ibPI2PpxbwL1LG/IDIWv3B/hi/gcc7ixsFCPzpTwwH13NH/tiND6tTOqW+fO4enNeOd9Pv8ujYg+j5RVx7Lq7gLuzN7C+vw/Jjn707vgAU4//hOu7o/k1RXIqWebcj5h7+gjHx2R5t2LbhQeYffoAY4mC0JThVM9ssSdLy7d2FQbT1cLLq3PT7bI1cNrvta63fLySq0cL+Oz6YXTkWG4P6zbCEBakzvyAuadPcHr3VnT2bcbm03P44ulj7M/qNo8xyIvRchjmyrweZ54uYObLWVzYP4rO/i3YNvENZufncbhLlz+D4fJ2MfUpmyx9NnUM3V3aLrGFdiTDmfybcPKuOvVx7tlzfHh2L/Z8soB7VzYWeae1OON7HPjH3zlwrsLsByW+wF5c+U63G+rGY8puqHdvHcrvhip37O2/+hxz39zH/tFN6Ohdh8GdV3Dh5ndV1ixOYCnPiSVxBh89k2us1f5Z7oZ6/vOnZRuMGO0njcS3nHJo9luqH1d3y/wLTE8exkDfEDqH9+DAzZ9w//45RPMzJow/t4yUQ8ub7N96Lv0R9z/7Gtef/YiD2fLpfUbtZ/T5YfS5alQsGk03X2avBT+O2/E3WyxLTlHX7ql0VZ77D5/ig+sTWK/bLf3erUNFz31j9Vv79iF82zHxaAG3Z84puxR3bzqJia9eYHZ6J7y6cZhWtsXGB8vh3mh9GA2n5U9uXJM54MA/zjtwWLfBoPa7dhVeC34Yt+OvN5orllMLV3qlWKRYrDhILQXFyP/vqljUzlmc2WzDn/ap5yw+GLRgyFV57YKwmnBg2Ibne9W1jnJXUv35idKW9V4Lrm204Q977fhlzIYvOs0Il3gp34pYlNvQPyveYU3mVzvs+M6lDfkBk5xC6VbOv3qE2/Kcxa8WOWfxqwvo7NTOW/qh4jmLMr76tj2FcxtlfKd2IOQs99opeXIksenyA9x+rK7xKV3bU20thCLg7pdvcCE7/PjOjzD12z/iXm4a7tytA/kOVW7M0br1Ki7d+QGzTxdw77sf8cmtj7C9oykvTvTtxNp2DNe++Rm3Z/YhqHsrrg8jlF05f8HJgfJBiAyn7mi5UHk6aG56lGKL3KHvh3WHvmtvO7UNGrR0zb4h7Jv5Dp8//hm3Z29jrHsLDj8snCsn7TBw7Wfc/+JY0To/eb915GNV+Oje6C8Vn5aukk9TH44+WsDc/E843lfYiVQLY7S8MrwjsQcnbj5V1njdf/oct768g6NjnXCX2Fq42rD+3F3MPHiOOw+fYWrqItYlPEV1JkSrsnmF/ggKLU+lV6PpavdVml6t/aZuLPQctag3LU55letdgpumcePBz7ifY7mUA+GIYfj0rHLW5p1v5zE9cxUbUt78CwMtPiP1a6Qcy+FKXR/2Ew4MdmFs+glmv3uOW7O3sWewJf/yRimnsrPv0uG0ssg+pmnosnKGZr6N69pRPpzZAXcgAr/HAZN2juOBRMVnpXz599mcC38/a8NGb/kzQaZZl9ytnJ/4qewn5fmJEwfR5i2eKiYaurD90le4+fBn3Hn0O1y/cgiJ/gl8tkLPohQ6gXWTuCj7q8c/Yub6cbRtuFEmFo32k0bjM1qOvK2X6McV+6X24/gnsq3Lcxaf4urkcWSaCn2msgmb4eeWMbto+bMPTivLMua+uYr2kme0DGPcfsaeH7K8Rp6rRsXicp9byiyncTu+iJazrNnEyFXz8PX2yvNAf8KdRz9g+kb5+cpG6lemZ5QrLd2lXqYo6SZ24pA8/1S2y68f4eLZ3Witr1zuJccHBtuv0fowGk6xjRCIDNnwt/Mu/Mv95vwYrVI9+ZM2yLO/b1c5OqjSPfI7ikWKxYoPwGrALPb9WhOLi5WFv5U3jJXaROm8SzaqWGlc79p9puxFfFFh44x3rZwsT+3a0/tgS3PvFO7Of4VNFTYQ05ffaDj9Pcv9rB7X8SecHCz2suvjsQQseHDPhX/8zolne81F05v14fiZ7WA1MyBfjI+tU8/gG6gwa2o15/19zZtwWzA948S//d6Jvzptyc9WqGQPWb9bh+14uaf4KLhKYUu/o1gs77t+VWqk1fK/I1SYNrVa8qTPB8ViOUx6+7yvnyu96XtfbSHL7Qx2qNNI+8Zw4NZz3PlkX8Xz995nG7Hs73df0rTra8w9mSracKkSE0bDVbq32ndmb1t++nq6ZyNGrz7D/d9eQ0Y3xb3SvdLDOLrbju/PWfOb41QKx+/eb7ZXc/3LDZtm9trx+05z0cyL1Zzn9z1v8pi0B1M2nO0wwV5h+qzePtKbenWXHT91m8pmkOjDVfpMsVjeb1Es/rrcKJXgKf2OYnFldiu147v2P8VigQs5PbDn0i+QxzzcffgMH1w8jLaGytNe3jUOWJ4CB7TF4rbInHuOuc+P5jdcqmYvo+Gq3V/pe7nrobYD9L3HP2BmehL94dX9orZSOfjd4ozRPuX2EY2W/7+9c4uNKsnTfD+stNKOdrVa7Wpfdp92pZFi8jpOGyiBMQbLgDG+YXOxZTDmZjC+YINdGDBdXLqAAoqruRgDBuMsylAGjKuKommmCvd0Nz2a2dmH7ZFmd6Tu3Rn1atXzMPP+rSLTkRkZeU7myeQYO/H3cBRxIv5xOf/4ncjznTjnJH7aE8DHBdavftBnyT7LJZ/IVciJngCOO/hPZ/O4KBaTx55ikWLRtUdzzROO+8knHH1Cn5ABMkAGyAAZIANkYG4yQLGYPC4UixSLFItZMsCJPnlCoU/oEzJABsgAGSADZCBXGaBYTGaXYjFLocDHUJNhytWJgf3mWJIBMkAGyAAZIANkgAxQLCYzQLFIsciVxSwZ4I9K8oRCn9AnZIAMkAEyQAbIQK4yQLGYzC7F4hwWCgQ2GdhcnXzYb44lGSADZIAMkAEyQAbmNgO89k4eH4pFikWuLM5hBvijkjxp0Sf0CRkgA2SADJABMjATDFAsJnNFsTiHhQKBTQZ2JiYG1kk/kwEyQAbIABkgA2SADPDaO5kBikWKRa4szmEG+MOVPGnRJ/QJGSADZIAMkAEyMBMMUCwmc0WxOIeFAoFNBnYmJgbWST+TATJABsgAGSADZIAM8No7mQGKRYpFrizOYQb4w5U8adEn9AkZIANkgAyQATIwEwxQLCZzRbHoklAQvhCER7gqvAhsMrAzMTGwTvqZDJABMkAGyAAZIANkgNfeyQxQLLokFn29f0Bo8PfIO/4QvqI8V0QjgU0GlhM5fUIGyAAZIANkgAyQATIwEwzw2juZK4pFl8Sip3ALvFUnETj7jwiduQKPePdVRgKbDOxMTAysk34mA2SADJABMkAGyAAZ4LV3MgMUiy6JRTXBeJp+gdCtb+HzUiwqnzBMPvHoE/qEDJABMkAGyAAZIANziwGKxeTx+JHH43HlkUm3Yc9b4c6jnG73K119nuZfIzT4HF4X3l8ksMnApvM/8+kzMkAGyAAZIANkgAyQgWwY4LV3MjdcWXR7ZXH3bxAaeAgvH0Odkzchspk4WCZ54qBP6BMyQAbIABkgA2TgQ2OAYjGZaYpFl8Wid+/fInRxmGLRZb9+aJMRjyd5MqJP6BMyQAbIABkgA2RgNhmgWEzmj2LRZVEj1j1HaPCv4C8rgydYAE8w+7/UILDJwM7mBMK2OR5kgAyQATJABsgAGfhwGeC1d/LYUiy6LRbFYvja/hqhoX9C/u1/Rmjod/Cvyu5jN1bA4kf/AjKdG31ABsgAGSADZIAMkAEyQAbcY+DKf/iPkNfa+vb2j/7NvH61imLRbbG4cgh5g3+HQHM3vGVN8K6qhyforljUAWY88YSmP+gPMkAGyAAZIANkgAyQAbcYoFh0WSy5tTSfq19D9e75G4Qu35+xdxbdAp/1cBIlA2SADJABMkAGyAAZIAOpGaBYpFh0dWk5IhavjLoiFtf9l/+asAzOkzn1yUz/0D9kgAyQATJABsgAGSADbjLw6l//W1e1glsLa++rHj6G6rJY9mz/S4QGn8Hnwl9n+IXA3/7Lf0XBaDw77uYEwLr4g0IGyAAZIANkgAyQATJgx8D+//SfKRbflzLNpJ1cfQzVs+XnCA19B583u/cUTR8V/fEfY+Tf/Xv86o/+DeQyODf6gAyQATJABsgAGSADZIAMzCwDckVRCkWPywtL5rX+XN/nyqJLAAhfATyLGuD/5PcIXRqGx4WVxbkOD/uX/Hlh+oQ+IQNkgAyQATJABsgAGfhQGKBYdEks+nr/EP2rjKt/gUDF0nm9XP2hnBw8Dk70ZIAMkAEyQAbIABkgA/OZAYpFl8Sip7AR3mWr4fF7KBRd8ul8PjF57PxhIgNkgAyQATJABsgAGZhtBigWKWwobskAGSADZIAMkAEyQAbIABkgA0kMUCwSiiQoZvsOBtvnXTQyQAbIABkgA2SADJABMjD7DFAsUixSLJIBMkAGyAAZIANkgAyQATJABpIYoFgkFElQ8C7O7N/F4RhwDMgAGSADZIAMkAEyQAZmmwGKRYpFikUyQAbIABkgA2SADJABMkAGyEASAxSLhCIJitm+g8H2eReNDJABMkAGyAAZIANkgAzMPgMUixSLFItkgAyQATJABsgAGSADZIAMkIEkBigWCUUSFLyLM/t3cTgGHAMyQAbIABkgA2SADJCB2WaAYpFikWKRDJABMkAGyAAZIANkgAyQATKQxADFIqFIgmK272Cwfd5FIwNkgAyQATJABsgAGSADs88AxSLF4pwWi8IXgvCIOd1HTmSzP5FxDDgGZIAMkAEyQAbIABlwnwGKxVkUi0II+CmEkoSgEAXwNDxC8OL/Rd7Q7+BfRbHIyc/9yY8+pU/JABkgA2SADJABMpCaAYpFl8WiEB5sWe/HZGcQv+oJ4te9f4qX6z0WgsiD7h0BvN0fwJFFMyuGymsCkX7IvsjtbbcfjSK5Tad2M31SiZJbyBv6fwh29MO7ugGeYHJfZ7oPrD/1xEH/0D9kgAyQATJABsgAGfjwGaBYdFks+lf48aYniBtrvWgsjm7rFySLHbmq2N4cxJ/vC6B3hsViaIEn1pf2hoCtWHRqN9MTg6fhB4SGXsLnS/bbTLfN+j/8SY9jzDEmA2SADJABMkAGyIAzBigWXRaLJVX2YmwuQLnSYf+c2s3EMYlNP0No6DV8XFFMWpGeCX+zTmeTJf1EP5EBMkAGyAAZIAPzjQGKRRfEonz0NOD3IOT3YO26qFhsnt6XaXnae4mi0IdX04+nRh4J7fRhvcUjoZW1Abzt9GPXcj9G24KY6g7gWbMPm0PJj7R+VOjDpR0BvOoO4k1nAF82+lCXZ70q51QEprITHi8udgbxZrMXeVrfhc+Lwe4gvq5N7mMmJ5aomUBo6C38C62PIZO6aMtJnQyQATJABsgAGSADZIAMZMcAxaIbYtHvw7AmANW7gSrU31kUfg82TD+e2tUoBWEqsRjAl80+7F/pxa5yH8b2BfGLXT4U6wJtgQ9j3UG82OZDe4kXO9b48KAjiKkdiXbqBEklApWNDFPZyUdoa+rk+5Z+tPjjgi5U6sfPewL45B0fqxWVjxEa+m/wL47XrfeN8exOdvqNfiMDZIAMkAEyQAbIABnIhAGKRTfEokdgdaEHtYUetGySK4sB9E7vy7SqfGvRIz8ok1Is9vjRpT2KWVjux9ueADoC8fryC304VedFhTeetmC1tPNjn1ZWQZFKBCobGaazEwt9mOgJYnh1dBVRrq62NAXxdo8PJZqY1etMFRe+fHiCBRD5a+Ht/g1Clx/Cqx1TqrLM46RHBsgAGSADZIAMkAEyQAbcZ4Bi0QWxqIOZTmTptmnFYqcPdZrwEsv8mOoJ4IjNB3Py1KOvK+ztnPYvnZ1cXTzYEsSvdnixWAjIR1CH9gcxVpHdI6i+3j8g//Y/R7bQwFv4SvP5vp7LbOrsMe7+ZEqf0qdkgAyQATJABsjAh8YAxaLLF+TpRJYOUHqx6EetLhaLk0WgN+TFT5oD+H5/9G861KOvcgXSSlQ67Z8Tu8VrAvhljx89IYH8lX784kAA3aH4Cqd+rOninsLN8K5qgndtDwKf/G+EPj0Pj/auZ7ryzOfkTAbIABkgA2SADJABMkAG3GWAYjGHxaJ89FP+/cav2v34uMSLOvXo69rou4MzLRaF34vb3UE8rvRgT1MQv9zuwyJN3GZ7soqqcYSG/gL+d3z3Mdv2Wc7dSYb+pD/JABkgA2SADJABMpCbDPzI48nuscGZHvC8FXk5+RiikxU55bt3XVmUYvFsZxDf1nkTfJW/yo9f2qwsFlf4Ix+m2ZJG1Dmxk4+iNm8O4m1LAF90B3FnVXarisofKhTVzygWXb6JoXzLMDcnao4bx40MkAEyQAbIABmYDQa4sujyRXk6sfjRR1406l9D7Qrg4PR+41IP8qdFnPrrjFSPoUqx2Lo1gLf7Avis3IetK7xoq/RjuCWANzZi0bvUj1c9AQzX+LBZtbvEg6AhHp3a+Yp8+FlPEG+7/djlc0ksbnqF0NAP/J9Fl9mcjQmGbfKHjQyQATJABsgAGSADucsAxaLLF+TpxGJzY+K7heodQxm+bfejMgOxKE88kedB/5YAvtsXxJ93BTDe5MP6Ej9e24hFKTDrKv142hHAr6b/7uNtiw/LDLHo3M6Ly/L/HRu9SYIz24lBbJ5CaOg7+Pg11IQV42z9yXK5O0Fz7Dh2ZIAMkAEyQAbIwGwyQLHosliczcGcjba9S/z4rieIS8XurCrKYxBrv0Ro6LcIbKqFJy8fgh+6oWjkeUoGyAAZIANkgAyQATLw3hmgWCR0WUMnVx83bQzibacfG1xcBRSiBL6uv0bo1j8hNPQ7+F16F3I2xDTb5N1AMkAGyAAZIANkgAyQgVxlgGKRYjF7sej1YqAriJcbvPAaj7G+6wkhhagoWANP6SZ4gu6tWr5rv1iekz0ZIANkgAyQATJABsjAfGGAYpFiMWuxOF9OEh4nfxDIABkgA2SADJABMkAG5iMDFIsUixSLZIAMkAEyQAbIABkgA2SADJCBJAYoFglFEhTz8a4Jj5l3C8kAGSADZIAMkAEyQAbIQCIDFIsUixSLZIAMkAEyQAbIABkgA2SADJCBJAYoFrOEwltck+RM3olIvBNBf9AfZIAMkAEyQAbIABkgA2QgdxmgWKRYpOjNkgFOfLk78XHsOHZkgAyQATJABsgAGUjPAMVilkKBK4vp4eIJSB+RATJABsgAGSADZIAMkIHcZYBikWKRK4tZMsCJL3cnPo4dx44MkAEyQAbIABkgA+kZoFjMUihwZTE9XDwB6SMyQAbIABkgA2SADJABMpC7DFAsUixyZTFLBjjx5e7Ex7Hj2JEBMkAGyAAZIANkID0DFItZCgWuLMbhOnr0qKXgtEvXT0w7G5WuQr2MGXdiY5Zxa9/Ntt2sK9vjc6sPmdRjZ2uXnurYMi2Tzj5dfqq+ZJqXbVtOyjmx0fvr1N7Ozi5db4Px+ByarS/s/GyXbtWOaavv63GrsjOd5qR9JzZO+pltPWY5c99J27R593OBPqQPycDMMUCxOI/Foq90G/r6D2DTUmEp9tSJl87O7sfRLl3VK0M7Gz1dj+tlVXmZr2xU3CpMVdbKXk8zy+r70k7fV3G9vIqrPLvQrq5U9qpuu9CurFV6Ju2nsk2VZ7ZrZ2uXrspb5TtNU3XI0KqMyrfLk+mZbqpOu9CuLTt7le6knBMbVZ8Mndrb2dml620w/u4/7HZ+tku38rlpm27fqg6VJsvabcomk9Dsi1nWri2Vbtqn2k/XllVZ1Y5eVo9blWHau3NPH9KHZOD9MkCxOE/FohB+lO08hP5967FI2ItFJ3Z2P4526eokT5WfLk/mq03VJ0O7clbpVml6XSpuZSfTUm1WfVH1pCqXLk/1SYWqTrVvhuny3bJP12+zH3b2sj+p8tL112xH1WeW0/etyjgpp9eh4nZ1qXy78F3LpSuv58u4ucl+mWn6vlW/Zb5VuqrLLk+mF27sRn9vI4pSzD2pys90XlHDgYg/ujYuiR2jKGpAb38nahfaz5cz3S+9/nfxf6p6zHqt9mWauck6dVu7uN52urheh2mbKs/si1nW3Jd12W3pbK3yzTTuv98LW/qb/iYD7jJAsThfxWLeWrQe7kdb9YLYxZDVySUc2Nn9aNulq3b0fD0u89W+DNWmyumhslNp5n6qdDsbhT45AAAgAElEQVRbVUaFTu2UvQr1cnpc5euhmW/u67Z6XNql23T7dHGn7ap67Ozt0lU5PbSztUvXy8q4bqfHzTxVTtpku6k67EKzfSu7bNu2qltP0+OyXX1fj5t9ssrT0/S4KivTrLZU+SpPhrkgFvv7+9G/vx6F04J2LolFK9/r42SVr/tfxfUyqdJUnhma5fV9u7isQ+ZZbenqV/lWZVOlqXJWoSxnlS7TUuXZ5WfbD7s+MN3di176k/4kA5kzQLE4T8ViQXU7+g+3oiIv9V1yJ3Z2P6h26fJENfPUvgz1Ld1JrcopO3M/VbreTrq4qkcPrdrS0+ziVnXotjJf7atQL6PH3yVflnW6OWkzVV16eT2ul3GSrtuouKwjXVzlz3So98VpW9mUkXVbldPT7OJ6v5SNDJ1sqqwqp/b1/qTKU/Y5IRY729F+OP6Y/lwTi8qXKlR+V6FKl6FVml26spWhuel1WpU37fV9s6y5L21VnXo5Pa7y9VCvR9WRLk3lK3sVqnQZWqXp+VY2qcqkyjPr5X7mF7P0GX1GBmaOAYrFeSgWhViI9Z39OLxzDQIpHgNzamf3I5gqXebpm3mS25WVdno5PZ4qz6o+qzSzH+n29Tr0uOqLHpp16fZ63CxjlSfTstn0Ppj1mu0qW6d2yt6uHj1ft1H1pwvN8lb7qg6rPDNN2pqbaSP3M63Tqo5UaVb1W6XpdaTKV3kqTHUMuo1d/VY2qdJS5ak2ImKxpwErl2/A7n0f41BfL/a11KO0wBMT/tJWCIG8ZTXYurcbHx86jL7efWhpKMMiX/JNrryiKjS1dqG37xD6ervQ1lyDZcbNMCVSV5fWo7X7IA719aCzZRNK8r0J7crHUPvb1qOu5QgONC6L9MNOLKZrV4jlaDp4BNvrqtHa24fe1nUoWrYebTLevgnLAvFjcXq8qXycKk/5X4bSTtmquB7qtnZxVV7l6/t2cWVrhrq9yrNKs8uzs7VKl2lmur6vx1V7KlRlzVDm25WzS1d1Mpy5i1z6lr4lA+/OAMXifBSLhZuwv78P20r9CRdI5gklHNrZ/RDapevt2NmodBnqm15WxpWdme5kP9uyen/SxVU/zLbedV/V+y6h2QdZV7ZpspyTTbWht6PH9ePR0/W4XodMd7Lp9aq4VZ1WeaadspGhmWfu67ZWcTt7u3S9TWljbnobeh16XNmYaWZd+r4qo0KzrExX9spGD037qFjsQOuuRlSuXonVlfXY29uPI+3rEt6hFgur0X74CHp2b0LFqrhd77ZVCGo3usSiarQdOoIDLRuwdtVKrKrYiNbefhxqrUKBZhcVi/vQ1tKIqki7DWj/uB+H26oT7CJisaMWhWt24XBvI5Z5BKzEopN2o2KxH907qrF6TT3aD/eha3sdysoa0XG4H62Vodg87PR4TX9m6v9U9lZ162Opx01bfd8ursqny1d9VPZmKMs73cyyVvuqPyq0sjHTdFs9Lu3MfbMs99/9ApY+pA/JwPthgGJxnolFITxY1tiD/t4mLPfE72ibJ5xTO1nO7kfRLl21ZebLfXNTtlahsrXKc5KmyjsNndSp28h61b4eV2luhE76bteOVZ+cpqk6rexV3lwJ7fpopuv7dnHzmHQ7mSf3rTaznG5rl2eVrqdZtW2Xb2Wr91MvJ+OmvZN8vYwet6ovItr6Ex+DD5TvwuH+dlQXxOelJRu70H+wGSXaSmJQCjijrL+oEvWbyrHEGy8bWNuCfsNOtVuprTiGqlojdmuD8bIRsdhZh4X+1dh5uBebi72WYtFJu0os7qnMgxD5qGnvx+61AQixALUd/di/aWlsnnB6vKZ/TR+b+Xb7ZroaZ7t0PV/a6Jvqg56mx1VZPZT5qpxKV2lmusq3ClU7VnmZpOltpyuXrs1M6krXFvPfzwUx/Uw/kwFrBigW55tY9K5A88F+HKgvgke7426eIMKhnSxn9aOo0lRo1m+XruzMfHNftSvT9Ty1bxeq+lV5fT9VXG8jlZ2eZ5ax2rfrp56u12nGrerUbcz8dHlW9lZpqh49T8btNmWvQju7VOmqbKahrNOqjFVbyk4vo8dVvgrNPHNf2ZmhstNDGU+12dWh0lVdVvtmnrKRocrLtG0re6t69TZUfnSFrxHLtDlILJVPPPSgXvsrn9LmQ+hvr8Uivx9+tUXsDiTYqXqF8MKn7FZuRZ/x9VLLdlc04VB/J+q0r5xGxeJ6LJRfjd5xCL1NK+BN8TXUVO0qsdgSEYj5qG7rx65yf0Q4yviB+sIYn06P18r3ahyVL/R9J3FVToa6vZ5uxlPZpcrT67GyU2kq1O31uMzXbfS4tDP39bJ63KxHz7OLqzJmG2rfDO3qYbr1xSn9Qr+QgbnDAMXiPBOL/tXbcai/CxsWx++iW52QTu3sfhDt0mVbMs9q0/uhyit7PU9PU3Yq1O2s0uzypa3Vpuyt6rKy1+30uN5nVacKTbt06SpfhnZ90NN1ez1u1a7TNNV2uvqs7PQyZtyq/UzryLZOvW27eLq69XKmrdrXbfS4ypehXXoqG7OMvq/H9Trs2kpl77SMXocel+WVaNP/OkMUbsSB/l40FMXnppXNhy0Z7zfsPPkl2NTShYOH+xPs+23EYkK7K5qSRGVcLAr4V23DoYNbsWJZPXqM+py0m4lYdHq8pj+txkS30ePSVm2ZpqtyKrQrL/NT5anydnaqrAp1e1XGzFP7ZmiW1felrZNNL6PatwrTpZn1cD/OIn1BX5CBucsAxaL2w5kJqN7imtgPbiblZtNWiCDWthyO3KlfoN3RN/vk1E6WUz/MdnE9X2/HLt20sbNT6WZoltf3zbgqK9P1uLLT0/S4Vb5VmlnG3FdlZGjmmfu6rR437dLtm2WlvZPNrpxdulmnbqfHM+mvXk7GzTZS7ZtlVXk9Xe+LXVy3T1eHaWu1r7ej59ulW9koWxUqG31fj8t8fV+PW5VVaXqYaRnTXonF5JXFXtRrYjGy0tbRgNKiIhQlbEtR4I+KSiHysLblEI7s34HqVcuxTNlV74qsGOr/i6jazUQsCm8ptvX1YWtdPfZrYtFpu5mIRSfHa46fGhfTxyrdzj5Vero8VbfZpty321QZPVTlVajnybhdum6n2lNp5r5KV6HKV3WrUOWboVW+SlOhKqPv28WVLcO5e2HMseHYkIFEBigW55NYzK9E25EjaK3MTyl0hUM7eTJZ/SDqaaZNJiegXT16uh5Xbck0q81sWy+rx5WdnqbHrfKt0mQZVU6Fys4qVDYqtLIx06Rtus0so/at2nGaJuswbc39VO3Y5ck6rDZln02Yql9mW6p+vYweV/kqNPPMfWVnF9rZ26Xr9eg2elzZ6Gl6XM9X6TJMt6lyMlTl0qWpfNM+ItqM9wlt31k8UI+l2vvVIm8Rli0vRMH0e4xCFKGxN/HdP9muf81OHNbEnUzLSiwKL0qbD6KvvR1dWn1O281ELEbeWUxzvPI4TH/apcn0VHlW9diVsbK1SrMrr9L1UC+vx5WNVZrMk+lqU7Z6uorreXZxuzaUvZmv7+txs81UeapuhokXpPQH/UEG5iYDFIvzSCwurJX/rdiCNdqHHKxOTKd25o+hqstMN/eVnQxlntrMdJWv0q3qsUpLZW+Xp/pghnb2Mt2qbT1NxVWo6koVZmJrVc/7LG+2JfftNqu+yjSrOuxss00321D1mOnmvp2dSpehWcbc122t4nb2dul6HXY2VulWaVb9V/Xb2afKT1XGzIuItoP70d5ifg21Fgu1px6iXwc9jH3b6lC+shQry6qwue0gjuyvx9Lpj9nIJyHW7OxD/8ftaKwqQ2npKpSva0JLezcOauJO9j0bsSjLeVc04eCRIzii1ee03UzEopPjlf0x/WmXJtNT5VnVo8qY5axsZZra9HJmWTPPKt+ufquyZpreB70ePW6WUfvpbFLl63l6XNadbl+1z3BuXhxzXDguZCDOAMXiPBGLQizGhn396Nu+Cn7tYsw8GZzayXLmj6Fdmpkuy6nNbN+01fczaU8v56QNKxs9za5tdRx6qMpZlVF5ZqjKy3Q9btqZ+8o2VWiWSbUv60mVr+eZtua+sk2XrufrcVX+XUO7Os10c1+1a5cu8808c1/VYRfa2dul6/XY2Vilp0qTeWa+ua+3K+OqjBmadmrfrE+JtrLSTdP/d9iLfbvrUbog8f8O1f8ONrftx8HD8n8W96N9+waUFBh2oWLUbW/HgYOHcLivBx07a7FsVSM+1sSd7ItqN5PHUGU54V2Opt5+mO9ACgftZiQWp/9XMt3xmn5X+8rfZmj6X+Xbpat8GSobPZRxta/b6vFU+anynNah+mbWlW5fr1/VYabp+2Z9buTpdTAevyClL+gLMjA3GaBYnCdi0VNUjwP9B9G0IvEiyzwxndpZ/YBapan6zTxzX9rJNKv0VHm6vSqfKlR1qX6lClXdKjRtrdL1ND1ullX70sbOLlWeKm+GdnWZdnb7mZQ3be32zXTZtpkm951sqt9ObHUbVU4PZb7eF7WvbNS+CvV0mZbNpupQYaZ1qHIqtCuv58u4tFNpVvsqza4+la7qMOtT5VW+vm9lq9sxnvnFgZVPzTS1r0IrP6fK0+2lnW6rx5WdskkVKtt0oapfhbq9Xr+ZLvdTldHtVVyvzy6ubM3Qri1pZ5Vnlud+5uzTZ/QZGXj/DFAszgOxKP8zcUVTL/p7GlGkvftjnnBO7ax+BK3SzPqd2Jhl9H2r8lZpepl3jb9L/XZlZbranPRP2er16WlO407bcmJnZaP3T+U7TVP2MxFa9UG2o6frcb0Pdum6zbvEZ7p+8zit9t+l/+nKvo/jS9eH+Zyfzv/p8nXfZWKrl8s2nk17M1EmVZ12eXbp2fqC5d7/xTF9Tp+TgTgDFIvzQCwS+Djw9AV9QQbIABkgA2SADJABMkAGnDFAsUixmPB4Gk8cZycO/UQ/kQEyQAbIABkgA2SADHzoDFAsUixSLGbJwIc+OfD4+ANIBsgAGSADZIAMkIH5zQDFYpZCwVtcQ5GVpe846czvSYfjz/EnA2SADJABMkAGyEBuMECxmKXgoVjMDcA5EXGcyAAZIANkgAyQATJABshAdgxQLFIscoU0SwY46WQ36dBv9BsZIANkgAyQATJABnKDAYrFLIUCVxZzA3BORBwnMkAGyAAZIANkgAyQATKQHQMUixSLXFnMkgFOOtlNOvQb/UYGyAAZIANkgAyQgdxggGIxS6HAlcXcAJwTEceJDJABMkAGyAAZIANkgAxkxwDFIsUiVxazZICTTnaTDv1Gv5EBMkAGyAAZIANkIDcYoFjMUihwZTE3AOdExHEiA2SADJABMkAGyAAZIAPZMUCxSLHIlcUsGeCkk92kQ7/Rb2SADOQaAyLgwcYKD0JC5Mxvpsj3omG1B/4c6nOuccH+ci6bDwxQLGYpFLiyyAnCrQlCCB98Xk/OXIC4ddysh+fQfGNACA+8Ph/P9Sx/d2eDFzlmldsCePNVPv7huh+FOSS8xPIAfvFtCP/jWgB7l+WOyJ2NcWab/D0iA/YMUCxm+aOVa2Jx5cdP8cXXP49tD8a/xsC1C9hZsQieHPrxkydzflkbPr76GDe/eo3hh+M4c6ITqxbMLbFVVH8QbTtr0t6FFmIZtg28QvjZGFpXvp8f89n0n1O/uD1pz1a7mRxH4cZetO2uRUGK8zGvdCe6zj/EtbGfYXjsGT4/3Ys1C+cW+5kcsxPbdH5Z3P4gNq/JOW702Xe4NngNe2oWz6m5TYggKo48wcjkT3G0IeSqYBTlJzA4+Rz7yuNzyEd7R2J+CU++wf2xCVw4ewRVS7yutu1kDK1sivaNRfp3+5MNsf6I5QdxZfIbdFfEj8Oq7PtKE0KgtjMP/+vrECa7fVidN3P9Kq8J4Ne9fxrb3nb70WgxFzi1kz6S/V9U4sPAjRD+z6M8fFz8Yc8V74sLtmMvKuibD9M3FIvzSCyGH9/Azrp6VNfVo2ZzO7qufIPRiTG0lubOnW6xpBWnxqcwNHASzZubsKHlGE49fIPhqx1Y7Jm5H/JMJ8C6U98jfKsXiy1+7PW6hFiKLRde4P7jUewsnfn+z7b/nPpF95Eb8dlq12nfhQhhy6UphC+2ImjDjK9kP86Nf4+Bc/1o2tyEja2ncWF8Cvcu7k0pMJ32YS7aOfFL9YmXCI+cR+P03LZuSxcO3nqF8MQX2DmHVlOEWIT6z17g/tgD7F7t7pwb3HYT4cm72JIfn0MqPvkO4XvnUB/xyxZsajuPy0+mMHK1HQtsGHtfDMjVurpTrzH6/A3CN3vw0XR/vPWXMDI5jK0L4sfxvvpk1Y5vdQBvvwnh5V7vjD/KGVrgQWOxN7K1NwRgJxad2unHIx+hvXA7H7+94UfpLI+93i/GP0xhwXH98MaVYnE+icWxUyjTfihEYCP6xqZw90R97M7uXD/J5SpC+Ol1bNTu8AYbr2J4cgwtRXPjAkP6cK6Kk9n232z5ZbbadXo+CbEWXaNTuHm42vJclKtSm86+xoMbBxJuipQdfo7wk89RrZ3XTtvMBbv0flmMHdem8ODsTng1H4jSwxiYnMLp3Yss/ZkLx55JH0t6xhHW5nchFmLbwBTun2qKra5KgRYR1g9PYbXmq0zacctWPlGx+9YUrt76AvefXUGdLzp3L+34AuGxMyif5f7J45SrcntP5+MfRgKofs83IldW2YtFfQyc2skygXUB/ObbEK5rq896XYx/eBf4HFOOqVsMUCzOZ7EoQmi6PIXwQGdsZSL6ONNTdDbuRN/NSQw/eYmbQ9fQWp34SJe88FhQ2Y3D18Zxa/w1hsNf4fSxdpRqd7blnfRN514gPDaAOu1O8aLtgxie/Bp96wsiF3LCuyEiWodPb0NAu0gQwWYcezKFawcrYhd8a4++QPjeUSzX7fJXo2ZLE0oXxsViJsdRULkfh689xZ2n32N47DE+PdKCZcF4XepkK6joQt/A9PGOPcG5T3tQvij+WI8oPIALk1OxR7/0x37lY2D99fE6RcVPMKTZ2l0gOfGz7J98zFheLG7ceAJnRn6Ke+Pf4MqFY6hZkriC4dh/DsbXabsZ+UV4kG48HHOVwXioMXYSigXV2HFiGAMPX2Hk+RvcG3uCU/3NWGJcUArvYlS0n8dn917g3tOXuHl7EO3rlyaIGnmRr3Oix8OPPsPaac6FpwFHnkzh847lsXNB9jVU2oCN9RWxlSIh6nFofAqX9pXE7OQ7sRs/+wHha10xO1m2+sRPEb51BOt2nMP58Cvc++o5Lp45gFXaOZyJnZPjFaIWvWNTGOhrxob+YVx7/BrDY1/hJz0bE/rm2C/T9V37eG3seGWfxUf7cG5yCp/uXBBLd3q8wluItW3ncWZYzn+vMDh8Fwe2rkxYWRJ5TTj6aAp3TjXF5iwRqEDnnR9wf6gfpf7ouS5EHjZffJMwxufbimJ9kn1VmxP/RY4tbxUaj97BwJevMPxoHCfaKtFw+ofEeVxU48CXJgf5aPz8e4xeaY/N95H6HHBq3W4VNn/2BuGBjlh9TsdXiE0RTj89cATnJ5+gffoR/JqTrxC+1o2F+vyedLzJ7XobruDB+BXs7biLW+MvcGZvNSo+foDb4y9w7kB14tg5PV7hxe3H+fjvh+0f262sDeBtpx+7lvsx2hbEVHcAz5p92ByK/y5I39WuD+Btux+V+nEV+zHVE8AR7bdR2srNqQh0ahcZP48PI0/z8asD9sezaIUf33QH8WaPH+unBbzqE8P4uUpf0BfzjQGKRe3HOpPBz8V3FvU7z/JYhacMHfeMu8+Rd19e4MbQMA7s2YG6zR04cP07hJ8MY2thXOx4ivfj/LM3uHnpE2yVj8TtPomzcpXyQisW6T+IC7fj+NgUBk82IE8IiAXbcCyy3xjZj/RDeLD60ATCz25gUyjeRnDzVdyfHEeb9nhm9NGq/gSxaDVuUbHo4DiWH8Dnz95g8PJxbN28NXYct083xy6AIn0s7sb5J29w4+JRbGmQj79+gtNfTuHewD4sURf0wRUor29CXX0TOgZ+QHjkApqm9+vqt6D0o/ixifwSrJ1+bK751HPbu+lO/RwVi+M4d+EUtm+Rx/Epzj+awsj17lj/5HE49Z+b7YoM/OJxOh5OuMqgXSuGrNLkY8NbL7/Cg3tXsWtLI6rW1WPjvkEMTn6P41vi76EJUYCqY8/wYHwMfR0tqGvYg7bPn2N04ku0FMc5KCjdEHksvLp1AEOTL3G8LfqYuHxUvLpieVyIFPXg4uRrHN6YeBFq9lEs6cb5yR9wtCF+k0CIErTdTXyCQIjoitzogzF8eqoPmxu2orHrOm48n8L1Q5XaapRTO2fHKxa048zkFAZuXcfR/a1Y37AbbReeY3TyBXpr4n127JeCaH2fbo/7XvqkYPsgRiYfYc/yqK+dH+8CVB1/itHHX6C3fVd83J4/wt7SRN8X7/sSoxP30bxEIDLeJyYwOnYLjYVxO7kiXFgxPaYtlzE4+RqHNsTz1fg55UUex6azLxB+/BAHZf8a96Lz8l1cGZ7CnWMb48Iz1IpTkz/gk6YCBPNCCH20EtWdtzD07Ct0VubF7RxyatXuvqvDkXYT3jl0OL5icRfOT77Cwbpa9Iy9wcltIQhRiJ03pjCsPenitF35/mP40TDam7dh9+ffIvzFMDp378Duz18grK2kOvWzHBfh9eHpN/l4tTd5vNS4RcViAF82+7B/pRe7yn0Y2xfEL3b5UKz9Ds4JsSg8OD+cj/95Mn6eqeNQYdGaAH7eE8TbfX5sm77hofIYUiCRgfnLAMXivBKLn6EyLzR98bAKdQcfYHjyWxzaEF3hkxNBVGS9wald8ce3xMJ2nHk+hTN7FscuMpYfeIzw40uoCcQvfEPbB/FgcgTbFsXTZJ0Fm6/i9uQEDlQtRs3JrxF+eAHVxuqFKJGPjf2An2yPtivvyMvH7sK3D2Kp9qPrVOw4PY7Sj59Ej0NbSczfdhMjz4exVVupzKvoQFdfa2zFQB5XaMcQRm3er8nksccVkUfIrB+9curniFh8fg/NWp8Xtd5DeHIYTQXx8XDqP7fbVT8y6fzidDyccuW0XWWXLhQL2nB6cgont+kX3PkoXFOJFYuDsfNDlBzC1cmf4liTdh5NX0if0la7VHu+LQOW547K96w/F3nUeo8mNFWeHop1Z3DXuMEivE04+mwK59uXxfs3vSJ3/3J7bBVHrtjKRxfDVzuQr26AOLVzeLyi4iRuTf6Az1qXxQVpRDhM4VRL3FfqmNL5JVrfC/TURue1YP5SrKg/irOPpnDrVFPmx1Hch8uRD9Boc+KiTpydnMJPDEEq8rZEVhcHDlbgoy3XcPv5M/Ssi69kqmNQoWfTRYxMjsFqDJ3yIlZIrl7hWFO8HVH8MS5NTuFc29L4+JYfx03tyQW5Yh1++gj7axN9nHG7W7R2Ix+jmcLZvVq7DsdX1JzG3cirAyFsufgGg0fWQYj1OPjY4FQdb4p25dMXtZ++RvhKe+SDYovbRjF6uS1yM7JQPtZ678dYoXh2yKkcM5Hnx9ff5uPF7jRiscePLu33o7Dcj7c9AXRov41zRSyevp2P3522F4vy0dsFIQ+WUijGziV1/jKcv0KJY/8noFicR2JRf8QtcvHw7CmOtVUnfLEzKrISv0YnRBl2XxnDyb2rYhPoup+8RnjoYMJnxMWa47gx+TW6jHci5EXoxjMv8GDkCW48/waH1scvONRJKEQRWm6+wYOBjsjjaCJvB44bF7jS1qnYcXwc8iLj5kEUTYtoeRc+uPY4rhtfFoz10+NDQNnWf45hbfVC2cgwnSjSbVOJRad+jq4snk5410fUnce9yUdo1QSGU/+53a463nR+WZfBeDjhymm7yi5dKEI7cfLZFG4PnERTfS1Kli5IeKxUlV/cNoLwxHU0LJgWMZKZjzqShKayL+5+hPD4OVRpN0ZUngzlBXB44ipqvXHhr+er+MLdwwg/v46N2sWeKOrFJWNFS6gVuR2aKBIh1H0yhktHm2KP7Tm1c3q8edtvIWzcUBKF+/G5sRqqjiedX2R9SfPaxHf4/EQrirWL9cyO4xo26P6LrNa+wbEmf2z+U/1bJlcXx8Yx8Og1znWUwWczftK+sD1sO4ZO/bdwjxzfG9ikH1tEtP0MfXVxURNsvoHR58NorapBWcU6VNZ34dCd1xgNf4YKTdi43a7T8S2QnMp3Fb0CJb1Poo9IL+zAZ5N/lrB67uR4I78dg1O4cSj6vm/lsZe4eagqMlZVJ36K0c93x3h2erxyvByLxU4f6rRxF8uSHy/NFbGouGZIYUQGyIDOAMXiPBKL4UfX0FwhLx6qsWplMQr88YsLBUVUZE0mCT6Vr0Kri35R9gluTH6L/RafPfdWn468oxd+cAIrjXe7VJ0LW+7iwfMH2LFEIK/pGkaej2Cb9uimtHMqdjI5DvNiMyKkjePwLGlE58Vx3H2W+P5ReIbFolM/R8Wi8QGjOrkaFX8ULxP/ud2uGmOrelWeDGW+k/FQZZxwpep18nVaVa9dKN//W7KxHz++/gR3J6Yg30UdHr2DzrolCUKi6thLx8chV0bqTv0ZwoP2X8+tOv4S4eEjWKZdlFr1sfzotwiPHEOJZudZL28ajGG39mVQsVau8KU/z53aOT3eVX0TCI8ZNzVqz2J4chx7SxKFsBO/ROqLzWs1WL2mDIvzk1dOMjmO8PDRhEcIRbVcBXuG9lWJ/ZP+D677DIOTUwg/OJ72K5ORj8sM9yfUrcbQqf/W/vgFwvc/ia2UyfKejRdwf/LLhA98RQTY6Ams1DkoP4Eb8tHP2vhxvHu7D7Frabw+p+Nb3v8NwncPo0gI+CLvG15AVWRVMnHl1f544+3K9x/7xqcgV+zlDaTtA1P4dEcB5COsO69P4UZfVDhKXzk9XmkrxeKkk5XFTj9qNT8Li3cR54pYPHMnH789lXx+KA4ZUiCQATJgxTfEPuUAABO/SURBVADF4nwSi9rX8qxgkGlORZbTladInd4ytN/+AcPX7uD8s9c421YSewRN74cI7cCJp1O40FGOhvPf48HlxA8xSNvoB1rijxVF6s8vw7qtzVipPYLp+DjkStadT7EuIqKlkFZbJZZMf3FVXoBsufgao6PXsKthA8qVTdtN3DfEmDqedKJI2cnQvZXF9GLRqf+cjq9TkaqON51fIiuLacZD1SUcciXt07Wr6swkFL4QFq/eht7bPyAcjl+YS17k45yjA0firChmKsrwkbZqJduTX4bccyvx3WG9H7H6jC9++patR31TLZZMrzZG/mbiYvLfbyxpH0X42SWs01YloytAiX+1oLep4k7sYv1Lc7xCBNBwXn4QZV/C+8CLWu8jPHENG4wPaqT3y3R9xod7VN/1MKPjOLcrYYVwgVwFm7iesJon6/Z8tA3HvnyDK5eHI/9xeKAqeeVR9UGIj7B9+qut5uqjc/8VYOuVKYQv7ImtlMn6I49ayvGdvgknb2hsOvcDwtOPYsb6EFmBfIme6qi4c79dZ+MrOZUfVnvw2Y7Iqnx05fsR2roHMDpxNfZlVPl+oaPjjXzM6AX2V8p3R+UHlKJPxkQea30kHx/Oj9zIcXq8MX95vBj7Oh9TXfYfhFEfuEknFmvqgnjb7kt4ckAU+/DzngAOva8P3AgvBsL5+M0n9sejjp0hBQMZIAM6AxSLFIsJKyJORdby/Y8QfnwRNdqFb2ibfGfxfsJ7c/LCZWXPGB48HcH2ZT6s2C/jo9hZnPyDJS8ma0+9RPjWfZx9+gNObkt+XDXy1w/PrmOT/tcZDVeS/jrD6XFE3pEbPYlV2mqnWLASa9dVYvH041pC1KBnbArX+yoTfJXXfAMPbMRiRGzd+jjh4zL6iafHU4lFp352Ktqc+s/tdtXxpvOLk/GQdWXClbRP167qn6d4Nw5f+wKnjzYlfKgp2uZilKxvxJpl8fcVZXr50W8iK0tqNU+IFWi9PYXhT7fEbooI4cWiletRsTrxa6jRejdGVkYud8cf81b9ieaXYO+dKTw43xITCfKCu+7Udwjf7os9Ci7/LqFZvnN4cW/svxqFZyl2Xn+DkYt7Yu/vyTpXHnyW8FcLent63Imd0+MVYjXa7yV+iEW2VSFXy4wvHMt0IdL5JVrf3WObEs5Lvf8q7uw4pv18dmdMLEqB0XQ5+caV8Jdhz43XuH+zDyv8JWi9/QYjA51JzKj2hVgXmUMGjK+2Ro/TGS/q7yb0xyqFZzl233yD8J1DkVW6aH2laBuewu2jdTG/yPNleddDjD65irrpR1idj1v0by7St+tsfIWoQFd4CgM9ZZH+Rcb58Rucv/EQYW3l1fHxVp/CncnhyO9O5P366fe0xcIOnJ2Mv1Lh9HjjY+bF2eF8/O68L+HcUfkydCoWF8v3GPf70aY9PryiMoC3+wPYqf32qLqLK6L2W7QVS5Wnh07tZBmx0I+X36R+B1N4PKiTH+op9aDIol9624xTTJCB+cMAxSLFYuyCIvKDEvkaavrH0zzy66Dya6gXf4wtjfJrqCdwJvI11D2xD2bI+nxlR3Fl4nuca4+uJgrfWnQMv8H9Gz2WP0bemtO4LR/renot4b8U1aQkluzFqfEpDA2cRPPmJmzY+WOc+uINhq92YLH2w+pULEa/vvlnuHq6D431W1DX1IXemy8xOnoSq6dXOoRYgIbzrxB+NIoDrTtRu6kZmzvO4dObT5Me81T9LOp8iNFnX+DA9q2Rr6PW1a9HkSZwC1ZujH4Fs64eka+hjg+iZfrrqNVVJbEvxTr1s1Ox6NR/brfr1C9OxiMbrtKNh+rfsq6xyOOj8sNA+seCZL4Qa9A5MoWR4UvY1lCPitoGbGr7HJeffI+L+1ZrwtCHik++QXj8C/Ts2Y7ajdvQ1HMd1yZe4uS2+MdAVJtKFN2+2IfaaQYqS+MfIpEX+lXHXyA88QzH9u1GXf0u7DoWxt2JJzigfVBFPra5oucrhCee4mj7NtRs3Ik9p77C/adfYo/2J/BC+KdX+OJ/maP6oofO7Zwdr/Buw7EJ44Mo0/8HOGqs5kX9HRWLtn6Zrk//sIvefxV3fhx+1Jz8DuGJcfS370Rdw27s+XQMwxNjaC+P3yCQorxGffl0SfRR/tCWgcjfAfVUB2LzqcgvjX3xuHrTcXw+OYWLR5qnz/sNKJ5eUZLj64QX+WXVulM/RXjiCY52yP61ov30EK6E5Srd9ti7s/KDRj+emMLAid2Rtqo27cT2Q3cxOPEKn7Wtitu53q6z8RXBFvzk+Rsc3xr9IJS6yTH6/E3k/zLVyqvT413Qcjf2NWlRdQpDY6ewRn55u+oUbmsfIHPqZ8WNDNd05eHvv87DSe0Rbj3fqVgUeV7c7QriZzt82FfqRUuFH+NdQXxX7034ZoCq27vUj1c9AQzX+LC52ItGuS3xxG4CZWonP1xT05uHv5/MQ5/xATpVlwzFYh9e9ATxyx3ehN9T3Ybx+SMQONYca8UAxSLFYuziRkLhVGTJC9OFkf8nHMeQ/J/FLyz+Z9FfgX3DbzAy2Idi7RE4f/lxDDyXArI0doGtgBSe6P/EDZ+Kf2RD5UX6J/+Hr7wDBwe+wqBs9+E4zpzYh1ULEt+/zOQ4CqoOoP/GBO4+k/+zOIHzp/tRszTxvQ7x0Xrs/ewL3Hz8GvfHv8bFcwdR3iAvRhLfCVR9FXkV2Hl2DENPou84mu822r2bF3lfUnvXyImfZZuOxaJT/zkY30zadeoXebzpxkNkw1Wa8VD98689gguPXmNoYD+WW9xZzyvvwtGbkpU3GJ14hVv37uNwex0WGrYirwxNx4cxMPYK98dfYOD6ZbRtKomtWKn2ZBhZ9dl5FZfGXmN0+guWSf8bKOs7Nhz5b737X03i6sB5bK9aHLvwV/WJ4Cps/iTa7siTb3Hl8mlsLUtcoRdiVWSFT//LA1VeD53aRY7BwfGKyGOQr9BXF3/HTa3am8cbqVOuhqXwS7y+xHNfP4ZoPc6ON2KbvxbbTo5Ex+3xc1y+fAbN5Yti85RcIS7acxfDzydwsC7uV+Fdiy55I2GgK3aRHf2Sq93/rib+JZBTXrxLtmD/wFPcefIaQ8NDaN/Qgr7H8VW6yDEskx80irc7+uw73Lh9C13bymI3oZSPXG3X4fiKlf24NjmBzrI4B6sPPY/cpDFXXp0cb9mRydh/MxbsuhP7v8mCiIg03o91wKnyTcSXeV7cDufjt8MB7FiczJlTsSjrWrDYhws7AvhpdxA/tAdwt86LUuPRa9W2nAfrKv142hHAr3qC+HXvn+Jtiy/pnWUndlIortwSwF9N5uPPD3gt5yDVblFFAG97ghia/t9Llc6QooEMzG8GKBbniVjMlRPdU34CNydfom+9/fs/uXIs7Of8nlw5/hx/MpD7DPiKfRh7kI+/fxrC825vwvu2c318xUIfrg6E8HffhvCLYz4UGze19P5LUbm7KYi3XX5ssRGxuj3juc82x5Bj6JQBikWKxYSVRafgzIRd7DGhsbNYyx+rOTMuMzHWrJM/UmSADOQKA/Ix0tZ9QXx70h97RzgX+i7/xmPscgAnapMfYTX7L1cpz3cG8XKDJ+mJBdOW+zx3ycD8YoBikWJxzogS4W9E/+MpDPbXxh774oQ0vyYkjjfHmwyQATLw/hmQq5ATPQEcN/6uimPx/seCPqfP5xoDFIsUi3NGLM61k4P94YRNBsgAGSADZIAMkAEyMJ8ZoFikWKRYzJKB+Txx8Nj5w0kGyAAZIANkgAyQgQ+fAYrFLIWCt7iGIitL33Fi+fAnFo4xx5gMkAEyQAbIABkgA7nPAMViloKHYjH34ecExjEkA2SADJABMkAGyAAZIAP2DFAsZikWCZU9VPQNfUMGyAAZIANkgAyQATJABnKfAYpFikU+TksGyAAZIANkgAyQATJABsgAGUhigGKRUCRBwbtAuX8XiGPIMSQDZIAMkAEyQAbIABl4VwYoFikWKRbJABkgA2SADJABMkAGyAAZIANJDFAsEookKN71DgTL8y4WGSADZIAMkAEyQAbIABnIfQYoFikWKRbJABkgA2SADJABMkAGyAAZIANJDFAsugSF8IUgPCLJwbyjkvt3VDiGHEMyQAbIABkgA2SADJCB+cgAxaJLYtHX+weEBn+PvOMP4SvKo2h0ya/z8aTkMfPHiAyQATJABsgAGSADZGAuMECx6JKo8RRugbfqJAJn/xGhM1fgEVxlnAuAsw+caMkAGSADZIAMkAEyQAbIQHYMUCy6JBYVgJ6mXyB061v4vBSLyicMszs56Tf6jQyQATJABsgAGSADZGA2GfiRx+OZk49M5q3IzUc5Pc2/RmjwObx8f3FOcjWbJxvb5mRPBsgAGSADZIAMkAEykEsMcGXR7ZXF3b9BaOAhvHwMlWLRZbZyaWJhX/lDSAbIABkgA2SADJCB3GeAYtHlC3rv3r9F6OIwxaLLfuVkk/uTDceQY0gGyAAZIANkgAyQgdxigGLRZVEj1j1HaPCv4C8rgydYAE+Qf6nBSSG3JgWOF8eLDJABMkAGyAAZIANkQDJAsei2WBSL4Wv7a4SG/gn5t/8ZoaHfwb+KH7vhhMMJhwyQATJABsgAGSADZIAM5BYDFItui8WVQ8gb/DsEmrvhLWuCd1U9PEGKRU4MuTUxcLw4XmSADJABMkAGyAAZIAMUiy6LRe+ev0Ho8n2+s+iyXzlZcbIiA2SADJABMkAGyAAZIAPvlwGKRZdFTUQsXhmlWHTZr5wY3u/EQH/T32SADJABMkAGyAAZIAMUiy6LGs/2v0Ro8Bl8/OsM/nWGy2xxwuaETQbIABkgA2SADJABMvA+GaBYdPmC3rPl5wgNfQefl+8pvk+Q2RYnTjJABsgAGSADZIAMkAEy4C4DFIsuiUXhK4BnUQP8n/weoUvD8HBlkSuLLrHFSc/dSY/+pD/JABkgA2SADJABMuCMAYpFly7ofb1/iP5VxtW/QKBiKYWSS37liezsRKaf6CcyQAbIABkgA2SADJABtxmgWHRJ1HgKG+Fdthoev4dC0SWfug076+MESgbIABkgA2SADJABMkAGnDNAsUhhQ3FLBsgAGSADZIAMkAEyQAbIABlIYoBikVAkQcG7Lc7vttBX9BUZIANkgAyQATJABsjAh8oAxSLFIsUiGSADZIAMkAEyQAbIABkgA2QgiQGKRUKRBMWHemeEx8W7fmSADJABMkAGyAAZIANkwDkDc1YschCdDyJ9RV+RATJABsgAGSADZIAMkAEy4DYDFItcWeTKIhkgA2SADJABMkAGyAAZIANkIIkBikVCkQSF23ckWB/vcpEBMkAGyAAZIANkgAyQgdxjgGKRYpFikQyQATJABsgAGSADZIAMkAEykMQAxSKhSIKCd31y764Px4xjRgbIABkgA2SADJABMuA2AxSLFIsUi2SADJABMkAGyAAZIANkgAyQgSQGckYsenxeeDwi6QDcVs+sj3dkyAAZIANkgAyQATJABsgAGSADf4KcEYsLj9Si5v46rD1TgkXLPBSNvPNBBsgAGSADZIAMkAEyQAbIABmYQQZyRiz6ivKRv64QJVfrUH1pGYKCq4y828E7XmSADJABMkAGyAAZIANkgAzMFAM5IxaVA/zby1HzYBUWeSkWlU8YcoIgA2SADJABMkAGyAAZIANkwG0GfuTx5NYjnYFd5agZWYkFfH+RS+4zuOTu9onG+jh5kwEyQAbIABkgA2SADOQaAzm3spjXXoma2yXI52OoFIsUi2SADJABMkAGyAAZIANkgAzMGAM5JxZDnVWoubEcIYrFGYMi1+54sL+8S0cGyAAZIANkgAyQATJABtxnIOfEonf9SlSPrEVReRC+PC+8Qf6lBk8M908M+pQ+JQNkgAyQATJABsgAGZjvDOScWBTChwVdFagercO68HrUjNaguIwfu5nvIPP4OZmTATJABsgAGSADZIAMkAF3Gcg5sehZvRxrR6pQumsRCsrzkV+Wj0CQYpEnhrsnBv1Jf5IBMkAGyAAZIANkgAzMdwZyTizmdVSiZnAF31nki7x8Z5MMkAEyQAbIABkgA2SADJCBGWQgN8XirRX8GuoMQjHf76Dw+HkXkQyQATJABsgAGSADZIAM/AlyTiwGWtZG/2eRX0PlXRQKZjJABsgAGSADZIAMkAEyQAZmjIGcE4v+bWtQM7oai3x8T5F3O3jHiwyQATJABsgAGSADZIAMkIGZYiBnxKLH54V3cQhLT61DzU2+szhTQLBeTjZkgAyQATJABsgAGSADZIAMSAZyRiwuPFIb+auM6qFyFFf7ZmyplScGTwwyQAbIABkgA2SADJABMkAGyEAOiUVfUT5CywPw+fn4KcHl5EUGyAAZIANkgAyQATJABsjATDOQMyuLM+0I1s+TjQyQATJABsgAGSADZIAMkAEyEGeAYpFfT+IjvWSADJABMkAGyAAZIANkgAyQgSQGKBYJRRIUvJsSv5tCX9AXZIAMkAEyQAbIABkgA/OVAYpFikWKRTJABsgAGSADZIAMkAEyQAbIQBIDFIuEIgmK+XrnhMfNu4ZkgAyQATJABsgAGSADZCDOAMUixSLFIhkgA2SADJABMkAGyAAZIANkIIkBikVCkQQF76bE76bQF/QFGSADZIAMkAEyQAbIwHxlgGKRYpFikQyQATJABsgAGSADZIAMkAEykMQAxSKhSIJivt454XHzriEZIANkgAyQATJABsgAGYgz8P8Bsr3UpRyav0cAAAAASUVORK5CYII=;" vertex="1" parent="1">
          <mxGeometry x="1951" y="30" width="427" height="196.79" as="geometry" />
        </mxCell>
        <mxCell id="i1759LFhbYFXr8-DVYZL-28" value="" style="endArrow=classic;html=1;rounded=0;fontFamily=Tahoma;fontColor=#330000;entryX=0.5;entryY=1;entryDx=0;entryDy=0;exitX=0.5;exitY=0;exitDx=0;exitDy=0;" edge="1" parent="1" source="i1759LFhbYFXr8-DVYZL-25" target="i1759LFhbYFXr8-DVYZL-27">
          <mxGeometry width="50" height="50" relative="1" as="geometry">
            <mxPoint x="2432" y="390" as="sourcePoint" />
            <mxPoint x="2482" y="340" as="targetPoint" />
          </mxGeometry>
        </mxCell>
        <mxCell id="i1759LFhbYFXr8-DVYZL-29" value="判断是否是否能匹配上" style="whiteSpace=wrap;html=1;fontFamily=Tahoma;fontColor=#330000;" vertex="1" parent="1">
          <mxGeometry x="2442" y="110" width="120" height="60" as="geometry" />
        </mxCell>
        <mxCell id="i1759LFhbYFXr8-DVYZL-31" value="进行粗选" style="whiteSpace=wrap;html=1;fontFamily=Tahoma;fontColor=#330000;" vertex="1" parent="1">
          <mxGeometry x="2632" y="130" width="120" height="60" as="geometry" />
        </mxCell>
        <mxCell id="i1759LFhbYFXr8-DVYZL-33" value="进行细筛" style="whiteSpace=wrap;html=1;fontFamily=Tahoma;fontColor=#330000;" vertex="1" parent="1">
          <mxGeometry x="2812" y="98.39999999999998" width="120" height="60" as="geometry" />
        </mxCell>
        <mxCell id="i1759LFhbYFXr8-DVYZL-35" value="通过切点表达式进行匹配AspectJ&lt;br&gt;通过方法匹配器进行匹配，内置AOP接口的方式" style="text;html=1;strokeColor=#d79b00;fillColor=#ffe6cc;align=center;verticalAlign=middle;whiteSpace=wrap;rounded=0;labelBackgroundColor=none;fontFamily=Tahoma;" vertex="1" parent="1">
          <mxGeometry x="2612" y="-20" width="280" height="50" as="geometry" />
        </mxCell>
        <mxCell id="i1759LFhbYFXr8-DVYZL-36" value="" style="endArrow=classic;html=1;rounded=0;fontFamily=Tahoma;fontColor=#330000;entryX=0.5;entryY=0;entryDx=0;entryDy=0;exitX=0.5;exitY=1;exitDx=0;exitDy=0;" edge="1" parent="1" source="i1759LFhbYFXr8-DVYZL-35" target="i1759LFhbYFXr8-DVYZL-33">
          <mxGeometry width="50" height="50" relative="1" as="geometry">
            <mxPoint x="2732" y="90" as="sourcePoint" />
            <mxPoint x="2782" y="40" as="targetPoint" />
          </mxGeometry>
        </mxCell>
        <mxCell id="i1759LFhbYFXr8-DVYZL-41" value="" style="edgeStyle=orthogonalEdgeStyle;rounded=0;orthogonalLoop=1;jettySize=auto;html=1;fontFamily=Tahoma;fontColor=#330000;" edge="1" parent="1" source="i1759LFhbYFXr8-DVYZL-39" target="i1759LFhbYFXr8-DVYZL-40">
          <mxGeometry relative="1" as="geometry" />
        </mxCell>
        <mxCell id="i1759LFhbYFXr8-DVYZL-42" value="否" style="edgeLabel;html=1;align=center;verticalAlign=middle;resizable=0;points=[];fontFamily=Tahoma;fontColor=#330000;" vertex="1" connectable="0" parent="i1759LFhbYFXr8-DVYZL-41">
          <mxGeometry x="-0.2667" y="-1" relative="1" as="geometry">
            <mxPoint as="offset" />
          </mxGeometry>
        </mxCell>
        <mxCell id="i1759LFhbYFXr8-DVYZL-44" value="是" style="edgeStyle=orthogonalEdgeStyle;rounded=0;orthogonalLoop=1;jettySize=auto;html=1;fontFamily=Tahoma;fontColor=#330000;" edge="1" parent="1" source="i1759LFhbYFXr8-DVYZL-39" target="i1759LFhbYFXr8-DVYZL-43">
          <mxGeometry relative="1" as="geometry" />
        </mxCell>
        <mxCell id="i1759LFhbYFXr8-DVYZL-39" value="是否满足创建动态代理的条件" style="rhombus;whiteSpace=wrap;html=1;labelBackgroundColor=none;fontFamily=Tahoma;fontColor=#330000;align=center;verticalAlign=middle;" vertex="1" parent="1">
          <mxGeometry x="1860" y="490" width="80" height="80" as="geometry" />
        </mxCell>
        <mxCell id="i1759LFhbYFXr8-DVYZL-40" value="没有符合的Advisor就不会去创建动态代理，并进行标记，以后也不会创建" style="whiteSpace=wrap;html=1;fontFamily=Tahoma;fontColor=#330000;" vertex="1" parent="1">
          <mxGeometry x="1835" y="660" width="130" height="70" as="geometry" />
        </mxCell>
        <mxCell id="i1759LFhbYFXr8-DVYZL-46" value="" style="edgeStyle=orthogonalEdgeStyle;rounded=0;orthogonalLoop=1;jettySize=auto;html=1;fontFamily=Tahoma;fontColor=#330000;" edge="1" parent="1" source="i1759LFhbYFXr8-DVYZL-43" target="i1759LFhbYFXr8-DVYZL-45">
          <mxGeometry relative="1" as="geometry" />
        </mxCell>
        <mxCell id="i1759LFhbYFXr8-DVYZL-43" value="createProxy" style="whiteSpace=wrap;html=1;fontFamily=Tahoma;fontColor=#330000;" vertex="1" parent="1">
          <mxGeometry x="2068" y="500" width="120" height="60" as="geometry" />
        </mxCell>
        <mxCell id="i1759LFhbYFXr8-DVYZL-49" value="" style="edgeStyle=orthogonalEdgeStyle;rounded=0;orthogonalLoop=1;jettySize=auto;html=1;fontFamily=Tahoma;fontColor=#330000;" edge="1" parent="1" source="i1759LFhbYFXr8-DVYZL-45" target="i1759LFhbYFXr8-DVYZL-48">
          <mxGeometry relative="1" as="geometry" />
        </mxCell>
        <mxCell id="i1759LFhbYFXr8-DVYZL-45" value="ProxyFactory" style="whiteSpace=wrap;html=1;fontFamily=Tahoma;fontColor=#330000;verticalAlign=top;" vertex="1" parent="1">
          <mxGeometry x="2008" y="670" width="240" height="160" as="geometry" />
        </mxCell>
        <mxCell id="i1759LFhbYFXr8-DVYZL-47" value="getProxy（）" style="rounded=0;whiteSpace=wrap;html=1;labelBackgroundColor=none;fontFamily=Tahoma;fontColor=#330000;align=center;verticalAlign=middle;" vertex="1" parent="1">
          <mxGeometry x="2068" y="725" width="120" height="60" as="geometry" />
        </mxCell>
        <mxCell id="i1759LFhbYFXr8-DVYZL-51" value="" style="edgeStyle=orthogonalEdgeStyle;rounded=0;orthogonalLoop=1;jettySize=auto;html=1;fontFamily=Tahoma;fontColor=#330000;" edge="1" parent="1" source="i1759LFhbYFXr8-DVYZL-48" target="i1759LFhbYFXr8-DVYZL-50">
          <mxGeometry relative="1" as="geometry" />
        </mxCell>
        <mxCell id="i1759LFhbYFXr8-DVYZL-53" value="" style="edgeStyle=orthogonalEdgeStyle;rounded=0;orthogonalLoop=1;jettySize=auto;html=1;fontFamily=Tahoma;fontColor=#330000;" edge="1" parent="1" source="i1759LFhbYFXr8-DVYZL-48" target="i1759LFhbYFXr8-DVYZL-52">
          <mxGeometry relative="1" as="geometry" />
        </mxCell>
        <mxCell id="i1759LFhbYFXr8-DVYZL-48" value="createAOPProxy" style="whiteSpace=wrap;html=1;fontFamily=Tahoma;fontColor=#330000;verticalAlign=middle;" vertex="1" parent="1">
          <mxGeometry x="2338" y="720" width="120" height="60" as="geometry" />
        </mxCell>
        <mxCell id="i1759LFhbYFXr8-DVYZL-50" value="JDK动态代理&lt;br&gt;newProxyInstance（）" style="whiteSpace=wrap;html=1;fontFamily=Tahoma;fontColor=#330000;" vertex="1" parent="1">
          <mxGeometry x="2224.5" y="940" width="145.5" height="60" as="geometry" />
        </mxCell>
        <mxCell id="i1759LFhbYFXr8-DVYZL-52" value="Cglib动态代理&lt;br&gt;createProxyClassAndInstan（）" style="whiteSpace=wrap;html=1;fontFamily=Tahoma;fontColor=#330000;" vertex="1" parent="1">
          <mxGeometry x="2470" y="940" width="200" height="60" as="geometry" />
        </mxCell>
      </root>
    </mxGraphModel>
  </diagram>
</mxfile>
